<?xml version="1.0" standalone="no"?>
<!DOCTYPE svg PUBLIC "-//W3C//DTD SVG 1.1//EN" "http://www.w3.org/Graphics/SVG/1.1/DTD/svg11.dtd" >
<svg xmlns="http://www.w3.org/2000/svg">
<metadata></metadata>
<defs>
<font id="BigSlabHammerRegular" horiz-adv-x="1540" >
<font-face units-per-em="2048" ascent="1638" descent="-410" />
<missing-glyph horiz-adv-x="681" />
<glyph horiz-adv-x="0" />
<glyph unicode="&#xd;" horiz-adv-x="745" d="M18 319q2 -72 3.5 -142.5t5.5 -141.5q0 -14 10 -24.5t22 -12.5q41 -8 83 -10t87 -2q53 0 101.5 2t99.5 6q47 4 95 7t100 3q14 0 28.5 -1t26.5 -1q14 0 25.5 10.5t11.5 24.5q4 72 7 142.5t3 139.5q0 14 -9 25.5t-22 13.5q-10 2 -22 2h-23h-2q2 41 2 80v80q0 109 -2 215.5 t-6 210.5q0 14 -10 24.5t-23 12.5q-55 6 -110 6q-49 0 -94.5 -3t-92.5 -7t-92 -7t-92 -3h-31q-14 0 -30.5 2t-27.5 -8.5t-13 -26.5q-4 -72 -5.5 -142.5t-3.5 -140.5q0 -12 8.5 -23.5t20.5 -13.5q12 -4 27 -4h30h2v-133q0 -31 -1 -62.5t1 -62.5h-2q-10 2 -22 2t-23 2 q-18 4 -29.5 -8t-11.5 -31z" />
<glyph horiz-adv-x="624" d="M-133 1223q0 -72 35 -144.5t114 -109.5l-4 2q63 -33 133 -49.5t142 -16.5h26q8 0 14.5 -1t14.5 -1q72 0 145.5 20.5t134 59.5t98.5 95.5t38 127.5v17q0 12 -10.5 21t-26.5 11q-51 4 -107 5h-106q-10 0 -20.5 -7.5t-14.5 -17.5q-6 -18 -24.5 -31.5t-41 -20.5t-48 -10.5 t-50.5 -3.5h-6q-47 0 -93 13.5t-65 50.5q-4 10 -15 16t-21 6h-203q-16 0 -27.5 -9t-11.5 -23z" />
<glyph horiz-adv-x="552" d="M102 1106q0 -70 7 -137q4 -27 28 -31q16 -4 35 -4h43h41q23 0 45 2q20 2 39 2h41h33q12 0 21 9t11 22q4 35 5 67v70v65q0 35 -5 70q-4 27 -28 31q-35 6 -78 6q-23 0 -43.5 -1t-42.5 -3q-20 -2 -41 -2h-39h-33q-12 0 -21 -9.5t-11 -21.5q-6 -68 -7 -135z" />
<glyph horiz-adv-x="585" d="M45 1163q4 -47 19.5 -94t56.5 -84q31 -29 70.5 -49.5t84.5 -20.5h21q47 4 92 23.5t78 52.5t54.5 76t21.5 92v10q0 47 -21.5 92.5t-56.5 77.5q-33 33 -76 52.5t-90 19.5h-12q-49 -4 -93 -23.5t-79 -56.5l6 4q-41 -33 -58.5 -79t-17.5 -93zM233 1157v6q0 20 17.5 35.5 t40.5 20.5h4q23 0 39 -14.5t16 -37.5t-18.5 -39t-42.5 -20h-4q-20 0 -36 14.5t-16 34.5z" />
<glyph unicode="&#xa;" horiz-adv-x="638" d="M-301 956l33 -45q31 -4 63 -4h62h49q25 0 49 -2q4 0 14.5 3t14.5 5q57 47 114.5 91.5t116.5 89.5q39 29 79 58.5t79 59.5q20 16 12 37t-37 21q-111 0 -218 -1t-218 -1q-8 0 -17.5 -5.5t-13.5 -9.5q-57 -70 -104 -144.5t-78 -152.5zM252 958l33 -51q23 0 45 1t45 1h147 q113 72 212.5 146.5t191.5 152.5q20 16 12 37t-37 23q-61 2 -123 2h-121h-96t-96 2q-10 0 -21.5 -6t-15.5 -15l-25 -43v2q-37 -66 -73.5 -128t-77.5 -124z" />
<glyph horiz-adv-x="600" d="M-2 -143q0 -57 26.5 -102.5t69.5 -77t95.5 -48t105.5 -16.5q14 0 24.5 1t20.5 3q59 6 118.5 13.5t114.5 29.5q10 4 17.5 13.5t7.5 19.5v47q0 27 2 51.5t2 48.5q0 18 -12 27.5t-33 5.5q-29 -6 -63.5 -11t-75.5 -5q-6 -2 -23 -2q-33 0 -59.5 17t-26.5 48q0 6 4 12 q0 63 19 123q4 18 -7.5 31.5t-31.5 11.5q-29 -4 -55 -4h-52h-45q-23 0 -45 -2l-28 -18q-6 -8 -9.5 -15.5t-7.5 -15.5q-8 -16 -15 -29.5t-11 -29.5q-27 -63 -27 -127z" />
<glyph horiz-adv-x="624" d="M-131 1231q31 -78 77 -147.5t95 -135.5v2q4 -6 9 -13t9 -13t14.5 -11.5t16.5 -5.5h113q57 0 110 2q41 2 78 2h78h63q8 0 18.5 5.5t14.5 9.5t7 8l6 8q51 72 98 141.5t82 145.5q8 16 -1 30.5t-30 16.5q-37 2 -76 2h-73h-58q-27 0 -55 2q-4 0 -13.5 -3t-13.5 -7 q-29 -25 -58.5 -47.5t-57.5 -44.5q-2 -2 -5 -2q-2 0 -4 -2q-10 8 -18 14t-19 12q-20 14 -42.5 30.5t-47.5 39.5q-4 2 -14 5t-14 3q-45 -2 -88 -2h-90h-74q-23 0 -33 -14.5t-4 -30.5z" />
<glyph horiz-adv-x="299" d="M-424 59l25 -59q49 -8 100 -13t104 -7q8 0 18.5 4t16.5 12q76 117 149.5 230.5t149.5 228.5q141 221 284.5 439t293.5 435q12 18 5 36.5t-30 23.5q-51 8 -102 13t-105 7q-8 0 -19 -6t-15 -12q-217 -338 -431.5 -670t-443.5 -662z" />
<glyph d="M-8 666q0 -16 11 -27.5t28 -11.5h6q20 -4 38.5 -5t37.5 -4q0 -47 2 -96t2 -96v-68q-6 0 -11 1l-4 1q-16 2 -30.5 3.5t-32.5 3.5q-16 2 -29.5 -10.5t-13.5 -30.5q4 -25 4 -50q0 -23 4 -47q4 -49 5 -99t7 -97q0 -12 10.5 -22.5t24.5 -12.5q104 -12 212 -17.5t216 -5.5 q129 0 252 7q16 2 26.5 13t10.5 25v74v223q0 18 -14.5 28.5t-30.5 8.5q-10 -2 -19.5 -3t-17.5 -1v268h4q8 0 14.5 1.5t14.5 1.5q4 0 7 1t7 1q6 2 10 2h13q31 4 59.5 6t58.5 4v-137q0 -66 -4 -136h-6q-10 -2 -18 -2h-15q-39 0 -38 -38v-177v-118q0 -16 10 -28.5t31 -10.5 q121 10 242.5 12t244.5 2h174q14 0 25.5 10.5t11.5 24.5q8 72 12 145.5t4 145.5q2 16 -10 27.5t-29 11.5h-22q-10 0 -27 2q-4 0 -10 1t-10 1q4 66 4 131v135h2q0 61 -2 123.5t-2 124.5v80q0 14 -10.5 25t-26.5 14q-61 4 -127 5t-127 1q-102 0 -200.5 -7.5t-202.5 -7.5h-25 l-12 -2h-9h-14v19q0 43 21.5 83t62.5 40h14q6 2 15 2q27 0 47 -16.5t24 -41.5q2 -16 15.5 -26.5t30.5 -8.5q121 16 238.5 28.5t234.5 17.5q23 2 32 17t-2 38q-37 84 -99 140t-140 89t-164 46.5t-170 13.5q-20 0 -41 -1t-41 -1h-10q-100 0 -213 -24t-208 -76t-157.5 -137 t-62.5 -208q-12 0 -19 2q-16 2 -30.5 3t-34.5 1q-16 0 -27.5 -11t-11.5 -28v-116v-172zM158 348l6 6q25 -8 16 -8q-6 0 -22 2z" />
<glyph d="M-8 668q0 -16 11 -27.5t28 -11.5h6q20 -4 38.5 -5t37.5 -3q0 -47 1 -96.5t1 -96.5q2 -16 2 -35v-35q-6 0 -11 1l-4 1q-16 2 -30.5 3.5t-32.5 3.5q-16 2 -29.5 -10.5t-13.5 -30.5q4 -25 4 -50q0 -23 4 -47q4 -49 5 -99t7 -97q0 -12 10.5 -22.5t24.5 -12.5 q104 -12 212 -17.5t216 -5.5q129 0 252 7q16 2 26.5 13t10.5 25v74v223q0 18 -14.5 28.5t-30.5 8.5q-10 -2 -19.5 -3t-17.5 -1v271q8 2 14 2q8 0 13 2q12 2 25.5 3t23.5 1h18q39 0 39 39v293q0 16 -11 28t-31.5 10t-45.5 -2q-23 0 -45 -2v9q0 47 22.5 90t67.5 43h19 q35 0 53 -21q10 -10 16 -23.5t6 -25.5q2 -106 2 -213v-215v-277h-6q-12 -2 -20 -2h-15q-39 0 -38 -38v-177v-118q0 -16 10 -28.5t31 -10.5q121 10 242.5 12t244.5 2h174q14 0 25.5 10.5t11.5 24.5q8 72 12 145.5t4 145.5q2 16 -10 27.5t-29 11.5h-22q-10 0 -27 2q-4 0 -10 1 t-10 1q4 90 5 178t1 180q0 160 -5 318.5t-16 318.5q0 12 -10 23.5t-26 13.5q-70 4 -141.5 8t-143.5 4q-18 0 -35.5 -1t-34.5 -1q-8 2 -16 3t-17 3q-12 4 -24 6t-33 2h8q-29 4 -57.5 6.5t-56.5 2.5q-25 0 -48.5 -2t-50.5 -2h-10q-98 0 -205.5 -26t-199 -79t-149.5 -137 t-58 -201q-14 0 -21 2q-16 2 -30.5 3t-34.5 1q-16 0 -27.5 -11t-11.5 -28v-116v-172zM158 348l6 6q25 -8 16 -8q-6 0 -22 2z" />
<glyph horiz-adv-x="1349" d="M-12 557q0 -16 1 -34.5t1 -37.5q0 -18 13 -29.5t30 -6.5q39 4 76 12v-19q0 -6 2 -16q0 -10 1 -21.5t1 -21.5q-20 2 -39 3t-37.5 5t-31.5 -8t-13 -33q4 -78 7 -157.5t9 -157.5q2 -12 12.5 -23.5t20.5 -13.5q86 -12 171 -17.5t175 -5.5q96 0 192.5 4.5t190.5 10.5 q96 6 189.5 11t187.5 5q37 0 75 -1t76 -3q35 0 39 35q10 131 15.5 264t9.5 264q0 16 -11.5 26.5t-25.5 12.5q-59 4 -118.5 5t-116.5 1q-23 0 -48.5 1t-48.5 1q-16 0 -27.5 -13t-9.5 -30v-49v-49q-2 -16 -2 -37v-37h-28q-53 0 -107.5 -3t-107.5 -7v277q55 25 110.5 45 t114.5 41q10 4 18.5 15t8.5 21v93q0 47 -2 92l-52 35q-23 -10 -45 -16.5t-47 -16.5q-27 -10 -53.5 -19.5t-52.5 -19.5v72h14t16 2q16 2 31.5 3t28.5 1q16 0 27.5 11t11.5 28q0 80 -1 160.5t-3 160.5q0 16 -12.5 28.5t-28.5 10.5q-154 -10 -307.5 -18.5t-307.5 -8.5h-65 q-31 0 -66 2q-37 0 -41 -36q-2 -20 -2 -41q0 -18 -2 -39q-4 -59 -7 -116.5t-5 -117.5q0 -14 9 -25.5t26 -13.5q18 -4 36 -4h43h5q-4 -68 -5 -137v-133q-10 -4 -20 -5t-20.5 -5t-24.5 -6t-25 -7q-12 -2 -20 -13t-8 -23v-107z" />
<glyph horiz-adv-x="755" d="M-29 512q0 -45 2 -92q0 -23 15.5 -33t36.5 0q61 27 79 39q2 0 3.5 1t3.5 1v-72v-6q-8 0 -21 4q-8 2 -14 2t-15 2q-18 4 -31.5 -8t-13.5 -31v-53q0 -121 7 -239q0 -10 8 -20.5t20 -14.5q45 -10 87 -14.5t83 -4.5q57 0 109.5 5.5t105.5 9.5q55 6 108.5 11t106.5 5h41 q16 0 26.5 10.5t10.5 26.5q4 72 5 144.5t3 146.5q0 16 -10 27.5t-27 11.5q-10 0 -20 1t-21 1h-6q2 106 3 212.5t1 215.5q23 14 49.5 28.5t57.5 28.5q8 4 14 15.5t6 19.5v111q0 18 -1 36.5t-1 34.5q0 23 -17 34t-38 1q-8 -4 -15 -7t-16 -7q-10 -6 -21 -11.5t-22 -11.5 q-2 31 -2 60v59q-2 45 -2 90q0 47 -2 92q0 14 -10 24.5t-25 12.5q-20 2 -40.5 3t-41.5 1q-53 0 -102 -4t-100 -10q-104 -12 -203 -12h-62q-16 2 -28 -8.5t-12 -28.5q-6 -145 -7 -291q0 -16 10.5 -26.5t24.5 -12.5q12 -2 25 -2h24h13v-57v-45q0 -23 -2 -46q-2 -43 -2 -86v-84 l-117 -63l-21 -35v-92z" />
<glyph horiz-adv-x="1411" d="M2 346q4 -45 5 -89t5 -87q0 -35 1 -67.5t1 -67.5q2 -10 11.5 -21.5t23.5 -15.5q86 -16 175 -24.5t182 -8.5q98 0 196 6t196.5 14.5t200 15.5t201.5 7q70 0 148 -6q16 -2 27 9.5t11 27.5q8 90 11.5 177t7.5 177v60t4 59q0 39 -39 43q-127 6 -256 6h-55q-39 0 -39 -39v-49 v2q-4 -23 -4 -47v-49v-2q-68 -2 -131.5 -5t-128.5 -7h2q154 186 311.5 364t327.5 346q4 4 8 13.5t4 13.5q0 35 -2 68.5t-2 68.5v135q-2 14 -12.5 24.5t-22.5 12.5q-78 12 -156.5 17.5t-160.5 5.5q-98 0 -195.5 -6.5t-195.5 -12.5q-94 -6 -187.5 -11t-187.5 -5 q-57 0 -113.5 2t-116.5 8q-16 2 -29.5 -10.5t-13.5 -28.5v-113v-243v-103q0 -14 9.5 -25.5t25.5 -13.5q76 -8 156 -12t157 -4q16 0 26.5 12.5t10.5 28.5v129q53 0 107.5 3t107.5 7q-145 -174 -294.5 -337.5t-307.5 -323.5q-4 -4 -7 -13.5t-3 -15.5zM242 1825 q14 -25 26.5 -49.5t26.5 -46.5q68 -129 141 -252q4 -8 15.5 -14.5t19.5 -6.5q53 2 105.5 6t105.5 8q63 6 124.5 10.5t127.5 6.5q6 0 17.5 6t15.5 12q33 59 65.5 115.5t65.5 116.5q16 31 31.5 59.5t31.5 56.5q10 20 -2 40t-35 20q-16 0 -32.5 1t-30.5 1q-29 2 -62 2h-59h-51 q-27 0 -49 -2q-35 -29 -72 -63.5t-72 -69.5q-16 10 -29.5 23.5t-29.5 25.5q-16 14 -40 31.5t-40 29.5q-68 -4 -141.5 -6t-141.5 -4z" />
<glyph horiz-adv-x="1257" d="M25 281l12 -246q0 -12 11 -23.5t22 -13.5q74 -12 148.5 -17.5t150.5 -5.5q86 0 171 4.5t171 10.5t168 11t165 5q31 0 61 -1t60 -3q16 -2 27.5 9.5t11.5 27.5q8 82 10.5 164t6.5 164q0 16 -11.5 28.5t-27.5 12.5q-49 2 -99.5 3t-101.5 1q-14 0 -25.5 -10.5t-11.5 -26.5 q-4 -18 -4 -37v-37q-45 0 -90 -2t-88 -4q111 106 222.5 206.5t232.5 198.5q4 4 10 14.5t6 16.5q0 57 -1 115.5t-1 116.5q-2 12 -12.5 23t-22.5 13q-61 10 -125.5 12.5t-130.5 2.5q-166 0 -332 -13q-82 -4 -160.5 -9t-160.5 -5q-106 0 -219 12l-41 -38v-244v-82 q0 -12 8 -23.5t24 -15.5q6 -2 17 -2q12 0 20 -2q41 -4 82 -6t84 -2q16 0 27.5 11t11.5 28v67h47h64t63 2q-111 -102 -218 -197.5t-218 -181.5q-4 -4 -9 -15t-5 -17zM172 1419q47 -90 95 -178t98 -174q4 -8 14 -13t20 -5q47 2 95.5 4t95.5 6q68 4 133 9t135 5q10 0 19.5 6 t13.5 13q25 45 47.5 87t48.5 85q23 41 48.5 85t47.5 85q10 23 0 40t-32 19q-47 4 -96.5 5t-98.5 1q-18 0 -45 1t-45 1q-33 -31 -71 -64.5t-74 -68.5q-33 27 -64 50.5t-61 51.5q-4 4 -14.5 7.5t-14.5 3.5q-45 -4 -88 -6t-86 -2q-23 0 -44.5 1t-43.5 1z" />
<glyph unicode=" "  horiz-adv-x="681" />
<glyph unicode="&#x09;" horiz-adv-x="681" />
<glyph unicode="&#xa0;" horiz-adv-x="681" />
<glyph unicode="!" horiz-adv-x="698" d="M94 381q0 -57 2 -113.5t2 -115.5q2 -29 2 -58v-57q0 -25 23 -35q29 -16 61.5 -22.5t65.5 -6.5q39 0 70.5 5.5t66.5 11.5q33 6 64.5 11t60.5 5q10 0 21.5 -1t25.5 -3q16 -2 27.5 10.5t11.5 28.5v113q2 57 4 113.5t2 113.5q0 14 -9 24.5t-22 14.5q-18 4 -39.5 6t-41.5 2 q-35 0 -68 -4t-66 -10q-33 -4 -64.5 -8.5t-57.5 -4.5q-41 0 -95 17zM102 969l13 -92q10 -84 22.5 -167t26.5 -165q0 -12 9 -20.5t22 -10.5q10 -2 22 -3t27 -1q33 0 62.5 4t58 8t57.5 9.5t53 5.5q6 0 13.5 -1t13.5 -1q12 0 21 10t14 20q4 14 4 27q0 14 4 29q12 90 26.5 178 t26.5 180q0 61 -2 125.5t-2 126.5v121l-23 37q-35 14 -65.5 19t-63.5 5q-35 0 -66.5 -4t-64.5 -10q-66 -12 -125 -13h-41q-16 4 -27.5 -8t-11.5 -28v-125q-4 -51 -4 -103v-100v-53z" />
<glyph unicode="&#x22;" horiz-adv-x="942" d="M-6 1028q14 -66 30.5 -133.5t41.5 -132.5q2 -8 12 -14.5t18 -8.5q35 -4 74 -4h74h55q27 0 55 -2q33 0 41 29q12 68 26.5 136.5t31.5 133.5v217q0 16 -10.5 26.5t-26.5 10.5q-29 0 -54.5 -1t-54.5 -1q-47 -2 -94 -2h-92h-76q-33 0 -39 -29q-10 -53 -11 -109.5t-1 -115.5z M483 1253q2 -53 2 -108v-107q12 -51 23.5 -102t21.5 -100q4 -16 7.5 -33t7.5 -31q2 -12 13 -21.5t26 -9.5q45 2 88 2h88h76q10 0 21 7.5t15 17.5q23 59 41.5 128t34.5 140q-2 53 -4 108.5t-12 106.5l-35 31q-72 4 -143.5 5t-143.5 1h-88q-39 0 -39 -35z" />
<glyph unicode="#" horiz-adv-x="1286" d="M4 592q0 -23 1 -43.5t1 -42.5q0 -45 1 -88t1 -88q0 -12 10.5 -22.5t22.5 -14.5q16 -4 36.5 -6t43.5 -4q-12 -72 -24.5 -142.5t-22.5 -142.5q-2 -16 7 -29.5t25 -15.5q66 -8 130.5 -10t130.5 -6q14 0 25 8t16 22q14 76 28.5 153t28.5 154q41 0 80 3.5t78 7.5h22 q-6 -29 -12 -58.5t-12 -60.5q-8 -45 -17.5 -87t-19.5 -87q-4 -20 9 -34.5t34 -12.5q66 6 128 10t128 6q12 0 23.5 10.5t15.5 20.5l22 104q10 53 22.5 102.5t24.5 102.5q10 -2 23 -2h22q49 0 98.5 -1t98.5 -5q16 -2 29.5 9t13.5 28q2 45 3 89t1 89q0 23 1 43t1 43 q0 16 -10 26.5t-25 12.5q-37 4 -72.5 6t-74.5 2h-37q4 16 8 29.5t8 30t8.5 34t8.5 35.5q35 -2 71.5 -3t71.5 -5q16 -2 29.5 10t13.5 29q0 23 -1 44t-1 44q0 43 -1 87t-3 87q0 14 -10.5 24.5t-22.5 12.5q-20 4 -40.5 6t-43.5 4q14 72 25.5 142.5t23.5 142.5q4 16 -6 29.5 t-26 15.5q-63 10 -131 12l-136 4q-12 0 -23.5 -9t-13.5 -22q-6 -29 -12 -58.5t-10 -59.5q-10 -49 -18.5 -96.5t-18.5 -94.5q-45 -2 -88 -4t-86 -6q8 29 10 55l49 240q4 20 -9 35.5t-34 11.5q-35 -4 -71.5 -6t-71.5 -4q-29 -2 -59.5 -3t-59.5 -5q-25 -4 -33 -31l-69 -307 q-61 0 -120.5 2t-121.5 6q-16 2 -28.5 -9.5t-12.5 -27.5q0 -43 -1 -88t-1 -88q0 -23 -1 -44.5t-1 -43.5q0 -35 35 -39q41 -4 86 -7t90 -3l-12 -56l-15 -71q-16 0 -22 2q-31 2 -62 2q-29 0 -59 4zM537 623l16 75q4 14 7 28.5t7 29.5q16 2 36 3t38 3q27 2 52.5 4t49.5 2 q-2 -20 -6 -39.5t-8 -40.5l-12 -51q-27 -2 -51.5 -4t-49.5 -4q-23 -2 -41 -3t-38 -3z" />
<glyph unicode="$" horiz-adv-x="1198" d="M2 403q0 -100 50 -191t134 -144q68 -45 149 -69t165 -28v-116q0 -16 12 -28.5t31 -10.5q16 2 30.5 3t30.5 3l62 6q14 2 23 13.5t9 25.5v119q86 14 166 41.5t152 78.5q37 25 69.5 56t57 68.5t39 81.5t14.5 91v27q0 80 -31.5 154.5t-89.5 130.5q-80 78 -177 123t-198 69v47 v80v-2q-4 25 -4 49v49q23 -4 45 -16q29 -16 39.5 -50t14.5 -69q0 -16 12 -27.5t27 -11.5h38q66 0 130.5 -1t130.5 -7q16 -2 28.5 9.5t12.5 29.5q0 98 -44.5 189.5t-125.5 146.5v-2q-72 47 -151 70.5t-159 29.5v33l2 23q0 18 -13 29.5t-30 9.5q-14 -2 -29.5 -3.5t-31.5 -3.5 q-16 0 -30.5 -1t-31.5 -3q-14 -2 -24 -13t-10 -26v-61q-80 -16 -159 -47t-144 -80l4 2q-76 -51 -124 -132t-48 -175q0 -78 30.5 -154t87.5 -133q72 -74 164 -117t191 -61q0 -35 -1 -71t3 -70v-84v-37q-12 4 -24.5 9t-20.5 11q-29 18 -45.5 49t-16.5 66v25q0 16 -11 28 t-28 12h-30q-70 0 -137.5 3.5t-141.5 15.5q-16 4 -29.5 -8.5t-13.5 -30.5v-23zM362 1036v6q0 20 15.5 34t34.5 24q16 10 38.5 17t45.5 11v-161v-21q-23 6 -45.5 12.5t-42.5 16.5q-18 10 -32 25.5t-14 35.5zM698 242v57q0 31 4 59v84v27q23 -10 44.5 -19.5t44.5 -23.5l-5 2 q43 -29 43 -78v-2q-6 -23 -18 -43t-33 -31q-18 -12 -38.5 -19t-41.5 -13z" />
<glyph unicode="%" horiz-adv-x="1904" d="M-14 999q0 -72 25.5 -143.5t78.5 -124.5q51 -53 121 -86t143 -33h21q6 0 13 -1t13 -1q74 0 143.5 31t123.5 86q53 59 82.5 132t29.5 151v16q0 74 -26.5 147.5t-81.5 131.5l2 -2q-53 61 -129 87.5t-152 26.5h-4q-76 0 -150.5 -26.5t-129.5 -85.5q-61 -53 -92 -128 t-31 -153v-25zM344 969v32q2 10 2 21v25q2 35 7 65.5t32 40.5q18 -10 23.5 -30.5t5.5 -43.5v-61q-2 -10 -2 -23v-24q0 -33 -5.5 -63.5t-29.5 -35.5q-25 4 -29 35t-4 62zM354.5 0.5q10.5 -18.5 34.5 -20.5q37 -2 76 -4.5t76 -2.5h34t33 2q4 0 14.5 5.5t14.5 11.5 q96 147 192.5 290.5t194.5 290.5q129 195 259 387.5t257 391.5q14 20 4 39.5t-35 19.5q-53 2 -106 3t-107 1l-32 -18q-139 -217 -280.5 -429t-287.5 -425q-86 -125 -170 -251t-168 -253q-14 -20 -3.5 -38.5zM1118 373q0 -76 25.5 -145.5t79.5 -125.5q51 -53 118.5 -80.5 t139.5 -27.5h32q78 0 151 27.5t126 78.5q59 55 94 130t35 157v23q0 72 -27.5 142.5t-81.5 123.5h2q-57 59 -132.5 90t-157.5 31h-9q-78 0 -153.5 -29t-128.5 -90l2 2q-55 -55 -85 -128t-30 -151v-28zM1483 324v65q0 8 1 15.5t1 13.5q2 37 6 71.5t31 45.5q20 -6 25 -28.5 t5 -47.5v-58q-2 -10 -2 -22v-23q-2 -35 -8 -65.5t-33 -40.5q-16 6 -21 27.5t-5 46.5z" />
<glyph unicode="&#x26;" horiz-adv-x="1710" d="M6 410q0 -92 40 -177.5t106 -146.5v2q78 -78 182 -108.5t209 -30.5h24q94 0 184.5 21.5t168.5 62.5q8 6 20 14t23 12q6 4 14 9.5t18 11.5q10 -14 17.5 -23.5t17.5 -21.5l17 -23q4 -6 15 -11t19 -5q92 4 184.5 6t186.5 2q47 0 93 -1t93 -1q14 0 25.5 10.5t11.5 24.5 q8 78 12.5 157.5t8.5 159.5q0 16 -12.5 27.5t-28.5 11.5h-31q-14 0 -33 2q-27 2 -58.5 3t-59.5 1h-7q-8 10 -16 20.5t-16 20.5q-4 8 -10.5 14.5l-12.5 12.5l8 6q37 39 68 82t51 92h43h37q20 0 41 -4q18 -4 31.5 7.5t13.5 31.5v70q0 41 -1 85t-1 85q-2 18 -2 36v39 q0 16 -10.5 26.5t-26.5 12.5q-68 6 -138.5 9.5t-140.5 5.5q-16 0 -33.5 1t-35.5 1q-10 0 -20.5 -7.5t-14.5 -17.5q-29 -61 -58.5 -123.5t-66.5 -118.5v-2l-20 21h4q-27 29 -51.5 59.5t-51.5 59.5q0 2 -2 3t-2 3q-20 23 -36.5 46t-16.5 48v4q0 27 29.5 40t58.5 13q4 0 5 -1 t5 -1h15q16 0 28.5 11.5t12.5 27.5q0 23 -2.5 46.5t-2.5 47.5q0 47 -1 93.5t-1 93.5q-2 16 -13 26.5t-26 12.5h-92h-84q-86 0 -181 -21.5t-176 -67.5t-133 -119t-52 -175v-19q0 -45 11 -88t30 -84q-72 -25 -138.5 -56.5t-124.5 -84.5l5 2q-68 -57 -107 -136t-39 -167v-12z M510 436q0 25 9 48.5t22 45.5v-2q20 29 41 45q23 -25 42 -48t42 -48h-2l127 -151q-29 -23 -63 -34t-69 -11q-61 0 -105 47t-44 108z" />
<glyph unicode="'" horiz-adv-x="477" d="M31 1034q6 -29 11 -58.5t11 -57.5q8 -39 16.5 -78t18.5 -78q4 -8 11 -16.5t18 -10.5q8 -2 20 -2h23q23 0 47 2t49 4q23 2 47.5 3t50.5 1q25 0 33 27l16 64q12 49 23.5 98t22.5 96v39q0 35 -2.5 71t-2.5 70q-2 10 -2 19v20l-28 35q-27 6 -52.5 8t-54.5 2q-51 0 -100 -6h4 q-27 -2 -50.5 -4t-49.5 -2h-19q-8 0 -20 2q-14 2 -25.5 -7t-11.5 -26q-4 -53 -4 -108v-107z" />
<glyph unicode="(" horiz-adv-x="849" d="M29 504q0 -166 50 -327t150 -292h-2q51 -66 115 -113.5t134.5 -82.5t144 -61.5t147.5 -49.5q20 -6 34.5 5t14.5 32q0 23 1 41t1 39q2 39 2 80v82q0 10 -6 20t-14 14q-76 43 -117 115t-60.5 157t-23.5 176t-6 175q2 18 3 39.5t1 44.5q2 76 6 156t23.5 151.5t59.5 126.5 t112 84q10 4 16 15.5t6 21.5v82q0 43 -2 84q0 18 -1 38.5t-1 41.5q0 16 -10 27.5t-27 11.5h-18q-84 0 -160 -31t-142.5 -80t-125 -112.5t-107.5 -127.5l2 3q-94 -121 -147 -267.5t-53 -302.5v-16z" />
<glyph unicode=")" horiz-adv-x="849" d="M29 -143q0 -20 1 -41t1 -41q0 -41 1 -83t3 -83q0 -16 10 -26.5t27 -10.5h20q84 0 159 30.5t140.5 80t121.5 112t105 125.5q94 119 148.5 266.5t54.5 302.5v15q0 166 -50 325.5t-153 288.5l3 -2q-49 68 -113 117t-134.5 86t-144 64.5t-147.5 52.5q-18 6 -32.5 -5.5 t-14.5 -31.5t-1 -41t-1 -39q-2 -41 -3 -83t-1 -83q0 -8 6 -18.5t12 -14.5q76 -45 118 -117.5t62.5 -158.5t24.5 -178.5t6 -176.5q-2 -23 -2 -45q0 -23 -2 -47q-4 -74 -9 -151.5t-24.5 -146t-58.5 -124t-109 -81.5q-10 -4 -17 -15.5t-7 -21.5z" />
<glyph unicode="*" horiz-adv-x="1198" d="M8 846q-6 -33 23 -45q51 -20 104 -35.5t111 -17.5q10 2 18 2h19q18 4 36.5 6t40.5 2h17h26q14 0 29 -2q-53 -43 -117 -76q-61 -31 -103 -77t-83 -93q-10 -12 -7 -28.5t15 -26.5q35 -27 68 -52.5t67 -48.5q31 -23 60.5 -44t58.5 -44q16 -12 31.5 -9t26.5 19q4 10 22 33 q29 45 55.5 92.5t34.5 106.5q6 39 16.5 74.5t22.5 70.5q14 -35 23.5 -67.5t13.5 -73.5q12 -55 44 -110.5t67 -106.5q10 -14 25 -17.5t30 7.5q61 47 122.5 93t127.5 89q14 10 17 24.5t-5 28.5l-12 17q-35 47 -75 91t-97 70q-35 16 -62.5 35t-56.5 41l57 4q47 4 90 -8h19 q10 0 20 -2q55 2 109.5 9t105.5 24q16 4 23.5 17t3.5 30q-23 74 -47.5 148.5t-52.5 146.5q-14 33 -50 22q-4 -2 -9 -3t-9 -3q-55 -18 -111.5 -40.5t-99.5 -63.5q-29 -27 -56.5 -48.5t-56.5 -41.5q10 35 20.5 67.5t26.5 61.5q27 53 34 108t7 113v37q0 16 -11 28.5t-30 10.5 q-33 -2 -64.5 -4.5t-64.5 -4.5q-43 -4 -87 -5t-87 -3q-16 0 -26 -10t-10 -27q0 -61 4 -125.5t39 -128.5q16 -29 27 -62.5t22 -70.5q-33 20 -61.5 41t-53.5 43q-45 41 -95 62.5t-102 44.5q-6 4 -15 6t-17 6q-16 6 -30.5 -1t-19.5 -24q-12 -35 -23 -69.5t-24 -69.5 q-14 -35 -25.5 -71.5t-23.5 -71.5z" />
<glyph unicode="+" horiz-adv-x="1280" d="M49 713q0 -43 1 -87t1 -89q4 -33 37 -37q63 -8 128 -10.5t130 -2.5h98v-45v-211q2 -25 2 -51v-47q0 -16 12.5 -26.5t28.5 -10.5q41 2 77 3t77 5q37 2 76 4.5t76 2.5q16 0 26 10t10 26q4 90 6.5 178.5t2.5 180.5q33 0 67.5 1t69.5 1q104 0 215 -6q16 -2 26.5 9t10.5 28 q4 31 4 63v66q0 43 -1 87t-1 89q-4 35 -37 37q-72 6 -148.5 9t-148.5 3h-64v90q0 66 -2 129.5t-2 128.5q-2 16 -14 27.5t-29 11.5q-33 -2 -64.5 -4t-64.5 -4q-43 -4 -85 -5t-89 -3q-14 0 -23 -10.5t-9 -26.5q-2 -90 -4.5 -177t-2.5 -178q-29 -2 -55.5 -1t-54.5 1h2 q-123 0 -242 7q-16 2 -27.5 -8.5t-11.5 -26.5q-4 -33 -4 -68v-63z" />
<glyph unicode="," horiz-adv-x="698" d="M94 37q0 -33 33 -37q29 -4 58.5 -6t64.5 -2h8q-2 -27 -9 -51.5t-24 -40.5l4 4q-14 -10 -30.5 -13.5t-32.5 -3.5q-18 0 -29 2q-16 2 -28.5 -9t-12.5 -30q0 -92 6 -180q0 -8 7.5 -17t13.5 -13q29 -12 59 -17q6 -2 13 -2q8 0 14 -2h20q63 0 123 20.5t113 55.5l-2 -2 q72 41 106.5 118.5t34.5 159.5v72q0 82 -2 165t-4 163q0 12 -9 22t-20 15q-47 8 -110 8q-70 0 -137 -6q-31 -2 -61 -5.5t-58 -3.5q-14 0 -30.5 1t-33.5 4l-37 -35q-4 -84 -6 -167t-2 -167z" />
<glyph unicode="-" horiz-adv-x="825" d="M45 449q0 -49 2 -96.5t8 -94.5q2 -12 11.5 -21.5t21.5 -9.5q41 -4 81 -6t81 -2q51 0 102 2t101 4q45 2 86 2h86h104q14 -2 25.5 7.5t13.5 23.5q12 88 12 184q0 94 -12 187q-2 10 -12.5 19t-22.5 11q-45 2 -89 3.5t-89 1.5t-90 -1t-90 -1q-49 -2 -96.5 -3.5t-98.5 -1.5 h-43t-43 2l-39 -30q-6 -45 -8 -90t-2 -90z" />
<glyph unicode="." horiz-adv-x="700" d="M94 184q0 -41 1 -78.5t7 -74.5q0 -27 31 -31q29 -4 62 -4h63h74q37 0 74 2q39 2 77 2h82q12 0 22.5 9t10.5 22q4 37 7 74.5t3 78.5t-3 78t-7 74q0 27 -33 31q-29 4 -61 4h-64h-73q-35 0 -72 -2q-39 -2 -80 -2h-80l-33 -31q-6 -37 -7 -75t-1 -77z" />
<glyph unicode="/" horiz-adv-x="503" d="M-35 47l23 -45q72 -29 159 -29q31 0 57.5 3.5t53.5 7.5q10 2 18.5 12t10.5 20q27 154 56.5 302.5t59.5 302.5q35 180 70 359t66 363q4 14 -4.5 26.5t-20.5 16.5q-41 14 -82 20.5t-80 6.5q-27 0 -53.5 -3t-50.5 -7q-10 -2 -19.5 -11.5t-11.5 -19.5q-27 -150 -56.5 -297 t-58.5 -297q-37 -184 -71.5 -364.5t-65.5 -366.5z" />
<glyph unicode="0" horiz-adv-x="1320" d="M41 698q0 -141 42 -279t134 -249l-2 2q72 -92 176.5 -148.5t220.5 -56.5h27q14 0 25 2h-2q127 8 240.5 67.5t195.5 158.5v-2q94 102 138 232t44 267v25q0 139 -46 271t-136 241l2 -2q-72 92 -177.5 149.5t-222.5 57.5h-24q-12 0 -23 -2h4q-129 -10 -242.5 -71 t-197.5 -157q-92 -106 -134 -238t-42 -268zM557 655v62q0 43 4 90l8 94q2 25 8.5 53.5t17.5 52t26.5 41t40.5 21.5h2q35 0 54 -36t25 -70q10 -59 15.5 -116t5.5 -112v-55q0 -43 -4 -90l-8 -94q-2 -25 -8.5 -52.5t-16.5 -52t-27.5 -41t-42.5 -20.5h-4q-35 0 -52 36.5 t-28 73.5l2 -2q-18 113 -18 217z" />
<glyph unicode="1" horiz-adv-x="1286" d="M217 930q0 -16 10.5 -27.5t26.5 -11.5h6q4 0 21 -4l-5 2q8 -4 23 -4q10 -2 20 -2h23h29q14 0 28 2v-267v-270q-33 2 -67.5 7t-69.5 12q-18 4 -30.5 -8.5t-12.5 -30.5q2 -72 4 -147t6 -146q0 -27 27 -35q55 -14 107.5 -19.5t103.5 -5.5q63 0 122.5 4.5t119 10.5t117 11 t112.5 5q23 0 42 -1t40 -3q16 -2 27.5 9.5t13.5 27.5q4 72 5 144.5t3 144.5q0 35 -35 39q-35 2 -70.5 3t-70.5 3v375q0 164 -1 327.5t-5 327.5q0 14 -10.5 24.5t-24.5 12.5q-12 2 -27 2h-28q-35 0 -71 -2t-71 -6q-6 0 -15 -7.5t-13 -11.5q-53 -80 -140.5 -119t-179.5 -39 h-22q-10 0 -21 3q-16 4 -28.5 -9.5t-12.5 -29.5q0 -25 -1 -48.5t-1 -50.5v2q-2 -47 -3 -97t-1 -97z" />
<glyph unicode="2" horiz-adv-x="1314" d="M88 59q0 -4 2 -9t2 -11l31 -39q72 -14 146.5 -19.5t150.5 -5.5q78 0 156.5 4.5t156.5 10.5t156 11t155 5q29 0 56.5 -1t56.5 -3q16 -2 27.5 9.5t11.5 25.5q8 70 12 139.5t9 136.5q2 35 4 68t6 68q0 16 -11.5 28t-27.5 15q-55 4 -115 4h-115h-45q-14 0 -24 -9.5 t-14.5 -21.5t-4.5 -29v-33v-20q-43 0 -86 -3t-84 -7q-37 -4 -71.5 -6t-71.5 -7q16 16 32.5 33t37.5 29q53 49 118.5 85t135.5 73q55 31 114.5 67.5t108.5 84.5t81 108.5t32 136.5v14q0 98 -47.5 182t-122.5 144q-72 57 -161 87t-181 30q-16 0 -31 -1t-31 -3 q-92 0 -189.5 -29t-177 -86.5t-131 -140t-51.5 -189.5v-16q0 -14 10.5 -25.5t22.5 -11.5q72 -10 145.5 -14.5t149.5 -4.5h53q16 0 26.5 10.5t10.5 26.5q2 29 10 57.5t21 57.5l-8 -8q16 23 40.5 35t51.5 12q8 2 20 2q29 0 52.5 -19.5t23.5 -48.5v-2q-12 -84 -72.5 -144.5 t-128.5 -113.5q-12 -10 -24.5 -20t-24.5 -19q-6 -4 -17 -14l-12 -10q-72 -59 -146.5 -122t-125.5 -151v2q-47 -74 -65.5 -158.5t-18.5 -170.5v-56z" />
<glyph unicode="3" horiz-adv-x="1320" d="M47 459q0 -104 44 -195.5t117 -159t167 -106.5t192 -39q47 0 95 10h-9q117 8 227.5 39t209.5 94q78 53 131 138.5t53 185.5v23q0 94 -54.5 178t-136.5 129q61 41 101.5 104.5t40.5 136.5v17q0 92 -44 176t-118 137q-74 57 -163 83t-181 26h-33q-14 0 -29 -2h7 q-94 -2 -198 -29t-190 -80t-144 -136t-60 -200q0 -14 10 -25.5t27 -13.5q90 -10 180 -16t182 -8l39 39q0 47 30.5 84.5t77.5 37.5h11l6 3h4q35 0 61.5 -24t26.5 -56v-9q0 -57 -50 -92t-106 -43q-12 -2 -22 -14t-10 -25v-217q0 -20 13 -31.5t34 -7.5q6 2 12 2h12 q27 0 54.5 -7t49 -20.5t35 -32.5t13.5 -46v-21q0 -47 -42 -82.5t-91 -35.5q-10 -2 -16.5 -3t-10.5 -1q-55 0 -95 46t-40 101v18q0 16 -12.5 28.5t-30.5 10.5q-59 -6 -118.5 -8t-121.5 -2h-98q-16 0 -27.5 -11t-11.5 -28v-20z" />
<glyph unicode="4" horiz-adv-x="1323" d="M-190 608l124 -147zM35 694q2 -22 4 -45q2 -47 4 -95t2 -95q0 -12 9 -21.5t20 -11.5q31 -4 72.5 -6t84.5 -4t84 -2h74q143 0 283 12v-68q-4 0 -9.5 -1t-9.5 -1q-29 -4 -53.5 -5t-52.5 -3q-14 0 -25.5 -11t-11.5 -26v-75q0 -39 2 -74q2 -20 2 -37v-35v-37q0 -14 -2 -35 q-2 -18 10.5 -30.5t30.5 -10.5q141 10 277.5 18.5t277.5 8.5h61q31 0 62 -2q16 -2 26.5 9.5t12.5 27.5q4 41 6 85t4 87q2 29 3 57.5t3 57.5q2 16 -10 28.5t-29 12.5h-20t-23 2q-14 0 -27.5 1t-29.5 3v33q0 16 2 32q14 -2 27.5 -3t27.5 -1q12 0 23.5 -1t23.5 -1 q16 0 27.5 11.5t11.5 27.5q0 23 1 46.5t1 47.5v142q0 16 -11 27t-28 11q-8 0 -14 1.5t-12 1.5h4q-20 2 -40 3t-38 1q-2 164 -5 324.5t-11 322.5q0 14 -11.5 24.5t-25.5 12.5q-55 4 -111.5 6t-111.5 2q-47 0 -93.5 -2t-93.5 -6l-24 -15q-72 -84 -139.5 -164.5t-139.5 -161.5 t-153.5 -160t-182.5 -157q-6 -6 -11 -17t-5 -22q-2 -23 0 -45zM432 729q59 63 118.5 126t119.5 126v-43t2 -43q2 -25 2 -47v-45v-60q-59 -4 -120.5 -8t-121.5 -6z" />
<glyph unicode="5" horiz-adv-x="1320" d="M47 383q20 -92 73.5 -173t131.5 -136h-2q76 -55 164 -82t180 -27q18 0 34.5 1t33.5 3q115 10 225 45t207 105l-2 -2q86 59 134 152t48 198v25q0 96 -38 185t-112 152l2 -2q-72 72 -166 103t-190 31h-25q-10 0 -22 -3q-68 -6 -132.5 -25.5t-127.5 -47.5q4 39 5 77.5 t5 77.5q90 2 180 13h-2q59 4 114.5 8t115.5 4h10q0 -2 1 -3t1 -3q4 -12 9 -24.5t9 -24.5q4 -10 15.5 -17.5t21.5 -7.5h25q53 0 106 -6q23 -2 46.5 -3t45.5 -1q16 0 27.5 11t11.5 28q-4 176 -12 348l-35 37q-59 8 -120.5 11t-120.5 3q-84 0 -165 -5t-165 -9t-166 -8.5 t-168 -4.5h-61q-14 0 -25.5 -11t-13.5 -25q-2 -43 -6.5 -84t-8.5 -86q-12 -129 -22 -258t-15 -258q0 -10 6.5 -21.5t14.5 -15.5q6 -4 14.5 -6.5t14.5 -6.5q63 -27 126.5 -51t139.5 -47q20 -4 37 8q35 29 78 51.5t94 22.5q20 4 22 4q43 0 77 -32.5t34 -77.5q0 -4 -1 -7.5 t-1 -7.5v-12q0 -29 -13.5 -53.5t-34 -44t-47 -30.5t-53.5 -11q-6 0 -11 -1t-11 -1q-41 0 -76 22.5t-49 61.5q-4 10 -16.5 19t-22.5 7q-45 -4 -89 -7t-87 -3q-35 0 -66.5 1t-66.5 3q-8 0 -17.5 1t-15.5 1q-18 0 -30.5 -13.5t-8.5 -33.5z" />
<glyph unicode="6" horiz-adv-x="1320" d="M51 764q0 -18 1 -34.5t3 -33.5v-6q0 -145 43 -286.5t148 -249.5l-2 2q76 -86 182 -136.5t221 -50.5q16 0 30.5 1t29.5 3h-2q106 6 205.5 45t185.5 107q78 61 126 153.5t48 194.5v14q0 92 -34 179.5t-99 152.5h2q-61 66 -147.5 99.5t-176.5 33.5h-20q-53 0 -104.5 -16 t-96.5 -39h2q-10 -6 -19.5 -11t-19.5 -9q10 82 45 141q23 35 54.5 59.5t68.5 24.5h14q35 0 66 -20.5t47 -55.5q4 -10 16.5 -17.5t22.5 -4.5q111 12 215 12q29 0 57.5 -1t57.5 -3q20 0 31.5 13t7.5 34q-16 82 -63.5 152.5t-113 120.5t-145.5 79t-162 29q-16 0 -29.5 -1 t-27.5 -3h-6q-133 0 -253 -55.5t-210 -147.5t-144.5 -214t-54.5 -255zM557 543v8q16 10 39 18q23 10 43 17.5t49 11.5q6 2 12 2q41 0 68 -40t27 -83v-33q0 -45 -27 -85t-74 -40q-8 -2 -18 -2q-29 0 -54.5 12.5t-35.5 37.5q-16 39 -22.5 84t-6.5 92z" />
<glyph unicode="7" horiz-adv-x="1314" d="M86 905q0 -16 11.5 -26.5t25.5 -12.5q66 -4 132.5 -7t131.5 -3q16 0 27.5 11.5t11.5 27.5v147q49 0 100.5 4.5t100.5 8.5q39 4 76.5 6t74.5 2q-63 -78 -116.5 -165t-100.5 -181l2 2q-49 -90 -92 -178t-74 -185q-18 0 -35.5 1t-34 3t-34 3.5t-37.5 1.5q-16 0 -27.5 -11.5 t-11.5 -27.5q2 -76 4 -153t6 -155q0 -12 10.5 -23t22.5 -13q41 -4 83 -6.5t83 -2.5q72 0 141.5 5.5t139.5 9.5q70 6 141.5 10t138.5 4h33q16 0 26.5 11.5t10.5 27.5q0 18 1 35.5t3 36.5q6 117 6 231q0 39 -39 39h-51h-74q20 82 47 157.5t58 147.5q45 104 100 206.5 t121 201.5q-2 61 -4 129.5t-6 130.5l-33 37q-70 12 -139.5 17t-141.5 5q-80 0 -163 -5t-164 -11q-154 -12 -312 -13q-31 0 -61.5 1.5t-63.5 1.5q-35 0 -39 -37q-8 -111 -12 -222.5t-4 -224.5z" />
<glyph unicode="8" horiz-adv-x="1323" d="M37 408q0 -8 2 -17v8q0 -106 48 -188t124 -137.5t170 -84t188 -28.5q25 0 49.5 2t47.5 6h-4q96 4 205.5 29t201.5 77t153.5 137t61.5 208v-6q2 10 2 35q0 92 -56 170.5t-134 125.5q63 41 105 110t42 146v19q0 92 -49 176t-125 133l2 -2q-74 55 -165 82t-183 27 q-20 0 -35.5 -1t-32.5 -3h2q-92 -4 -194.5 -31t-189.5 -79t-143 -133t-56 -196v-8q0 -82 41 -152.5t106 -113.5q-78 -47 -131 -123t-53 -170v-18zM516 406v14q0 29 13.5 55.5t35 46t48 32.5t55.5 15l8 2h16q43 0 77 -32.5t34 -77.5v-25q0 -27 -12.5 -51.5t-32 -42.5 t-46 -29.5t-53.5 -11.5q-10 -2 -20 -2q-47 0 -85 29.5t-38 77.5zM539 965v14q0 49 39 83t86 36q4 0 9 1t9 1q37 0 67.5 -28t30.5 -64v-19q0 -43 -36.5 -72.5t-79.5 -31.5q-8 -2 -27 -2q-35 0 -66.5 22.5t-31.5 59.5z" />
<glyph unicode="9" horiz-adv-x="1320" d="M51 920q0 -92 32 -181.5t97 -156.5q61 -66 145.5 -101t174.5 -35h28q47 0 98.5 15.5t100.5 38.5q8 4 14.5 8t14.5 8l4 2q-4 -39 -14.5 -74.5t-30.5 -68.5h2q-23 -31 -50.5 -55.5t-66.5 -24.5h-12q-39 0 -71 21.5t-46 56.5q-4 10 -16.5 18t-24.5 6q-61 -8 -118.5 -9 t-116.5 -1h-93q-20 0 -31.5 -14.5t-7.5 -32.5q16 -84 63.5 -153.5t113 -120t144.5 -79t161 -28.5q16 0 30.5 1t26.5 3h2q133 0 254 56.5t212 150.5t145.5 217t54.5 256q0 20 -2 37.5t-2 36.5v12q0 141 -46 278.5t-147 241.5l2 -2q-78 86 -183.5 136.5t-217.5 50.5 q-16 0 -30.5 -1t-27.5 -3h2q-111 -6 -213 -45t-188 -111l2 2q-80 -63 -123 -158.5t-45 -197.5zM528 920v32q0 47 27 89t74 42h14q29 0 53.5 -13t34.5 -38q14 -45 21.5 -92t11.5 -94q-4 -4 -8 -4q-2 0 -6 -2t-13.5 -6.5t-15.5 -6.5q-8 -4 -25 -8h2q-16 -6 -30.5 -9t-32.5 -7 q-6 -2 -14 -2q-41 0 -67 39t-26 80z" />
<glyph unicode=":" horiz-adv-x="698" d="M94 375q0 -86 2 -170t6 -170q0 -12 7.5 -22.5t19.5 -14.5q29 -8 58.5 -10t64.5 -2t68.5 2t68.5 6q33 4 66.5 7t68.5 3q10 0 19.5 -1t19.5 -1q35 0 35 35q2 86 4 170t2 168q2 14 -7 25.5t-24 13.5q-20 2 -43.5 3t-46.5 1q-63 0 -127 -6q-31 -4 -64.5 -6.5t-62.5 -2.5 q-23 0 -46 2.5t-48 8.5zM94 598q-2 -14 8.5 -24.5t24.5 -12.5q39 -6 88 -6q33 0 63.5 2t65.5 6q29 2 62.5 4t62.5 2q23 0 46.5 -2t47.5 -6q18 -4 30.5 7.5t12.5 29.5q-2 86 -4 170t-2 170q-2 10 -10 20.5t-19 12.5q-35 10 -66.5 14t-64.5 4q-35 0 -66.5 -3t-66.5 -7 q-33 -4 -65.5 -7t-67.5 -3q-10 0 -19.5 1t-19.5 1l-35 -35q-6 -170 -6 -338z" />
<glyph unicode=";" horiz-adv-x="700" d="M94 102q0 -33 2 -65q0 -12 8.5 -21.5t18.5 -13.5q59 -20 125 -20h12q-2 -27 -8 -51.5t-21 -43.5q-10 -8 -21 -10t-24 -2q-23 0 -43 6q-18 6 -32.5 -5t-12.5 -34q2 -29 2 -55v-55q0 -18 1 -37t1 -37q0 -12 7.5 -22.5t17.5 -14.5q8 -4 14 -6q16 -4 31.5 -11t36.5 -10 q6 -2 14 -2h19q61 0 116.5 29t104.5 64q66 43 103.5 117.5t37.5 158.5v10q0 104 1 206t1 206q0 29 -26 37q-29 10 -53.5 13t-51.5 3q-37 0 -68.5 -5t-62.5 -9t-62.5 -8t-58.5 -4q-23 0 -43 2t-41 8l-45 -37v-215v-66zM96 612q0 -33 29 -39q35 -8 84 -8q35 0 66.5 4t64.5 8.5 t63.5 8.5t59.5 4q51 0 94 -15q18 -6 32.5 5.5t14.5 31.5q0 59 -1 115.5t-3 114.5q0 29 -1 58.5t-1 57.5q0 12 -7 22.5t-18 14.5q-31 12 -61.5 16.5t-60.5 4.5q-37 0 -70 -4l-66 -8q-33 -6 -64.5 -10.5t-62.5 -4.5q-10 0 -22 1t-25 3l-39 -39q0 -29 -1 -57.5t-1 -56.5v2 q-2 -57 -3 -114.5t-1 -115.5z" />
<glyph unicode="&#x3c;" horiz-adv-x="1277" d="M47 551q0 -8 7 -19.5t14 -15.5q147 -78 296.5 -136t303.5 -114q127 -45 249.5 -91t241.5 -101q20 -10 36.5 -1t18.5 31q4 53 5.5 109.5t5.5 112.5q2 27 3 52t3 54q0 25 -23 37q-145 63 -290.5 118.5t-292.5 102.5q141 61 285.5 119.5t291.5 99.5q12 4 20.5 15.5t8.5 23.5 q-4 82 -7 165t-10 167q-2 18 -16 28.5t-35 4.5q-143 -43 -281.5 -104.5t-277.5 -125.5q-129 -59 -259 -117.5t-271 -101.5q-10 -4 -18.5 -14t-8.5 -23v-276z" />
<glyph unicode="=" horiz-adv-x="1277" d="M45 594q0 -12 1 -24.5t1 -24.5q4 -61 6 -125t10 -125l33 -33q78 -8 155 -11t155 -3q82 0 163.5 2t161.5 6q86 4 171 6t173 2h101q14 0 24 9.5t14 21.5q8 49 10.5 102.5t4.5 104.5q2 23 2 45q0 23 2 45q2 16 -9.5 26.5t-27.5 12.5q-98 6 -205 6q-84 0 -166 -2t-166 -6 q-158 -6 -311 -6q-66 0 -130 2t-130 6q-16 2 -29.5 -9.5t-13.5 -27.5zM45 748l37 -39q57 -4 115 -4h116q80 0 159 1t157 3q84 4 166 6t166 2q59 0 116.5 -2t116.5 -6q16 -2 28.5 10t10.5 31q-2 23 -2 45q0 23 -2 45q-2 53 -4 105t-11 102q-2 12 -13 21t-21 11 q-78 8 -156 10.5t-158 2.5q-156 0 -309 -7q-82 -4 -162 -6t-159 -2h-68q-31 0 -66 2q-14 0 -25 -9t-14 -23q-8 -76 -13 -149t-5 -150z" />
<glyph unicode="&#x3e;" horiz-adv-x="1277" d="M47 432q4 -82 7 -165t9 -165q2 -18 15.5 -29.5t32.5 -4.5q150 43 289 103t280 126q129 59 257 117.5t267 99.5q10 4 18.5 15.5t8.5 21.5v276q0 10 -7 20.5t-14 14.5q-143 74 -289.5 131.5t-297.5 112.5q-129 47 -256 94t-248 107q-20 10 -36.5 -0.5t-19.5 -32.5 q-6 -82 -9 -163t-7 -163q0 -10 7 -21.5t16 -15.5q145 -68 290.5 -121t294.5 -100q-141 -66 -285.5 -121t-295.5 -98z" />
<glyph unicode="?" horiz-adv-x="1218" d="M-6 1006q-2 -16 9 -27.5t28 -13.5q66 -4 132 -7.5t132 -3.5h61q33 0 64 2q16 2 26.5 12.5t10.5 26.5v11q0 47 32.5 82.5t79.5 35.5h9q8 2 18 2q43 0 74.5 -30.5t31.5 -71.5v-18q0 -31 -14 -57.5t-36.5 -46t-51.5 -31t-57 -11.5q-14 2 -31 2h-33h-28q-12 0 -29 2 q-18 2 -32.5 -11t-10.5 -32q8 -70 12 -133q4 -39 6 -80t9 -80q2 -16 14 -25t26 -9q35 4 66 5t63.5 5t63.5 6t63 4q10 0 20.5 9t14.5 20q4 20 8 45q0 4 5 16q88 4 173 31t158 80l-2 -2q66 43 106 114.5t40 155.5v21q0 96 -51.5 174.5t-118.5 134.5v-2q-80 70 -180.5 96.5 t-200.5 26.5h-35q-18 0 -35 -2h2q-92 -6 -197.5 -29t-195.5 -72t-151.5 -128t-67.5 -197zM289 362q2 -88 3 -176t5 -174q0 -37 39 -37q14 0 28.5 -1t28.5 -1q66 0 129.5 4.5t128.5 8.5q39 2 77 6t79 6q14 0 24.5 12.5t10.5 26.5l6 348q0 39 -41 39q-49 -2 -100.5 -4 t-102.5 -6h2q-61 -4 -121.5 -8.5t-119.5 -4.5h-37q-16 0 -27.5 -11t-11.5 -28z" />
<glyph unicode="@" horiz-adv-x="1441" d="M125 512q0 -129 49 -249t129 -218q74 -90 181.5 -145.5t224.5 -55.5h26q12 0 27 2q88 8 173 33t163 72q59 35 114.5 73.5t96.5 98.5q10 14 3 28.5t-24 16.5q-23 2 -45 2h-45q-16 0 -34.5 1t-37.5 3q-4 0 -12 -3t-12 -5q-29 -31 -66 -51.5t-73 -36.5q-53 -23 -109.5 -35 t-116.5 -16q-10 -2 -24 -2q-78 0 -147.5 36.5t-123.5 92.5q-68 68 -103.5 157.5t-35.5 188.5v18q0 94 35 182t100 156q59 66 140 110t176 48q10 2 24 2q66 0 127.5 -24.5t108.5 -71.5h-2h-35h-53h-56q-25 0 -28 -27l-2 -8q-20 16 -41 28h2q-23 10 -46.5 17.5t-50.5 7.5h-12 q-84 0 -152.5 -54.5t-105.5 -125.5v2q-45 -78 -68.5 -163t-21.5 -175q0 -66 15.5 -129.5t60.5 -110.5v2q33 -37 77 -61.5t95 -24.5h4q51 0 97 22.5t85 53.5q18 -27 47 -42t62 -15h10q88 0 160.5 49t128.5 110l-2 -2q66 72 102.5 161t36.5 183v15q0 111 -47 214t-125 183 l2 -2q-70 78 -165 124t-198 46h-24q-10 0 -21 -2h2q-127 -8 -239.5 -68.5t-198.5 -154.5q-84 -92 -133 -205t-49 -236v-20zM563 416v6q0 123 45 231q16 35 42 66t63 35q39 -8 51 -51t12 -82q2 -59 -11 -113.5t-36 -108.5q-16 -37 -39.5 -71.5t-58.5 -38.5h4q-41 4 -56.5 46 t-15.5 81zM946 297h2h-2zM946 299h2h-2zM946 301q20 115 37.5 227.5t34.5 227.5q6 35 11 65.5t11 63.5v8q45 -51 73 -114.5t26 -131.5q0 -66 -15.5 -130t-54.5 -118q-23 -31 -50.5 -60.5t-66.5 -39.5q0 2 -6 2z" />
<glyph unicode="A" horiz-adv-x="1478" d="M-35 354q2 -80 7 -159.5t10 -159.5q2 -12 12 -23.5t24 -13.5q215 -25 437 -25q23 0 44 1t44 1q16 0 27.5 12.5t11.5 28.5q-2 37 -2 72v74v74t-2 73q0 37 -39 37h-50h-6q2 10 3 16.5t6 16.5q4 16 10 28.5t10 28.5q74 2 147.5 6t147.5 9q8 -35 20 -68v2l4 -23q-8 -2 -28 -2 q-10 0 -18.5 -1t-18.5 -1q-16 0 -27.5 -11t-11.5 -28v-294q0 -16 12.5 -28.5t28.5 -10.5q264 18 524 18q41 0 81 -1t81 -1q16 0 26.5 10.5t12.5 24.5q8 78 12 157.5t8 157.5l-38 41h-21q-10 0 -24 2q-8 0 -13.5 1t-13.5 1q-109 311 -232 615q12 0 25.5 -1t26.5 -1 q18 -2 29.5 10t11.5 29q-2 80 -5.5 161.5t-7.5 161.5q-4 33 -37 37q-45 4 -90 4h-88q-92 0 -182 -4t-182 -8q-188 -12 -371 -12h-43q-14 0 -25.5 -11.5t-13.5 -25.5q-4 -82 -6 -163t-4 -161q0 -16 10 -26.5t27 -10.5q12 -2 24 -2h29q-47 -119 -91 -237.5t-85 -237.5 q-12 -33 -23.5 -64.5t-23.5 -62.5q-12 0 -19 2q-12 2 -24.5 3t-28.5 1q-39 0 -39 -39zM594 682q10 35 22.5 70.5t22.5 70.5l25 80q6 -18 11 -36.5t11 -35.5q10 -35 22.5 -68.5t22.5 -68.5q-16 -2 -32.5 -3t-32.5 -3q-20 -2 -38 -3t-34 -3z" />
<glyph unicode="B" horiz-adv-x="1665" d="M23 350q4 -78 9 -157.5t11 -157.5q2 -12 11 -23.5t24 -13.5q109 -12 217 -17.5t219 -5.5q123 0 243.5 6.5t241.5 10.5q63 2 136 12t144 29.5t137.5 50.5t116.5 77t79.5 108.5t29.5 144.5v10q0 66 -27.5 124t-68.5 105q-53 61 -127 97q72 37 121 101t49 148v23 q0 98 -48 171t-123 122t-167 73.5t-178 24.5h-26q-12 0 -23 -2h2l-129 -6q-168 -8 -333 -13.5t-333 -5.5h-147q-16 0 -27.5 -9t-13.5 -25q-6 -59 -9 -117.5t-7 -118.5q-2 -18 -2 -39l-2 -42q0 -13 9 -23q11 -12 27.5 -14.5t32.5 -2.5h39h6q-3 -62 -3 -123v-30q1 -76 1 -152 t-1 -152v-31q0 -61 3 -124q-8 2 -14 2t-14 2h2q-10 2 -21.5 3t-28.5 1t-29 -11q-10 -9 -10 -23q0 -3 1 -7zM741 856v172l103 4q10 2 17 3t9 1q35 0 68 -16t33 -51v-21q0 -23 -11.5 -38t-30 -25.5t-41 -15.5t-42.5 -5h-4q-16 0 -30.5 -1t-27 -3t-22.5 -2t-21 -2zM743 489v50 h5q23 0 44 1t44 3q10 2 20 3t18 1q43 0 82 -17.5t39 -58.5v-20q0 -25 -13 -43.5t-34.5 -29.5t-47.5 -17.5t-50 -6.5h-6q-20 0 -38 -1t-34 -3q-10 -2 -24 -2v29v35q0 16 -3 34v-2q-2 23 -2 45z" />
<glyph unicode="C" horiz-adv-x="1558" d="M29 688q0 -147 56 -289.5t167 -244.5q100 -94 232 -141.5t268 -47.5q20 0 39.5 1t42.5 3q106 6 212.5 35t204.5 88q109 66 174.5 170.5t104.5 216.5q3 6 3 13q0 8 -4 18q-7 16 -24 20q-35 14 -68.5 26.5t-68.5 27.5q-55 23 -109.5 45t-107.5 39q-18 6 -31.5 -4.5 t-17.5 -28.5q-4 -47 -19.5 -95t-42 -89t-64.5 -67t-89 -26h-10q-53 0 -87 28t-55.5 71t-30 94t-8.5 98q0 10 2 20.5t2 18.5v37q0 51 8.5 106.5t29 101.5t56 76.5t91.5 30.5h14q33 0 61.5 -13t51 -36.5t40 -52.5t25.5 -59q4 -12 15.5 -20.5t21.5 -8.5h51q59 0 115.5 -2 t114.5 -6h-4q16 -2 28 -2t28.5 -2t30 10t13.5 29q-2 123 -6 243.5t-15 241.5q0 12 -11 22.5t-23.5 12.5t-24.5 2q-10 0 -25 2q-59 4 -119.5 8t-119.5 4h-35q-18 0 -29.5 -14.5t-7.5 -30.5v-10q-66 37 -142.5 55.5t-150.5 18.5q-10 0 -17 -1t-17 -1q-145 -10 -277.5 -66.5 t-234.5 -155.5q-100 -98 -153.5 -227t-53.5 -268v-25z" />
<glyph unicode="D" horiz-adv-x="1705" d="M39 352q6 -156 18 -317q2 -12 12.5 -23.5t22.5 -13.5q221 -25 447 -25q72 0 141.5 2t136.5 7q86 6 175 16t175 34.5t164 64.5t142 106q92 96 143 219t51 254v31q0 143 -60.5 274t-164.5 229v-2q-113 109 -259.5 152t-299.5 43q-23 0 -46.5 -1t-45.5 -3 q-135 -8 -271.5 -10.5t-273.5 -2.5h-150q-14 0 -25.5 -9t-13.5 -25q-8 -78 -11 -158t-7 -158q0 -14 9 -26.5t26 -14.5q12 -2 24 -2h29h10q-4 -78 -4 -153v-150v-151q0 -76 4 -152q-4 0 -5 1t-3 1q-10 2 -23.5 3t-27.5 1q-16 0 -27.5 -12t-11.5 -29zM741 379v307v309 q14 2 27 2h27q12 4 20 4h21q43 0 77.5 -22.5t59 -58t37 -80.5t12.5 -88q0 -10 -1 -22.5t-1 -24.5v-9v-34q0 -49 -15.5 -99.5t-43 -90.5t-69.5 -65.5t-93 -25.5h-11q-10 0 -20 -1t-20 -1h-7z" />
<glyph unicode="E" horiz-adv-x="1449" d="M43 350q4 -78 7 -157.5t7 -157.5q2 -12 12.5 -23.5t20.5 -13.5q168 -25 344 -25q98 0 196.5 5.5t196.5 11.5q92 6 184.5 11t184.5 5q39 0 75 -1t75 -3l40 35q10 104 13.5 208.5t7.5 209.5q0 16 -10.5 28.5t-26.5 12.5q-72 4 -146.5 6t-146.5 2h-63q-18 0 -29.5 -13.5 t-7.5 -33.5v-17v-14q0 -20 -2 -29q-57 -2 -115.5 -5t-116.5 -7v141q59 4 117 8.5t117 6.5q16 0 26.5 11t10.5 28v135q0 35 -1 68.5t-1 66.5q0 16 -10.5 27.5t-26.5 11.5q-59 -2 -116.5 -3t-117.5 -5v123q117 10 232 12q2 -6 2 -15q0 -6 2 -12v-14q0 -10 -2 -21 q-4 -18 7 -31.5t30 -13.5q88 -2 175 -4t175 -12q18 -2 30.5 11.5t12.5 29.5q-4 104 -8 210.5t-13 211.5q-4 31 -32 35q-84 12 -167 17t-169 5q-98 0 -194.5 -5t-192.5 -11q-190 -12 -375 -13q-41 0 -78 1t-78 1q-16 0 -27.5 -10t-13.5 -26q-4 -78 -8 -157t-6 -157 q0 -14 9 -25.5t25.5 -13.5t33.5 -2h32q-4 -78 -4 -153v-154v-151q0 -76 4 -152q-18 0 -24 2h2q-10 2 -19 2q-6 0 -14 2q-20 4 -32.5 -8t-12.5 -33z" />
<glyph unicode="F" horiz-adv-x="1370" d="M-16 1036q-2 -16 10 -27.5t29 -11.5h26q14 0 31 -2q10 -2 22 -2h23q-3 -62 -3 -123v-30q1 -74 1 -152t-1 -154v-30q0 -61 3 -123q-25 4 -48.5 6t-47.5 6q-18 4 -30.5 -8t-12.5 -33q4 -80 7 -158.5t11 -158.5q0 -12 9.5 -23.5t23.5 -13.5q92 -12 186 -17.5t193 -5.5 q217 0 430 19q33 4 33 37q2 41 2 82v82q2 41 2 79v82q0 16 -12.5 28.5t-29 10.5t-30.5 -3t-29 -1q-12 -2 -26 -2h-29v137l59 4q35 4 70 5.5t70 3.5q16 0 26.5 11t10.5 28v270q0 16 -12.5 26.5t-28.5 10.5q-49 -2 -98.5 -3t-98.5 -5v129q59 4 116.5 6t114.5 4v-10v-72 q0 -16 11.5 -27.5t27.5 -11.5q88 -2 174 -4t177 -10q16 -2 29.5 10t13.5 29q-4 111 -8.5 219t-14.5 219q0 14 -10 23.5t-23 11.5q-86 12 -173 17t-175 5q-102 0 -202.5 -5t-202.5 -11q-195 -12 -387 -13q-39 0 -77 1.5t-77 1.5t-39 -37q-8 -78 -12 -158t-4 -158z" />
<glyph unicode="G" horiz-adv-x="1642" d="M35 688q0 -150 59.5 -291t173.5 -243q111 -98 248 -143.5t283 -45.5q18 0 39.5 1t42.5 3h-2q139 4 271 50.5t243 138.5q104 86 159.5 212t55.5 261v112q0 14 -10.5 25.5t-26.5 13.5q-96 4 -189.5 7.5t-189.5 3.5h-119q-59 0 -119 -5q-16 0 -26 -11t-10 -25q0 -33 1 -65 t1 -64v-129q0 -39 38 -39q20 0 38 1t36 3h23q-10 -43 -47 -72t-82 -29h-15q-8 -2 -24 -2q-45 0 -83 20.5t-56 59.5q-23 53 -34.5 113.5t-11.5 122.5v16q0 6 1.5 13.5t1.5 13.5q4 51 8 101t20 97q23 55 71 91t107 36h19q72 0 132 -42t93 -105q4 -8 14.5 -15.5t20.5 -7.5 q82 0 162 -2t161 -6q16 -2 28.5 9.5t12.5 27.5q-2 117 -6 231.5t-14 231.5q-2 12 -11.5 22.5t-23.5 12.5q-78 8 -160 11t-161 3q-16 0 -28.5 -12.5t-10.5 -28.5q0 -4 1 -8t1 -8q-72 41 -150 59.5t-155 18.5q-10 0 -20.5 -1t-20.5 -1q-150 -10 -291.5 -64.5t-249.5 -155.5 q-104 -96 -161.5 -224t-57.5 -271v-27z" />
<glyph unicode="H" horiz-adv-x="1708" d="M29 352q4 -80 9 -158.5t11 -158.5q2 -12 11.5 -23.5t23.5 -13.5q117 -12 234.5 -17.5t236.5 -5.5q117 0 233 7q16 0 26.5 10t10.5 26q-2 61 -2 121v123v80q0 39 -39 39q-10 0 -20 -1t-23 -1h-4v14v29q0 14 -2 29q-2 16 -2 32v33q31 2 61.5 4t61.5 4q29 2 59.5 4t61.5 4 v-12v-24t-2 -27v-78q-12 0 -22.5 -1t-20.5 -1h-4q-18 0 -29.5 -11t-9.5 -30q2 -20 2 -39v-39v-39q0 -18 -2 -38q-2 -41 -2 -84v-82q0 -16 11 -28.5t30 -10.5q137 10 273 12t274 2h145q14 0 25.5 10.5t13.5 24.5q10 78 13 157.5t7 157.5q0 16 -9 27.5t-25.5 13.5t-32.5 2h-33 h-2q2 76 3 153t1 154q0 74 -1 149t-3 150q4 0 8 -1t8 -1q10 -2 21.5 -3t25.5 -1q18 -1 30 13q10 12 9 26l-3 36q-1 15 -1 32q-4 63 -6 127.5t-10 126.5q-2 14 -12.5 23.5t-22.5 11.5q-117 10 -232.5 16t-232.5 6q-121 0 -239 -6q-37 -4 -37 -39q2 -82 3 -162t1 -162 q0 -16 11 -27t28 -11h47v-31q0 -14 2 -29v-49v-14h-64q-31 0 -61 -4q-29 -2 -59.5 -4.5t-59.5 -4.5v29q0 14 2 31v-2q2 14 2 26v29v12h4h27q12 0 22 2q14 2 23.5 14.5t9.5 24.5v324q0 18 -11 29.5t-30 9.5q-127 -8 -250.5 -10.5t-250.5 -2.5h-191q-35 0 -39 -34 q-8 -78 -12 -158t-8 -158q0 -14 10 -26.5t27 -14.5q12 -2 24 -2h29h10q-4 -78 -4 -153v-150v-151q0 -76 4 -152q-4 0 -5 1t-3 1q-10 2 -23.5 3t-29.5 1t-27.5 -12t-11.5 -29z" />
<glyph unicode="I" horiz-adv-x="851" d="M16 354q2 -80 4.5 -159.5t6.5 -159.5q0 -27 26 -35q53 -14 103.5 -19.5t101.5 -5.5q59 0 115.5 4.5t114 10.5t112.5 11t109 5q20 0 38.5 -1t40.5 -3q16 -2 26.5 9.5t12.5 27.5q2 20 2 39q0 18 2 41q2 59 3.5 117.5t1.5 117.5q0 35 -33 39l-90 6q2 78 3 153t1 153 t-1 152.5t-3 150.5q20 -2 39.5 -4.5t40.5 -6.5q18 -4 30.5 8.5t12.5 30.5q-2 80 -3.5 160t-5.5 160q0 12 -9 22.5t-19 12.5q-53 14 -102.5 19t-100.5 5q-59 0 -115.5 -5t-115.5 -11q-109 -12 -213 -13q-23 0 -43.5 1.5t-42.5 1.5q-16 2 -27.5 -9.5t-11.5 -27.5 q-4 -78 -6.5 -158t-4.5 -158q0 -16 10.5 -27.5t26.5 -11.5q10 0 20.5 -1t20.5 -1q10 -2 21 -2q10 0 20 -2v-307v-305q-41 4 -72 12q-18 4 -32.5 -6t-14.5 -31z" />
<glyph unicode="J" horiz-adv-x="835" d="M2 -47q4 -84 5 -163t3 -163q0 -10 7.5 -20t15.5 -15q47 -23 99 -36t104 -13h28q90 0 173 41t147.5 109.5t103.5 158t39 183.5v24t-2 23q2 94 2 186v187q0 141 -1 281.5t-3 281.5q4 0 8 -1t8 -1q10 -4 23.5 -5t30 -3t29 9t12.5 30q0 49 -1.5 98t-3.5 98q-2 33 -3 63.5 t-1 63.5q0 29 -28 37q-53 16 -105.5 22.5t-105.5 6.5q-59 0 -114.5 -4.5t-113.5 -12.5l-110 -12t-109 -6h-30t-31 2t-29 -9.5t-12 -29.5v-80t-2 -78q-2 -41 -3 -82t-1 -82q0 -14 10 -24t22 -14q16 -4 33 -5h39h12q-2 -184 -2 -364v-363v-198q2 -8 2 -21q0 -27 -8 -53.5 t-26 -26.5h-4q-20 4 -28.5 8.5t-15 5.5t-14.5 5q-20 10 -34.5 -3.5t-14.5 -35.5z" />
<glyph unicode="K" horiz-adv-x="1667" d="M2 352q4 -80 9 -158.5t12 -158.5q2 -12 11 -23.5t23 -13.5q121 -12 241 -17.5t243 -5.5t243 7q14 0 25.5 10t11.5 26v324q0 16 -11 27.5t-28 11.5h-30t-31 -2h-14v252q53 -59 102 -120.5t100 -123.5q-25 -10 -24 -35q0 -41 -1 -80t-1 -79v-82q0 -39 -2 -80 q0 -16 12 -29.5t29 -11.5q129 8 256 11t256 3h84q43 0 86 -2q14 0 26 10.5t15 24.5q10 78 13 157.5t7 157.5l-33 41q-10 2 -20 2h-21h-14q-78 100 -156 201.5t-155 202.5q45 41 89 77.5t89 77.5q14 10 26.5 23.5t26.5 26.5q10 -2 21.5 -1t21.5 1t23.5 -1.5t25.5 -3.5 q20 -2 32.5 11.5t10.5 31.5q-2 16 -2 31q0 14 -2 31q-4 63 -7 127.5t-9 128.5q-2 14 -13.5 23.5t-23.5 11.5q-111 8 -219.5 13t-218.5 5q-111 0 -222 -6q-16 -2 -26 -12.5t-10 -26.5q2 -82 3 -162t1 -162q0 -16 12 -28t29 -10h2l-123 -123q-23 -23 -47.5 -46.5t-48.5 -45.5 v202q14 0 22 2q14 2 27 2h24q16 0 27.5 11.5t11.5 27.5v324q0 16 -12 27.5t-29 11.5q-143 -6 -282.5 -9.5t-280.5 -3.5h-154q-35 0 -38 -34q-8 -78 -12.5 -158t-8.5 -158q0 -14 10.5 -26.5t26.5 -14.5q12 -2 24 -2h29h10q-4 -78 -4 -153v-150v-151q0 -76 4 -152q-2 0 -3 1 t-3 1q-12 2 -25.5 3t-29.5 1t-27.5 -12t-11.5 -29z" />
<glyph unicode="L" horiz-adv-x="1349" d="M-10 350q4 -78 7 -157.5t11 -157.5q0 -12 10.5 -23.5t22.5 -13.5q172 -25 346 -25q98 0 195.5 5.5t195.5 11.5q94 6 185.5 11t185.5 5q37 0 72.5 -1t74.5 -3q16 0 27.5 9t11.5 26q12 131 17.5 264t5.5 264q2 16 -8.5 26.5t-26.5 12.5q-59 4 -118.5 5t-119.5 1 q-23 0 -47 1t-47 1q-16 0 -28.5 -12t-8.5 -31v-49v-49q-4 -16 -4 -37v-37q-123 -4 -241 -12v621h16t16 2q16 2 30.5 3t29.5 1q16 0 27.5 11t11.5 28q0 80 -2 160.5t-2 160.5q-2 16 -14 28q-10 11 -24 11h-5q-154 -10 -307.5 -18.5t-307.5 -8.5h-65q-31 0 -66 2 q-16 0 -27.5 -10t-11.5 -26q-8 -78 -12 -157t-4 -157q-2 -14 8 -25.5t27 -13.5q18 -2 39 -2h36h9q-4 -86 -5.5 -168t-1.5 -163q0 -72 1 -140.5t6 -140.5q-20 2 -39 3t-37.5 5t-31.5 -8t-13 -33z" />
<glyph unicode="M" horiz-adv-x="2177" d="M18 352q6 -80 11.5 -160.5t15.5 -158.5q0 -12 10.5 -22.5t26.5 -12.5q129 -10 257 -16.5t261 -6.5q39 0 39 41q-8 80 -9 160t-1 160q0 16 -13.5 27.5t-29.5 11.5h-68q-4 78 -4 153v156v188q53 -139 107.5 -275t111.5 -275q33 -80 63.5 -160t63.5 -160q4 -10 15.5 -17.5 t21.5 -7.5q27 0 52.5 1.5t54.5 3.5h47q25 0 53 2q8 0 19.5 8t15.5 18q41 117 87 233.5t91 233.5q41 106 81 211t79 211v-264v-238q-20 -2 -37 -1t-33 1t-26.5 -11t-10.5 -28q-2 -80 -5 -159.5t-7 -159.5q0 -16 12 -28.5t29 -12.5q129 2 254 3t254 1h184q14 0 24.5 10.5 t14.5 22.5q8 59 13 119.5t9 119.5q2 23 2 39q0 18 5 37q0 16 -10.5 28.5t-27 14.5t-32.5 2h-31h-4q4 76 5 151t1 152q0 76 -1 151t-5 150q14 -2 28.5 -3t31.5 -1h6q16 0 27.5 12.5t11.5 28.5q-6 80 -13.5 162t-17.5 160q-4 29 -37 33q-154 10 -311.5 16t-313.5 6h-90t-90 -2 l-33 -27q-31 -90 -65.5 -175t-69.5 -173q-8 -20 -15 -38.5t-16 -39.5q0 6 -8 19q-37 98 -75.5 196.5t-77.5 196.5q-4 10 -16.5 17.5t-22.5 7.5q-141 -4 -277.5 -7.5t-277.5 -3.5q-61 0 -124 1t-124 1q-33 0 -41 -32q-8 -66 -13 -134.5t-10 -138.5v-47q0 -16 11.5 -27.5 t27.5 -11.5h25q12 0 25 -2q4 -2 14 -2q-4 -76 -5 -150.5t-1 -150.5t1 -151.5t5 -151.5q-6 0 -12 2q-12 2 -24.5 3t-29.5 1q-39 0 -39 -41z" />
<glyph unicode="N" horiz-adv-x="1667" d="M6 350q4 -78 8 -157.5t9 -157.5q2 -12 12 -23.5t24 -13.5q223 -25 457 -25q23 0 44.5 1t43.5 1q39 0 39 39v109q-2 53 -3 106.5t-1 106.5q0 16 -11.5 27.5t-27.5 11.5h-76h-10q-2 78 -2 155v160q37 -49 73 -98l72 -98q92 -123 182.5 -247t176.5 -253q4 -6 16 -11.5 t21 -5.5q109 4 216 5.5t216 1.5q16 0 26.5 10t12.5 24q14 160 19 320t5 319q0 86 -1 172t-3 175q4 0 7 -1.5t8 -1.5q16 -2 30.5 -3t32.5 -1q16 -1 28 13q11 12 11 26l-2 35q0 16 -2 33q-4 63 -7 127.5t-12 126.5q-4 31 -34 35q-106 10 -212 16t-216 6h-56t-55 -2 q-16 -2 -26.5 -13t-10.5 -28q4 -80 5 -159.5t3 -159.5q0 -16 11.5 -27.5t27.5 -11.5t28.5 1t29.5 1h16q2 -57 2 -113q0 -55 2 -112q-41 55 -81 110.5t-81 110.5q-70 92 -136.5 182t-131.5 186q-4 6 -15.5 11.5t-19.5 5.5q-98 -6 -196.5 -7t-198.5 -1h-227q-14 0 -26.5 -9.5 t-14.5 -25.5q-12 -156 -19 -316q0 -14 10.5 -26.5t24.5 -14.5q16 -2 33 -2h32h17q-4 -84 -4 -168v-163v-140q0 -68 4 -139l-14 2q-14 2 -31 2q-14 0 -29 2q-18 2 -30.5 -9t-12.5 -32z" />
<glyph unicode="O" horiz-adv-x="1685" d="M33 684q0 -147 63.5 -281.5t173.5 -236.5q104 -98 238.5 -150.5t279.5 -52.5h31q14 0 29 2h-4q156 10 302 65.5t263 155.5v-2q115 92 179.5 227.5t64.5 282.5v19q0 150 -66.5 285t-179.5 235h4q-104 94 -237.5 147.5t-274.5 53.5h-33q-14 0 -30 -2h4 q-156 -10 -303.5 -64.5t-268.5 -157.5q-109 -92 -172 -223t-63 -272v-31zM705 653v68q0 47 3 99t17 98.5t43 79t78 42.5q47 -4 73.5 -32.5t40 -71.5t16.5 -92t5 -92v-45v-37q0 -47 -3 -99.5t-17.5 -97.5t-42 -79t-78.5 -42q-47 4 -75 35t-41 76t-16 95t-3 95z" />
<glyph unicode="P" horiz-adv-x="1603" d="M8 352q4 -80 9.5 -158.5t11.5 -158.5q2 -12 11 -23.5t23 -13.5q109 -12 219.5 -17.5t221.5 -5.5q86 0 169 3.5t169 7.5q16 2 26.5 13t10.5 26v323q0 39 -39 39q-20 0 -37 -1t-35 -3q-10 -2 -27 -2v106h43q57 4 112.5 8.5t115.5 4.5h22q90 0 189.5 24.5t182.5 74.5 t136 128t53 186v21q0 113 -52 203t-136 151.5t-187.5 94t-203.5 32.5h-31q-14 0 -29 -2q-184 -10 -364 -17t-367 -7h-80q-37 0 -75 2q-16 0 -27.5 -10.5t-13.5 -26.5q-6 -57 -9.5 -116.5t-7.5 -119.5q-2 -20 -2 -41q0 -18 -2 -39v-5q0 -13 8 -23q10 -12 27 -13q20 -2 41 -2 h41h10q-3 -62 -3 -123v-30q1 -76 1 -154q0 -76 -1 -150v-30q0 -60 3 -123q-8 2 -18 2l-66 6q-17 2 -31 -9q-12 -10 -12 -27v-5zM739 858v170h17q8 0 18 2q16 2 34.5 3t39.5 1q20 4 24 4q35 0 67 -19.5t32 -53.5v-21q0 -20 -12.5 -35.5t-32 -25t-42 -14.5t-42.5 -5t-38 -1 t-36 -3q-10 -2 -29 -2z" />
<glyph unicode="Q" horiz-adv-x="1685" d="M35 694q0 -150 58.5 -288t168.5 -240q88 -86 205 -137l-12 -3t-11 -3q-82 -25 -153 -84q-10 -10 -12.5 -25.5t8.5 -28.5q16 -20 31.5 -38.5t31.5 -41.5q23 -29 44.5 -56.5t43.5 -53.5q25 -29 54 -6q29 25 68.5 33t76.5 12q162 -4 301 -64q72 -31 143.5 -53.5t151.5 -26.5 q10 0 21.5 1t27.5 6q4 2 14.5 9t14.5 13q12 35 24.5 68.5t26.5 68.5q16 45 34.5 90t35.5 88l-46 54q-16 -4 -26 -4h-21h-26q-12 0 -23 -2h-8q-51 0 -104.5 9t-106.5 19q190 53 348 185q106 90 169 219t63 270v37q0 152 -65.5 289t-176.5 239v-2q-98 100 -229 156.5 t-273 56.5q-20 0 -37.5 -1t-33.5 -3h4q-158 -10 -306.5 -65.5t-265.5 -165.5h4q-111 -96 -174 -229.5t-63 -280.5v-21zM707 678v22q0 10 1 20.5t1 22.5q0 45 3 96.5t16 96.5t41 76.5t77 42.5q47 -4 74.5 -35t41 -75t16.5 -95t3 -94l-2 -33q0 -53 -2 -104.5t-12 -104.5 q-4 -25 -13.5 -51.5t-25 -48t-36 -35.5t-46.5 -14q-4 0 -7 -1.5t-8 -1.5q-35 0 -62.5 24t-35.5 58q-12 59 -18 119t-6 115z" />
<glyph unicode="R" horiz-adv-x="1667" d="M0 352q4 -80 9 -158.5t11 -158.5q2 -12 12.5 -23.5t22.5 -13.5q117 -12 236 -18.5t237 -6.5q63 0 127 2t127 7q16 0 26.5 10t10.5 26v324q0 16 -11 27.5t-28 11.5h-30q-12 0 -27 -2h-12v147h24q13 0 25 2q16 0 31.5 1t31.5 3q72 -129 139.5 -254.5t133.5 -259.5 q4 -8 15 -14t22 -6q55 4 106 4h107h262q14 0 25.5 10.5t13.5 24.5q10 78 14 157.5t6 157.5q0 16 -9 27.5t-26 13.5q-10 2 -24 2h-27h-29q-16 29 -33.5 58.5t-35.5 60.5q-18 33 -39 66.5t-41 68.5q78 45 128 125t50 174v13q0 109 -50 192.5t-130 142t-178.5 89t-194.5 30.5 q-18 0 -32.5 -1t-30.5 -3h2q-186 -10 -372.5 -16t-373.5 -6h-160q-16 0 -27 -9.5t-14 -25.5q-8 -78 -12 -158t-8 -158q0 -14 10 -26.5t27 -14.5q12 -2 26 -2h31h12q-4 -78 -4 -153v-152v-151q0 -76 4 -152q-4 0 -5 1t-3 1q-14 2 -27.5 3t-31.5 1q-16 0 -27.5 -12t-11.5 -29z M711 848v178q29 2 57 2q31 0 59 4q6 2 21 2q37 0 70.5 -20.5t33.5 -55.5v-10q0 -23 -11 -40t-29.5 -29.5t-40 -18.5t-42.5 -6h-6q-55 -6 -112 -6z" />
<glyph unicode="S" horiz-adv-x="1193" d="M25 969q0 -90 36.5 -166t96 -136.5t134.5 -104.5t152 -68h-4q14 -4 27.5 -8.5t38.5 -12.5h-4q49 -14 92 -35.5t53 -70.5q-4 -23 -25.5 -37.5t-43.5 -14.5q-8 -2 -25 -2q-53 0 -91 43t-54 97q-2 10 -14.5 19t-22.5 9q-72 2 -144.5 5t-150.5 12q-16 2 -28.5 -9.5 t-12.5 -29.5q0 -106 5 -212t9 -212q0 -12 8.5 -23.5t22.5 -13.5q72 -14 146.5 -18.5t152.5 -6.5q14 0 25.5 11.5t11.5 27.5v15q53 -29 111.5 -42.5t117.5 -13.5q14 0 24.5 1t24.5 1q86 6 170 43t154 97q66 59 108.5 142t42.5 175v10q0 92 -38.5 170t-100 140.5t-138.5 108.5 t-155 75q-20 8 -41.5 16t-44.5 17q-45 16 -84 32l4 -2q-20 4 -33.5 20.5t-13.5 33.5v2v2v-2q0 23 20.5 37t43.5 14q4 0 10 1t10 1q47 0 84 -38t49 -85q6 -33 41 -29q16 2 33 2h35q57 0 112.5 -4t110.5 -8q18 -2 30.5 10.5t12.5 28.5q0 63 -3 127t-7 127q-2 33 -2 63v64 q-2 12 -11.5 23.5t-25.5 13.5q-55 4 -114.5 9t-121.5 5h-32t-33 -2q-14 -2 -24.5 -12t-10.5 -27v-4q-98 55 -211 55h-26q-12 0 -23 -2h6q-88 -6 -169 -41.5t-146 -95.5q-61 -57 -99 -138t-38 -167v-12z" />
<glyph unicode="T" horiz-adv-x="1452" d="M12 797q0 -35 39 -39q59 -4 124 -7t128 -6q16 0 26.5 10.5t10.5 26.5q4 31 4 62v63v84h80v-309v-309h-82q-16 0 -27.5 -11.5t-11.5 -27.5q2 -80 4 -161t6 -161q0 -16 10.5 -25.5t26.5 -11.5q20 -2 45 -2h47q84 0 169 5.5t171 9.5q78 4 157 9t157 5q16 0 26.5 10.5 t10.5 26.5q6 80 8 161t2 160q2 16 -10.5 27.5t-28.5 11.5q-18 0 -39 -1t-39 -1q4 41 4 80v82q0 115 -3 227.5t-3 229.5h8h72v-84v-121q0 -16 12 -26.5t29 -10.5q63 -2 124.5 -4t127.5 -8q16 -2 29.5 9t13.5 30q-2 139 -7.5 277.5t-19.5 277.5q0 14 -10 23.5t-25 11.5 q-88 10 -174 15t-176 5q-104 0 -206.5 -4t-207.5 -10q-98 -4 -193 -8.5t-194 -4.5q-41 0 -77.5 1t-75.5 1t-39 -36q-12 -137 -17.5 -275.5t-5.5 -277.5z" />
<glyph unicode="U" horiz-adv-x="1411" d="M2 1034q-2 -14 8 -25.5t27 -11.5q12 -2 24 -2h29h10q-3 -54 -3 -108v-27q1 -67 1 -135v-195q0 -111 33 -217t107 -188q76 -86 185 -125t222 -39q16 0 31.5 1t32.5 3h16q104 0 208.5 37t187.5 104.5t135.5 160.5t52.5 206v23q0 12 -4 22q4 59 4 117v117v125q0 63 -4 124 q8 -2 20 -2h-4q12 -2 25 -2h26q16 0 27.5 10.5t11.5 26.5q-2 82 -7 162t-13 160q0 12 -9.5 23.5t-25.5 13.5q-100 10 -202.5 15t-207.5 5q-23 0 -43 -1t-43 -1q-16 0 -26.5 -12.5t-10.5 -28.5q0 -41 1 -80t1 -80q4 -41 4 -82v-79q0 -16 13.5 -28.5t29.5 -10.5q6 0 12.5 1 t12.5 1v-457v-6v-31q0 -27 -4 -54.5t-15.5 -51t-29 -38t-43.5 -14.5h-17q-27 0 -44 15.5t-26 40t-13.5 54.5t-4.5 56v260v215q10 2 17 3h12q16 0 26.5 11t10.5 25q4 23 4 43v41q0 20 -1 41t-1 43q-4 41 -4 78v80q0 18 -11.5 29.5t-31.5 9.5q-238 -18 -481 -19h-93 q-43 0 -92 3q-14 0 -26.5 -10.5t-12.5 -26.5q-6 -78 -10 -158t-4 -160z" />
<glyph unicode="V" horiz-adv-x="1458" d="M-41 1036q0 -14 10.5 -25.5t24.5 -13.5h63h11q66 -178 138.5 -348t149.5 -342q35 -80 70 -159.5t70 -159.5q4 -8 14 -15.5t20 -7.5q72 2 142.5 7t142.5 10q35 2 67.5 3t65.5 3q10 0 20.5 7t12.5 17l19.5 39t17.5 39q94 229 185 456.5l183 457.5q8 0 15.5 -1.5t15.5 -1.5 h-2q10 -2 19.5 -3t25.5 -1t27.5 12.5t11.5 28.5q-4 80 -9 160t-9 160q-2 12 -12.5 23.5t-24.5 13.5q-106 8 -213 14t-217 6h-56q-27 0 -53 -2q-39 -4 -39 -41q2 -41 2 -80t2 -80t2 -82v-79l41 -39q14 0 26.5 1t27.5 1q-18 -47 -33.5 -93.5t-32.5 -93.5q-23 -61 -43 -121.5 t-43 -119.5l-149 411q16 2 31.5 3t29.5 4q16 2 25.5 13t9.5 25v324q0 18 -11.5 29.5t-29.5 9.5q-127 -8 -252 -12t-254 -4h-98t-99 2q-16 0 -27 -10.5t-14 -24.5q-8 -66 -10 -132.5t-6 -131.5q0 -14 -1 -27.5t-1 -28.5z" />
<glyph unicode="W" horiz-adv-x="2183" d="M-49 1040q0 -12 9 -24t24 -17h32h37q82 -256 183.5 -507.5t209.5 -503.5q2 -8 12.5 -15.5t20.5 -7.5q35 -2 68 -2h69q35 0 68 1t68 1q39 2 77 2h82q12 0 23.5 8.5t15.5 18.5q12 41 26.5 81t29.5 81q23 66 45 132t45 132q37 -102 73.5 -203.5t71.5 -206.5q10 -29 39 -28 q102 4 203.5 6t206.5 4q8 0 19 7t15 17q111 248 213.5 493t190.5 497q4 0 8 -1t8 -1q10 -2 21 -3q12 0 24 -2q18 -2 31.5 10.5t11.5 30.5q-4 80 -11 162t-17 162q-2 12 -13.5 21.5t-25.5 11.5q-135 8 -270.5 13t-272.5 5q-18 0 -29.5 -11t-9.5 -30q4 -80 7 -160.5t7 -160.5 q0 -16 12.5 -26.5t28.5 -10.5h50q-29 -104 -56.5 -206t-56.5 -206q-29 80 -57.5 161t-59.5 159l-37 92h47q16 0 27.5 11t11.5 28q-2 80 -5 161.5t-7 161.5q-2 16 -13.5 26.5t-25.5 10.5h-65q-76 0 -152 -2t-154 -6q-53 -4 -108 -5t-111 -3q-16 0 -26.5 -10.5t-10.5 -26.5 q0 -23 -1 -42.5t-1 -39.5v2q-2 -45 -2 -88v-86v-72q0 -16 11.5 -26.5t27.5 -10.5h51q-10 -29 -21 -58.5t-22 -57.5q-29 -76 -56.5 -152t-53.5 -153q-29 104 -57.5 207.5t-57.5 209.5q10 0 17 2h26q20 -4 34.5 5.5t14.5 31.5q0 80 2 160t7 160q0 16 -11.5 28.5t-29.5 12.5 q-74 -4 -148 -4h-147q-74 0 -148 1t-149 1h-99q-16 0 -26 -10.5t-13 -24.5q-10 -78 -16 -159t-10 -159z" />
<glyph unicode="X" horiz-adv-x="1966" d="M-12 352q2 -53 6 -106t8 -107q4 -27 6 -51.5t4 -52.5q4 -33 35 -37q289 -25 584 -25q47 0 98 1t100 3q33 0 37 35q2 18 2 37v39v37q0 18 -2 37v-2q-2 35 -2 69v70q0 16 -11 27.5t-28 11.5h-53q6 4 19 16q61 55 120 115q23 -18 45.5 -36.5t44.5 -35.5q16 -14 31 -25.5 t31 -23.5q-12 -2 -25 -2h-22q-16 -2 -26.5 -13t-8.5 -28v-67v-68q-2 -35 -2 -72v-73q0 -16 11 -28.5t30 -10.5q340 18 682 18q53 0 106.5 -1t106.5 -1q14 0 25.5 10.5t13.5 24.5q10 78 16 157.5t8 157.5q0 37 -36 41q-20 2 -44 2h-40h-21q-10 0 -20 2q-109 92 -218.5 180.5 t-222.5 176.5q61 51 123 100t127 98l70 54h76q55 0 110 -7q20 -2 32.5 10.5t12.5 30.5q-6 160 -24 320q-2 14 -13.5 23.5t-23.5 11.5q-133 10 -264.5 13t-264.5 3h-108t-109 -2q-16 0 -27.5 -12.5t-11.5 -28.5q2 -41 2 -84v-84q0 -29 1 -56.5t1 -56.5l45 -38q4 0 9.5 1 t11.5 1q-27 -29 -53.5 -56.5t-55.5 -56.5q-18 16 -38.5 31.5t-40.5 31.5q-14 10 -25.5 18.5t-24.5 18.5q10 0 16.5 1t16.5 1q16 0 27.5 11.5t11.5 27.5v283q0 18 -11 29.5t-30 9.5q-168 -8 -335 -11.5t-335 -3.5h-215q-35 0 -39 -34q-18 -156 -24 -316q0 -16 11 -27.5 t28 -13.5q20 -2 43 -2h45q10 0 21.5 -1t21.5 -1q14 -10 27.5 -21.5t27.5 -21.5q86 -72 170 -140.5t170 -133.5q-66 -53 -132.5 -101.5t-135.5 -97.5q-31 -23 -61.5 -46t-61.5 -46q-16 2 -31 2q-14 0 -30 2l-76 6q-18 2 -31.5 -10t-13.5 -31z" />
<glyph unicode="Y" horiz-adv-x="1413" d="M-23 1036q0 -14 10.5 -25.5t27 -13.5t32.5 -3t35 -1q68 -104 139.5 -205.5t145.5 -203.5v2q8 -12 16 -23.5t18 -23.5v-52q0 -25 2 -47q2 -14 3 -26v-25v-14h-72q-16 0 -27.5 -11.5t-11.5 -27.5q2 -80 4 -162t6 -162q0 -16 10.5 -25.5t26.5 -11.5q23 -2 43 -2h45 q84 0 166 5.5t166 9.5q78 4 153.5 9t153.5 5q14 0 25.5 10.5t13.5 24.5q4 53 4 108q0 57 2 111q0 29 1 53.5t3 50.5q2 16 -9 28.5t-30 12.5h-37q-16 0 -34 -2v31q0 16 2 33v-2q2 14 2 26v31v21q0 12 -2 22q51 72 101 143.5t103 143.5q29 37 56.5 76t54.5 77q10 -2 35 -2h12 q8 0 19 -2q18 -4 31.5 9.5t13.5 31.5q-4 80 -8.5 160t-12.5 160q-4 31 -35 35q-102 10 -203.5 16t-205.5 6h-51q-27 0 -52 -2q-16 -2 -26.5 -13t-10.5 -28q2 -53 3.5 -106.5t1.5 -106.5q0 -27 1 -53.5t1 -54.5l43 -39h6q-12 -18 -24.5 -38t-24.5 -38l-56 -86 q-20 39 -38.5 77t-38.5 74q4 2 8 3q6 0 12 2q14 2 23.5 13t11.5 23q2 20 2 41v43v39q0 20 -2 43q-2 41 -2 80v78q0 16 -11.5 28.5t-29.5 10.5q-137 -10 -272.5 -13t-272.5 -3h-139q-14 0 -25.5 -9.5t-13.5 -25.5q-8 -66 -10 -131.5t-7 -130.5v-56z" />
<glyph unicode="Z" horiz-adv-x="1411" d="M0 340q2 -57 6 -114.5t8 -116.5q0 -18 -1 -38t3 -38q0 -12 10.5 -22.5t22.5 -12.5q86 -12 175 -17.5t179 -5.5q104 0 205 4.5t203 10.5q98 6 196.5 11t200.5 5q35 0 69 -1t73 -3q14 0 25 10.5t11 26.5q10 117 16 233.5t7 233.5q2 14 -9 25.5t-28 13.5q-66 4 -135.5 7 t-134.5 3h-41q-18 0 -29.5 -13.5t-7.5 -29.5q2 -12 2 -23v-18t-1 -20.5t-1 -22.5q-4 -14 -4 -29v-28q-66 -2 -132.5 -5.5t-133.5 -7.5h2q156 180 312.5 354.5t320.5 346.5q4 2 8 13t4 15q-4 66 -7 134.5t-10 134.5q0 14 -10 23.5t-24 11.5q-88 12 -179.5 17t-183.5 5 q-98 0 -194.5 -4t-194.5 -10q-195 -12 -391 -13h-133q-39 0 -39 -36q-10 -111 -15.5 -223.5t-5.5 -225.5q-2 -14 8.5 -25.5t26.5 -13.5q57 -6 116.5 -8t119.5 -2h75q16 0 27.5 11t11.5 28v82v-4v49v2q55 2 108.5 3t106.5 3q-293 -336 -602 -657q-2 -4 -7 -14.5t-5 -14.5z " />
<glyph unicode="[" horiz-adv-x="927" d="M63 506q0 -225 4.5 -448.5t10.5 -448.5q0 -10 7 -20.5t17 -14.5q49 -20 101.5 -26.5t103.5 -6.5q57 0 110.5 5t107 13.5t108.5 15.5t104 7q33 0 76 -6q16 -4 28.5 8.5t12.5 28.5q4 92 6 184t2 185q2 16 -8 27t-27 14q-37 2 -77.5 4t-79.5 2h-37q-16 0 -33 -2v491v498h29 q49 0 97 -5t93 -18q18 -4 31.5 6.5t13.5 32.5q-2 92 -4 185.5t-6 187.5q0 27 -27 35q-49 16 -98 22t-98 6q-59 0 -113.5 -6t-108 -12t-106.5 -11t-102 -5h-43q-18 0 -41 4q-16 4 -27.5 -8.5t-11.5 -28.5q-6 -225 -10.5 -448.5t-4.5 -446.5z" />
<glyph unicode="\" horiz-adv-x="503" d="M-35 1343q39 -262 90 -520t105 -520q16 -72 30.5 -143.5t28.5 -143.5l43 -32q86 18 170 18h33q16 0 34.5 -2t31 11.5t8.5 33.5q-43 279 -97.5 552t-109.5 550q-12 57 -24.5 111.5t-22.5 111.5q-4 16 -16.5 25.5t-26.5 5.5q-84 -14 -168 -15h-35q-16 0 -34.5 2.5t-31 -12 t-8.5 -33.5z" />
<glyph unicode="]" horiz-adv-x="929" d="M63 -18q0 -92 2.5 -185.5t6.5 -187.5q0 -10 7 -20.5t17 -14.5q49 -20 101.5 -26.5t105.5 -6.5q57 0 110.5 5t106.5 13.5t108.5 15.5t104.5 7q35 0 76 -6q16 -4 29.5 8.5t13.5 28.5q8 225 11 448.5t3 446.5q0 225 -3 448.5t-11 448.5q0 27 -27 35q-47 16 -96 22t-98 6 q-59 0 -112.5 -6t-110.5 -12q-53 -6 -106.5 -11t-102.5 -5h-43t-43 4q-16 2 -28.5 -9.5t-12.5 -27.5q-4 -92 -6.5 -184.5t-2.5 -184.5q0 -16 10.5 -27.5t24.5 -13.5q35 -4 73 -6t75 -2h41q20 0 39 2q-2 -125 -1 -246.5t1 -244.5q0 -127 -1 -250t1 -248h-23q-51 0 -99 7 t-95 17q-18 4 -32 -7t-14 -31z" />
<glyph unicode="^" horiz-adv-x="1257" d="M82 602q-8 -18 1 -32.5t30 -16.5q82 -8 164.5 -11t166.5 -3l37 24q31 86 64 168t67 168v-2q4 10 8.5 19.5t8.5 19.5q39 -90 74.5 -178t66.5 -183q4 -10 16.5 -18t24.5 -6q35 4 68 4h69q35 0 70 -1t72 -1h45q23 0 35 14.5t1 34.5q-74 182 -159.5 348t-180.5 330l-45 78 q-10 18 -32 18q-37 0 -75 -1t-75 -3q-29 0 -55.5 -2t-54.5 -2q-8 0 -18.5 -7t-14.5 -13q-33 -59 -64.5 -121t-66.5 -121q-68 -125 -131.5 -250t-116.5 -254z" />
<glyph unicode="_" horiz-adv-x="950" d="M-55 -92q0 -25 22 -43q4 -4 13.5 -7t17.5 -3q68 -2 135 -2h137h273q72 2 143 2h143h121q4 0 14.5 2t14.5 6q27 18 27 43q0 27 -29 45q-4 4 -13.5 6t-13.5 2q-70 4 -137 4h-137h-135q-66 0 -137.5 -2t-143.5 -2h-143h-119q-8 0 -17.5 -2t-13.5 -6q-23 -16 -22 -43z" />
<glyph unicode="`" horiz-adv-x="606" d="M-20 1249.5q-9 -20.5 10 -37.5q61 -55 123.5 -105t128.5 -99q29 -23 63.5 -49.5t63.5 -49.5h61q35 0 64 2h49h49l37 45q-29 68 -69 132.5t-81 132.5q-4 10 -11 18t-11 18q-12 16 -31 17h-70t-69 -2h2q-53 -2 -111 -2h-108h-54q-27 0 -36 -20.5z" />
<glyph unicode="a" horiz-adv-x="1454" d="M12 303q0 -82 40 -144.5t101.5 -105.5t137.5 -64.5t147 -21.5h58q66 0 131 15.5t125 50.5v-2q0 -16 12.5 -27.5t28.5 -11.5q41 2 84 2t86 2q74 2 147.5 4t149.5 2h61q33 0 65 -2q16 0 27.5 9t13.5 26q8 72 11.5 142.5t7.5 141.5q0 14 -9.5 25.5t-25.5 13.5q-14 2 -31 2 h-34h-23q2 35 2 72v74v65q0 35 -2 70v-2q0 106 -49 178t-126 116t-172 63.5t-185 19.5q-29 0 -56.5 -1t-52.5 -3h2q-117 -6 -231.5 -16.5t-225.5 -53.5q-35 -14 -58.5 -41t-39.5 -60.5t-29.5 -71.5t-29.5 -73q-8 -18 0 -33.5t28 -19.5q28 -5 52 -5q8 0 15 1q30 2 56.5 5 t54.5 5q10 1 20 1q21 0 46 -3l80 -6q10 0 20.5 4t14.5 12q23 37 65.5 56.5t89.5 19.5q6 2 23 2q43 0 82 -28.5t39 -71.5v-35q-53 14 -108.5 18.5t-112.5 4.5h-33q-92 0 -183.5 -16.5t-171.5 -69.5l3 2q-61 -35 -99.5 -95.5t-38.5 -132.5v-8zM549 328v8q0 37 32.5 61.5 t69.5 24.5h4q6 0 12.5 1t12.5 1q20 0 38.5 -5t39.5 -11v-17v-18q0 -8 -2 -19q-2 -18 -2 -37v-34q-52 -35 -111 -41h-8q-35 0 -60.5 25.5t-25.5 60.5z" />
<glyph unicode="b" horiz-adv-x="1538" d="M12 324q4 -70 10.5 -137.5t6.5 -135.5v-14q0 -14 9 -25.5t25 -13.5q209 -25 429 -25q88 0 178 7q14 2 25.5 12t11.5 26v13q51 -27 106 -38t113 -11h57q106 4 204.5 42.5t176.5 108.5q80 72 121 173.5t41 207.5v18q0 102 -39 196.5t-115 166.5q-76 70 -177 105.5 t-206 35.5h-22q-68 0 -134.5 -17.5t-127.5 -45.5v190q0 97 2 195q1 16 -13 28q-12 11 -26 11h-4q-98 -8 -192.5 -10.5t-192.5 -2.5h-105q-49 0 -102 2q-16 0 -27.5 -10t-13.5 -24q-4 -47 -6 -95.5t-7 -97.5q-2 -23 -3 -47.5t-3 -46.5v-5q0 -12 8 -22q10 -12 26.5 -14 t33.5 -2h33h18q-2 -92 -3 -182t-1 -183v-151q0 -76 4 -150q-12 0 -16 2q-14 2 -28.5 3t-31 3.5t-31 -11t-12.5 -29.5zM698 465q0 6 1 11t1 9v19q0 31 8.5 60.5t26 53t41 40t53.5 18.5q2 0 5.5 1t7.5 1q25 0 46 -13.5t35.5 -35t22.5 -48t8 -51.5q0 -6 -1 -11t-1 -9 q0 -6 1 -12t1 -13q0 -29 -7 -57.5t-22.5 -52t-38 -37.5t-50.5 -14h-7q-8 -2 -22 -2q-49 0 -79 46t-30 97z" />
<glyph unicode="c" horiz-adv-x="1325" d="M18 479q0 -113 51.5 -215t143.5 -167.5t201.5 -99.5t224.5 -34h33q16 0 33 2h-7q90 2 183.5 23.5t175.5 64.5t147.5 108.5t102.5 155.5q1 5 1 10q0 11 -6 21q-8 14 -24 19q-90 25 -180 45t-183 39l-43 -33q-10 -49 -45.5 -89t-83.5 -40h-24q-31 0 -54.5 15t-40 40 t-25.5 54.5t-9 60.5v33q0 35 10 70.5t30.5 64t49.5 47t65 18.5q53 0 91 -42t55 -89q4 -10 15.5 -17t21.5 -7q74 0 147.5 -1t147.5 -6q16 -2 27.5 9.5t11.5 27.5q0 96 -4.5 193.5t-14.5 193.5q0 14 -10 23.5t-27 11.5q-59 4 -124.5 7t-127.5 3h-39q-16 0 -27 -11t-11 -27v-7 q-53 29 -115 41.5t-121 12.5h-25q-117 0 -225 -44t-196 -118v2q-80 -66 -128.5 -162t-48.5 -203v-4z" />
<glyph unicode="d" horiz-adv-x="1558" d="M20 514q0 -111 42 -213t120 -180q70 -72 163 -117t198 -45h24q72 0 142.5 19.5t134.5 58.5v-8q0 -16 11.5 -28.5t27.5 -10.5q102 8 199.5 11t199.5 3q49 0 99.5 -1t101.5 -1q14 0 25.5 10.5t13.5 24.5q4 72 8 143.5t8 143.5q0 16 -11 28.5t-28 12.5h-26q-12 0 -29 2 q-6 0 -13.5 1t-13.5 1q2 92 3 182t1 182q0 160 -5 316.5t-15 316.5q-2 12 -12.5 22.5t-22.5 12.5q-76 4 -151.5 8t-149.5 4q-76 0 -151.5 -3t-149.5 -7q-16 -2 -26.5 -12.5t-10.5 -24.5v-293q0 -39 39 -39q18 0 32.5 1t30.5 3h17q0 -16 1 -30.5t1 -30.5q-63 25 -131 35 q-49 7 -97 7q-19 0 -38 -1q-106 -4 -214 -34t-194 -105q-74 -66 -114 -156t-40 -191v-18zM596 467v37q0 29 9 58.5t26.5 53t41 38t54.5 14.5q4 0 8 1t8 1q27 0 46.5 -14.5t33 -37t20.5 -49t7 -53.5v-18q0 -4 1 -9.5t1 -11.5q0 -29 -9 -58.5t-26.5 -52t-42 -37t-55.5 -14.5 q-4 0 -9 -1t-10 -1q-25 0 -44 14.5t-32.5 37t-20.5 50t-7 52.5z" />
<glyph unicode="e" horiz-adv-x="1343" d="M25 467q0 -117 54 -210t141 -159.5t196.5 -101.5t218.5 -35h43t41 4h-6q82 2 167 19.5t161.5 52.5t141 90t105.5 133l-28 55q-72 10 -144 18.5t-143 16.5q-29 4 -59.5 6t-59.5 6q-10 2 -22.5 -5t-16.5 -19q-16 -35 -44 -59.5t-62 -24.5h-17q-27 0 -50.5 11t-37.5 34v-2 q-25 41 -33 96h11q119 0 235.5 7.5t237.5 7.5h112t111 -5q18 -2 29.5 9.5t11.5 27.5q0 123 -50 235.5t-145 192.5q-82 72 -187.5 108t-213.5 36h-27q-12 0 -26 -2h4q-123 -4 -242 -40t-217 -114h4q-92 -59 -143 -157.5t-51 -209.5v-22zM578 590q4 14 9 29.5t9 31.5h-2 q4 8 4 21q16 20 36.5 35.5t43.5 15.5h10q41 0 66.5 -40t25.5 -81q-31 -2 -61.5 -4t-59.5 -4q-23 -2 -43 -2q-18 0 -38 -2z" />
<glyph unicode="f" horiz-adv-x="864" d="M-43 666q0 -16 10 -27.5t27 -11.5l16 -2q15 -2 27 -4q8 -2 16 -3.5t17 -3.5v-262q-14 2 -27.5 4t-30.5 6q-2 0 -7 1.5t-7 1.5q-16 0 -26.5 -11.5t-10.5 -27.5q2 -72 3 -146t5 -145q0 -12 10.5 -22.5t20.5 -14.5q57 -12 115.5 -17.5t117.5 -5.5q66 0 126.5 4.5t121.5 8.5 q66 6 129.5 11t124.5 5q16 0 27.5 10.5t11.5 26.5v72q0 37 2 73.5t2 71.5q0 37 2 74q0 16 -10 28.5t-27 12.5h-59q-29 0 -57 -2v65q0 33 2 66q2 23 2 45v45v49h6q33 0 63.5 -1t63.5 -3q16 -2 27.5 9t11.5 30v182v55q0 27 -2 56q0 12 -9.5 23.5t-21.5 13.5q-61 6 -121 6h-20 q0 37 8 59q35 35 88 35h8q6 0 15 -2l-3 2q18 -4 29.5 -6t22.5 -4q16 -2 32.5 -4t28.5 -7q20 -6 34.5 4.5t14.5 32.5q0 100 -6 197q-2 16 -2 31q0 16 -2 32q-4 31 -33 35q-14 2 -28.5 3t-32.5 5q-33 6 -68 10.5t-71 4.5h-41q-100 0 -198.5 -28t-182.5 -85t-127 -148.5 t-43 -189.5q-18 2 -35 2q-16 0 -35 4q-16 4 -29.5 -8t-13.5 -29q-2 -53 -2 -108v-111v-73z" />
<glyph unicode="g" d="M8 471q0 -92 41 -180t113 -150q78 -70 177 -103.5t202 -33.5h18q72 0 145.5 17.5t141.5 50.5q-4 -41 -29.5 -73t-62.5 -53.5t-81 -32.5t-85 -11h2q-10 0 -16.5 1t-14.5 1h-20q-68 0 -134.5 9t-125.5 36q-29 14 -48 -15q-18 -35 -37.5 -67.5t-35.5 -67.5 q-12 -23 -22.5 -47t-24.5 -47q-8 -16 -3 -31.5t21 -21.5q117 -51 240 -73.5t245 -22.5q23 0 48.5 1t48.5 3q127 10 253 34.5t236 94.5q104 66 160.5 179.5t56.5 231.5v17v176q0 76 -1 150.5t-1 150.5q-2 10 -2 18v21q20 0 37.5 -1t40.5 -3q18 -4 29.5 8t11.5 33q0 47 -4 96 t-8 96q-2 25 -2 49q0 25 -5 50q0 12 -10 23t-24 13q-104 10 -213 15.5t-217 5.5q-41 0 -84 -1t-86 -3q-16 0 -26.5 -11.5t-10.5 -27.5q-57 23 -116.5 31t-119.5 8h-24q-111 0 -216.5 -40t-191.5 -114q-78 -70 -122 -168t-44 -203v-18zM580 465q0 6 2 11t2 11v11q0 29 9 58.5 t27.5 54t44 40t56.5 15.5h14q27 0 48.5 -13.5t36 -35t21.5 -47t7 -52.5v-26q0 -57 -34 -109.5t-93 -54.5q-4 0 -9 -1t-10 -1q-51 0 -86.5 44t-35.5 95z" />
<glyph unicode="h" d="M4 179q4 -75 10 -146q2 -12 11.5 -22.5t23.5 -12.5q109 -12 218.5 -17.5t219.5 -5.5q72 0 149 2.5t148 6.5q14 2 24.5 13t10.5 26v294q0 16 -11 27.5t-28 11.5q-18 0 -34.5 -1t-32.5 -3q-8 -2 -23 -2v37q0 18 -1 38.5t-1 41.5q-1 23 -1 45v20q1 30 1 64q25 16 52.5 25.5 t56.5 13.5h6q29 0 47 -27.5t18 -56.5v-12q0 -256 -6 -508q0 -16 12.5 -28.5t28.5 -10.5q104 6 206.5 8t207.5 2h172q14 0 25.5 10.5t13.5 24.5q8 72 11 145.5t5 145.5q0 16 -11 27.5t-28 11.5h-22t-27 2q-6 0 -11 1t-9 1q0 35 1 69.5t1 69.5q0 20 1 40.5t1 41.5q2 10 2 22 v25q0 74 -29 145.5t-78 128t-116.5 91t-145.5 34.5q-8 0 -15 -1t-16 -1q-96 -2 -185 -31.5t-169 -80.5v217q0 109 2 217q0 16 -11 28q-9 11 -25 11h-5q-106 -6 -210.5 -8.5t-213.5 -2.5h-172q-16 0 -26.5 -10t-12.5 -24q-6 -72 -10 -144.5t-8 -144.5q0 -16 11 -28.5 t28 -12.5q23 0 42 -1t40 -1q-3 -69 -3 -134v-33q1 -81 1 -165t-1 -166v-33q0 -66 3 -131l-78 9q-17 1 -31 -11q-13 -11 -12 -26z" />
<glyph unicode="i" horiz-adv-x="745" d="M18 666q0 -29 27 -37l25.5 -8.5t11.5 -2.5t7 1.5t9 1.5q2 -2 13 -3v-69q0 -33 2 -68q2 -23 2 -43v-41v-43q-14 4 -25.5 6t-21.5 5q-18 6 -33 -6.5t-12 -32.5q2 -37 2 -74q0 -35 2 -72q0 -37 1 -71.5t1 -71.5q0 -29 26 -37q45 -14 88 -19.5t88 -5.5q51 0 100.5 4.5 t96.5 10.5t94 11t92 5q14 0 32 -1t34 -3t28.5 9.5t12.5 27.5q2 72 4 144.5t2 144.5q0 16 -10 27.5t-27 11.5q-8 0 -28 4q-4 0 -6.5 1t-6.5 1q2 88 3 174t1 176v121q0 61 -2 123q0 12 -10 24.5t-23 14.5q-23 2 -44 3t-46 1q-47 0 -92 -4.5t-88 -8.5q-47 -6 -91 -11t-87 -5 q-49 0 -107 12q-16 4 -29.5 -7t-13.5 -30q-2 -53 -2 -110v-109v-71zM76 1204q0 -49 21.5 -85t56 -60.5t77.5 -35.5t84 -11q16 0 29.5 1t24.5 3q41 8 87 20.5t87 35t70.5 59t35.5 96.5q-4 49 -26.5 88t-56.5 65.5t-74.5 40t-83.5 13.5q-12 0 -24.5 -1t-29.5 -6l4 3 q-41 -8 -88 -21.5t-87 -38t-69.5 -62.5t-37.5 -94v-10z" />
<glyph unicode="j" horiz-adv-x="745" d="M18 -96v-66q0 -35 2.5 -67.5t2.5 -63.5q0 -33 2 -65q0 -10 7 -21.5t17 -15.5q37 -14 78 -25.5t82 -15.5h10q106 0 203.5 37t165.5 102q45 43 71.5 92t41 103.5t19.5 108.5t5 106q2 92 2 180v182v248q0 125 -2 250q0 10 -8 21.5t-19 15.5q-41 12 -78.5 16t-74.5 4 q-49 0 -94 -4t-93 -10q-43 -6 -88 -11.5t-88 -5.5h-20t-23 2q-18 2 -30.5 -11t-10.5 -32q2 -20 2 -36v-35v-35q0 -16 -2 -35q-2 -37 -2 -76v-77q0 -14 9.5 -24.5t21.5 -14.5q10 -2 20 -2h21h18v-115v-229q0 -113 2 -230q0 -29 -2 -59.5t-16 -55.5q-16 -6 -33 -6 q-14 0 -34.5 5.5t-39 9.5t-32 -8.5t-13.5 -30.5zM152 1221q0 -49 19 -83t51 -55.5t71 -32t80 -10.5q16 0 33.5 1t33.5 8q39 2 86 9t89 26.5t72 55.5t34 99q-6 53 -31.5 95t-62.5 71t-82 44t-90 15h-29q-43 -8 -89 -24.5t-85 -44t-66.5 -68.5t-33.5 -98v-8z" />
<glyph unicode="k" horiz-adv-x="1433" d="M2 326l6 -117q2 -43 4 -87t6 -87q2 -12 11.5 -23.5t23.5 -13.5q98 -12 198.5 -17.5t203.5 -5.5q100 0 198 7q14 0 25.5 11t11.5 25v318q80 -78 156 -159t153 -163q4 -4 14.5 -8t14.5 -4h342q14 0 25.5 10.5t13.5 24.5q4 47 6 95t4 97q2 25 3 48.5t3 48.5q2 16 -9 28.5 t-30 12.5h-30q-12 0 -29 2q-14 16 -28.5 30.5t-28.5 30.5q-29 29 -55.5 57.5t-55.5 57.5q10 10 21.5 20t21.5 21v-2q23 23 45.5 43t44.5 43q10 -2 21.5 -1t23.5 1h25q14 0 27 -2l43 39v124t-5 125q0 14 -10 24.5t-24 12.5q-172 18 -349 19q-66 0 -130 -3t-130 -8 q-14 -2 -25 -13t-11 -25v-232q0 -16 13 -27.5t30 -9.5q16 0 35.5 1t35.5 3q-33 -31 -63.5 -62.5t-59.5 -64.5l-26.5 -26.5t-22.5 -26.5v842q0 16 -12 28q-10 11 -24 11h-5q-113 -8 -222.5 -11.5t-221.5 -3.5h-74q-35 0 -72 2q-37 0 -41 -36q-4 -72 -8 -143.5t-8 -143.5 l39 -41q20 0 39.5 -1t40.5 -3q-3 -66 -3 -132v-33q1 -83 1 -167t-1 -165v-32q0 -65 3 -131q-12 0 -17 2q-14 2 -28.5 3.5t-30.5 3.5q-18 2 -31.5 -10.5t-11.5 -30.5z" />
<glyph unicode="l" horiz-adv-x="745" d="M18 252q0 -35 2.5 -72t3.5 -71.5t1 -71.5q0 -12 7 -22.5t17 -14.5q45 -14 89 -19.5t89 -5.5q51 0 101.5 4.5t97.5 10.5t95 11t93 5q16 0 33 -1t33 -3t28.5 9.5t12.5 27.5q0 37 1 71.5t3 71.5t2 72t2 70q0 16 -10 28.5t-27 12.5q-12 0 -22 2q-4 0 -10.5 1t-12.5 1 q2 86 2 170v170q0 166 -2 329.5t-8 329.5q0 14 -10.5 24.5t-22.5 12.5q-47 6 -98 6q-53 0 -99.5 -5t-93.5 -9q-96 -12 -182 -13q-16 0 -33.5 1t-36.5 1q-16 2 -27 -9t-11 -27q-4 -72 -5.5 -143.5t-3.5 -143.5l37 -37q6 0 13.5 -1t13.5 -1q8 -2 12 -2q6 0 14 -2v-336v-334 q-23 2 -45 12q-19 4 -33 -7q-13 -10 -12 -26z" />
<glyph unicode="m" horiz-adv-x="2371" d="M-12 655q0 -16 11 -28.5t28 -12.5q16 0 31.5 -1t31.5 -1h19q-2 -33 -3 -65v-66v-63q0 -31 3 -64h-15q-16 0 -31.5 1t-29.5 1q-16 0 -28.5 -11t-12.5 -28q4 -74 12 -145.5t21 -140.5q2 -14 13 -23.5t23 -9.5q135 -8 269.5 -9t269.5 -3h100t101 -2q18 0 30.5 11t10.5 28 q-4 57 -5 113.5t-3 113.5q0 16 -1.5 29.5t-1.5 27.5q0 16 -11 27.5t-27 11.5h-105v21q0 33 -1 64.5t-1 64.5v75q29 20 62.5 32.5t72.5 12.5h8q27 0 43.5 -21.5t16.5 -45.5v-14q0 -129 2 -257t6 -258q0 -16 12.5 -25t28.5 -9l250 4q94 2 187 4t188 4q16 0 27.5 10t13.5 27 q4 72 6 144.5t4 144.5q0 16 -11.5 26t-27.5 10h-100v105q0 29 -1 59.5t-1 61.5q29 18 61.5 32.5t67.5 14.5h10q29 0 45 -22.5t16 -51.5v-8q0 -129 -2 -255t-12 -255q-2 -16 9 -28.5t30 -12.5q154 2 305 2h305q12 0 23.5 8t15.5 23q14 68 24.5 139.5t12.5 149.5 q0 14 -10.5 24t-26.5 12t-35 2h-35h-24q2 53 3 109t1 113v22q0 80 -34 153.5t-91 131t-133 92.5t-160 35h-24q-66 0 -127.5 -17.5t-116.5 -46.5h2q-90 -37 -162 -96q-51 74 -134 113t-175 39h-23q-10 0 -18 -2h4q-98 -2 -189.5 -30t-177.5 -73q0 6 1 12.5t3 14.5 q4 16 -9 29.5t-31 13.5h-607q-12 0 -24.5 -9.5t-14.5 -21.5q-12 -72 -19 -143.5t-9 -143.5z" />
<glyph unicode="n" horiz-adv-x="1560" d="M0 657v-5q0 -12 8 -22q10 -12 26.5 -14t35.5 -2h36h13v-131q0 -33 -1 -65v-21q0 -22 1 -45l-2 2q-16 2 -35 3t-41 1q-16 0 -27.5 -10t-11.5 -26v-21q0 -43 4 -84l8 -82q4 -27 4 -51q0 -25 2 -49q4 -33 37 -37q109 -8 216.5 -11t213.5 -3q78 0 155 2t155 4q16 0 26.5 11 t10.5 28v288q0 16 -11.5 26.5t-27.5 10.5h-39q-16 0 -35 -2q-6 -2 -14 -2h-13v242q25 14 50.5 24.5t54.5 10.5h10q31 0 49.5 -27t18.5 -57v-13v-249q0 -123 -3 -246q0 -39 39 -39q223 6 439 6h147q16 0 27.5 9t11.5 26q10 70 15.5 141.5t7.5 143.5q0 14 -11.5 24t-25.5 12 q-20 2 -39 2h-37q2 55 2 111v113q0 6 1 13t1 11q0 76 -30.5 149.5t-83 132t-123 94.5t-150.5 36q-6 0 -12 -1t-13 -1h-6q-92 0 -177 -30t-161 -75v31q0 16 -12 26.5t-29 10.5q-106 -4 -211.5 -6t-210.5 -2h-88q-41 0 -86 2q-14 0 -26.5 -8.5t-14.5 -22.5q-6 -49 -9 -99 t-5 -104q-2 -23 -2 -43q0 -18 -2 -41z" />
<glyph unicode="o" horiz-adv-x="1452" d="M23 475q0 -113 58 -210t148 -163q98 -72 213 -106.5t236 -34.5h29q14 0 26 2h-4q131 6 258 41t236 115h-4q92 61 151.5 157t59.5 207v19q0 113 -59.5 208t-147.5 160q-92 72 -209 107t-234 35h-30t-31 -2h4q-131 -6 -259 -42t-239 -114l4 2q-92 -61 -149 -156.5 t-57 -205.5v-19zM596 459v20v23q0 29 9 57.5t26.5 52t41 38t54.5 14.5h14q27 0 49.5 -13.5t37 -35t22.5 -49t8 -54.5h-2v-37q0 -29 -8 -58.5t-25.5 -53t-41 -39t-54.5 -15.5q-4 0 -8 -1t-8 -1q-27 0 -48.5 14.5t-36 36t-22.5 48t-8 53.5z" />
<glyph unicode="p" horiz-adv-x="1558" d="M23 670q0 -14 9 -26.5t25 -14.5q14 -2 29 -2h31h14q-2 -98 -3 -197.5t-1 -198.5v-147q0 -74 4 -145h-10q-12 2 -23.5 4t-27.5 2q-18 4 -31.5 -8.5t-13.5 -30.5q2 -74 5 -147.5t9 -147.5q2 -12 12 -22.5t23 -12.5q106 -10 211.5 -16t212.5 -6q72 0 145.5 3t144.5 7 q16 2 26.5 12t10.5 27v293q0 16 -12 28.5t-28.5 10t-30.5 -2.5t-31 -2q-14 0 -21 -2v31v61q57 -23 118 -29.5t120 -6.5h33q106 0 211.5 34.5t191.5 106.5q72 61 116 148t44 186v20q0 113 -45 216.5t-123 185.5q-72 74 -167 117.5t-200 43.5h-30q-72 0 -139.5 -20.5 t-126.5 -58.5q-2 18 -13.5 28t-27.5 8q-102 -4 -199.5 -7t-200.5 -3h-94q-45 0 -92 2q-16 0 -27.5 -10t-13.5 -27q-4 -72 -7 -142.5t-7 -141.5zM700 473q0 6 1 11.5t1 11.5v16q0 31 8.5 60.5t25 54t41 41t54.5 16.5q8 2 21 2q51 0 82 -45t31 -98q0 -12 -2 -21v-18 q0 -61 -37 -114.5t-101 -55.5q-6 -2 -18 -2q-25 0 -44.5 13t-32.5 32.5t-21.5 45.5t-8.5 50z" />
<glyph unicode="q" horiz-adv-x="1558" d="M20 485q0 -104 39 -203.5t117 -171t178.5 -108.5t204.5 -37h33q135 0 262 66v-90q-23 -2 -42 -3.5t-42 -3.5q-39 -4 -39 -38v-293q0 -18 13 -29q10 -10 23 -10h5q139 10 273.5 14t271.5 4q41 0 82 -1t82 -1q14 0 25.5 10.5t13.5 24.5q6 72 10 145.5t6 145.5q0 35 -37 39 q-18 0 -36.5 1t-39.5 1q2 78 3 153.5t1 151.5q0 98 -1 195.5t-3 195.5q18 0 35 -1t35 -1q20 -4 33 9q12 10 12 25l-3 55q-1 24 -3 46q-2 47 -4 96.5t-6 98.5q-2 14 -12.5 24.5t-22.5 12.5q-111 10 -220.5 15t-219.5 5q-39 0 -78 -1t-80 -3q-16 0 -26.5 -11.5t-10.5 -27.5 v-14q-59 29 -124.5 41t-131.5 12h-14q-109 0 -210.5 -42t-183.5 -116q-78 -68 -123 -162t-45 -198v-21zM594 469q0 16 2 25q-2 4 -2 10v14q0 27 9 55.5t25.5 51t40 37t52.5 14.5h10q8 2 23 2q25 0 44 -14.5t31.5 -36t19.5 -48t7 -51.5v-18q0 -6 1 -11t1 -10q0 -29 -8 -57.5 t-24.5 -52t-40 -38.5t-54.5 -17q-4 0 -8 -1t-8 -1q-27 0 -48.5 13t-38 34.5t-25.5 47t-9 52.5z" />
<glyph unicode="r" horiz-adv-x="1032" d="M-20 317q2 -70 5 -141.5t9 -140.5q4 -31 33 -35q66 -10 133 -13t137 -3q68 0 135.5 2t132.5 6q49 4 98.5 5t96.5 3q14 0 24.5 10t12.5 27q4 53 4 106q0 55 2 109q0 18 1 35.5t1 34.5q0 16 -11.5 27t-27.5 11h-102q2 43 24.5 76t57 54.5t78.5 33t87 11.5q20 0 52 -7h16 q14 0 22 -2q4 0 7.5 -1t7.5 -1q16 0 26.5 11.5t10.5 27.5q-2 98 -5.5 194.5t-11.5 192.5q-4 31 -35 35l-12 4t-16 2h4q-12 4 -29 4h-30q-86 0 -162 -37.5t-129 -103.5v92q0 16 -11.5 27.5t-27.5 9.5q-109 -6 -214.5 -10t-213.5 -4h-64t-65 2q-16 0 -26.5 -10.5t-12.5 -26.5 q-8 -137 -12 -283q0 -16 10 -25.5t26 -11.5q20 -2 41 -3t43 -1v-131q0 -33 -1 -65v-21q0 -21 1 -43q-12 0 -18 2q-16 2 -30.5 3t-33.5 1q-16 0 -27 -11t-11 -28z" />
<glyph unicode="s" horiz-adv-x="1173" d="M31 672q0 -74 35.5 -144.5t101.5 -105.5v2q47 -31 98 -52.5t105 -35.5h-29q-47 0 -96 3t-103 7q-10 2 -22 2h-25q-16 0 -27.5 -12t-7.5 -29v-96q4 -47 5.5 -95t5.5 -96q0 -12 9 -22t25 -12q61 -6 126 -10.5t130 -4.5h37q39 0 39 39v2q53 -23 112.5 -34t119.5 -11h30 q74 0 152 23.5t142.5 68.5t106.5 112t42 153v8q0 76 -32 130t-82 93t-113.5 63.5t-127.5 40.5q23 -2 44.5 -1t37.5 1q41 0 81 -1t83 -5q16 -2 28.5 9.5t12.5 27.5q-2 66 -6 132.5t-8 131.5q0 14 -10.5 24.5t-22.5 12.5q-47 6 -97 8t-97 2h-95q-16 2 -28.5 -8t-12.5 -26 q-55 25 -116.5 31t-120.5 6h-10q-70 0 -144 -20.5t-135 -60.5t-101 -101.5t-40 -143.5v-6zM389 330q31 -6 61.5 -13t61.5 -12h-2l-4 2q23 -6 39 -6q18 0 35 -4q35 -4 66.5 -12.5t51.5 -30.5q-16 -12 -40.5 -15t-49.5 -6q-4 0 -10 -1t-10 -1q-53 0 -102.5 26t-84.5 67z M451 723q6 12 24.5 17t38.5 5h25q53 0 105 -18t97 -59q-31 6 -57.5 10t-52.5 8h2q-14 2 -26.5 3t-24.5 3q-35 4 -66 9.5t-57 13.5q-8 0 -8 8z" />
<glyph unicode="t" horiz-adv-x="856" d="M-2 666q0 -16 10 -27.5t27 -11.5q8 0 24 -4q14 0 27.5 -1t30.5 -4v-151v-127v6v-39q0 -68 25.5 -131t70.5 -111.5t104.5 -78t124.5 -29.5q29 0 70 10q80 12 163 31.5t159 62.5q6 4 11 14.5t5 16.5q6 141 6 281q2 23 -14.5 34t-34.5 3q-23 -6 -45.5 -12.5t-42.5 -6.5h-17 q-18 0 -28 17.5t-10 37.5v7l4 12v176q70 -2 151 -12q16 -2 28.5 10t12.5 29v71q0 53 -1 109.5t-1 109.5q-4 33 -33 37q-35 6 -71.5 10.5t-75.5 4.5h-14q0 84 -1 165.5t-1 167.5q-2 23 -18 33q-8 5 -17 5t-21 -5q-59 -27 -114.5 -57.5t-110.5 -63.5q-59 -35 -118.5 -69.5 t-123.5 -61.5q-10 -4 -16 -16t-6 -23q4 -10 4 -16v-14v-11q0 -6 -4 -16v-41q-10 2 -21 2q-10 0 -20 2q-10 0 -20.5 1t-20.5 1q-16 0 -26.5 -11t-10.5 -28v-116v-172z" />
<glyph unicode="u" d="M-6 656v-6q0 -12 8 -22q10 -12 27 -14q18 -2 39 -2h38v-26v-62q-2 -33 -2 -67v-66v-18q0 -76 29 -148.5t80 -129t120.5 -91.5t151.5 -35h25q92 0 182 30t168 77q0 -10 -1 -18.5t-1 -18.5q-2 -18 11.5 -30.5t29.5 -12.5q221 6 440 6h148q14 0 25.5 9t13.5 24q8 49 10 102 t6 109q0 16 1 34.5t3 36.5v5q0 12 -8 22q-10 12 -27 14q-14 2 -28 2h-31h-18v121q0 117 -5.5 232.5t-15.5 232.5l-37 35q-154 6 -303 6q-78 0 -152.5 -1t-152.5 -3q-16 0 -26.5 -11t-10.5 -28v-287q0 -16 12.5 -27.5t28.5 -8.5q23 0 45.5 1t44.5 3q2 -59 2 -119v-117 q-27 -14 -56.5 -23.5t-59.5 -9.5q-6 -2 -13 -2q-27 0 -42 26t-15 54q0 12 2 21v290q0 47 1 96.5t1 96.5q0 16 -12.5 27.5t-28.5 11.5q-221 -6 -438 -6h-148q-35 0 -39 -33q-8 -55 -11 -113.5t-7 -113.5v2q-2 -14 -2 -29q0 -12 -2 -28z" />
<glyph unicode="v" horiz-adv-x="1306" d="M-25 653q0 -14 9.5 -25.5t26 -13.5t32.5 -2h35h2q100 -182 201 -352h-2q37 -68 75.5 -134.5t75.5 -133.5q4 -6 15.5 -12.5t21.5 -6.5q47 2 95 3t95 6q94 6 193 6q6 0 16.5 6t14.5 14q61 111 124.5 220.5t122.5 222.5l93 172q6 0 10 -1t12 -1q10 -2 21.5 -3.5t27.5 -1.5 t27.5 11.5t11.5 27.5q-2 51 -6 102.5t-8 100.5q-2 18 -4 37.5t-4 42.5q-4 33 -37 37q-98 4 -195.5 9t-195.5 5q-23 0 -43.5 -1t-42.5 -1q-16 0 -27.5 -11t-11.5 -28q2 -47 3 -94t1 -96q0 -25 1 -47.5t1 -46.5q0 -16 11 -27.5t28 -11.5h33q-14 -31 -27.5 -60.5t-28.5 -60.5 l-49 -103l-55 123v-2q-12 23 -22.5 47.5t-20.5 46.5q4 0 8 1t8 1q6 0 13.5 1.5t17.5 1.5q14 0 25.5 9t13.5 23q2 18 2 37v39v37q0 20 -2 39v-2q-2 35 -2 71v72q0 16 -12.5 27.5t-28.5 9.5q-162 -10 -320.5 -11t-320.5 -1q-16 0 -26.5 -10.5t-12.5 -24.5q-14 -137 -19 -283z " />
<glyph unicode="w" horiz-adv-x="2011" d="M-29 651q0 -16 11.5 -26.5t27.5 -10.5q14 0 25.5 -1t25.5 -1h23q63 -160 140 -311t159 -303q4 -8 14.5 -14.5t20.5 -6.5q18 0 36.5 -1t39.5 -1q43 -2 88 -2h92h65q33 0 68 2q8 0 19.5 7.5t15.5 17.5q29 72 59.5 140.5t61.5 140.5q12 29 23 56.5t26 55.5q43 -96 86 -190 t84 -191q4 -10 16 -17t25 -7q53 2 104 2h105h84q45 0 86 2q10 0 20 7t14 13q78 154 153 302.5t140 303.5h23q12 0 24.5 -1t22.5 -1q19 0 31 12q11 11 10 25q0 17 -14 147q-8 72 -19 140q-2 10 -12 20.5t-23 12.5q-88 6 -175 8t-173 4q-29 0 -57.5 1t-57.5 1q-18 0 -29.5 -12 t-9.5 -29q4 -47 7.5 -93t5.5 -95l4 -96q0 -14 12 -25.5t29 -11.5h35q-14 -35 -27.5 -70t-28.5 -70q-2 -4 -3 -8t-3 -8q-47 125 -94 248t-98 246l-39 24q-35 -2 -72 -3t-72 -1q-53 -2 -108 -2q-53 0 -107 -4q-10 0 -21 -7t-16 -18q-27 -68 -54 -135t-56 -137 q-23 -59 -46.5 -115.5t-45.5 -115.5q-4 10 -6 16t-7 16q-12 31 -24 64t-25 65h45q16 0 28.5 10.5t12.5 26.5q0 18 1 35.5t1 36.5q2 53 2 106q0 55 5 109q2 16 -10.5 28.5t-30.5 12.5q-31 0 -63 -1t-62 -1q-72 -2 -146 -2h-145h-105q-51 0 -104 2q-14 0 -26.5 -9.5 t-14.5 -23.5q-10 -68 -17.5 -140.5t-9.5 -148.5z" />
<glyph unicode="x" horiz-adv-x="1304" d="M-2 655q0 -14 10 -26.5t27 -12.5q14 -2 28 -2h31h33q20 -25 39.5 -49t40.5 -47l53 -61q-10 -8 -17 -14.5t-12 -14.5v2q-20 -20 -41.5 -45t-33.5 -35q-10 0 -17.5 1t-17.5 3t-23 2h-24h-17q-16 0 -27.5 -12t-11.5 -29q4 -72 7.5 -141.5t13.5 -140.5q0 -12 9 -22.5 t24 -12.5q61 -8 125.5 -9t132.5 -3h49q25 0 51 -2q4 0 16.5 5t16.5 11q23 33 46 64.5t48 64.5l61 86q18 -27 36 -52.5t38 -49.5q18 -27 35.5 -52.5t36.5 -48.5q4 -6 15.5 -11t17.5 -5q172 6 338 6h114q31 0 37 35q6 70 11.5 140.5t9.5 139.5q0 16 -11.5 27.5t-26 13.5 t-28.5 2h-31q-10 0 -18 -1t-16 1q-37 41 -74 83t-74 85q10 10 19.5 21.5t19.5 21.5q10 14 23.5 26.5t25.5 25.5q10 0 21.5 -1t21.5 -1q16 -2 33.5 -3.5t36.5 -1.5q16 0 27.5 11.5t11.5 27.5q-2 72 -7.5 144.5t-11.5 144.5q0 14 -10 22.5t-27 10.5q-78 4 -156.5 8t-156.5 4 h-45q-8 0 -18.5 -6t-14.5 -12q-23 -31 -43 -61.5t-43 -63.5q-12 -20 -26.5 -40t-26.5 -42q-37 47 -68.5 97t-66.5 100q-4 6 -14.5 11t-18.5 5q-16 0 -33.5 -1t-34.5 -1q-61 -2 -123.5 -3t-123.5 -1h-72q-33 0 -72 2q-12 0 -25.5 -9.5t-13.5 -23.5q-8 -72 -11 -142.5 t-7 -142.5z" />
<glyph unicode="y" horiz-adv-x="1263" d="M-25 668q0 -39 39 -39q4 0 6.5 -1t6.5 -1h-2q8 -2 16 -2h18q80 -166 164 -328t176 -322q-4 -4 -8 -12v2q-12 -16 -22 -41h-27h-37q-14 0 -35 2q-8 0 -16 1t-18 1q-16 0 -27.5 -11t-11.5 -28q0 -72 3 -147.5t5 -147.5q4 -33 37 -36q39 -4 77 -4h80q131 0 252 12 q23 4 31 22q72 158 146.5 309.5t146.5 305.5q53 111 103 217t102 215q6 0 7 -1t5 -2t14.5 -2t32.5 -1q18 -4 33.5 7t13.5 32q0 72 -4 146.5t-12 148.5q0 12 -9.5 22t-25.5 12q-96 10 -194.5 15.5t-196.5 5.5q-20 0 -40 -1t-40 -1q-16 0 -27.5 -12.5t-11.5 -28.5q2 -35 2 -72 v-74v-73q0 -37 2 -76l45 -37q10 2 19 2h8q-14 -33 -26.5 -64.5t-26.5 -66.5l-41 -102q-10 23 -21.5 46t-21.5 48q-14 33 -30 63.5t-30 63.5q10 2 22.5 3t24.5 3q14 2 24.5 11t10.5 24q4 18 3 37.5t-1 40.5v36q0 20 -2 39v-2q-2 37 -2 74v72q0 18 -12.5 29.5t-30.5 9.5 q-219 -18 -442 -19h-84t-86 2q-14 0 -26.5 -10t-14.5 -25q-4 -72 -7.5 -145.5t-5.5 -144.5z" />
<glyph unicode="z" horiz-adv-x="1257" d="M25 272q4 -59 7 -118.5t7 -118.5q2 -14 12 -23.5t23 -11.5q76 -10 152.5 -12t152.5 -2q86 0 170 2t170 6t170 7t170 3h55q27 0 55 -2q16 -2 27.5 8t13.5 27q6 78 11.5 157.5t5.5 163.5q0 33 -35 37q-33 4 -68 4h-67q-16 0 -33.5 1t-34.5 1q-18 0 -30.5 -13t-8.5 -32 q2 -10 2 -18t-2 -19q-2 -8 -2 -30h-41h-141q113 102 224.5 199.5t228.5 195.5q4 4 9 13.5t5 15.5q0 10 -1 22.5t-1 24.5q-2 47 -5 93t-9 89q0 10 -11.5 19.5t-21.5 11.5q-78 10 -158 13t-162 3q-84 0 -166 -3t-168 -7t-171 -7t-171 -3q-27 0 -51 1t-51 1l-39 -33 q-6 -78 -9 -159t-7 -158q0 -16 10 -27.5t27 -11.5q33 -2 65.5 -3t65.5 -1q16 0 32.5 -1.5t32.5 -1.5t27.5 11.5t11.5 27.5v35q0 16 2 35h90h86q-219 -195 -442 -381q-4 -4 -9 -14t-5 -17z" />
<glyph unicode="{" horiz-adv-x="718" d="M-25 367q0 -14 10.5 -25.5t26.5 -13.5q59 -4 104.5 -52.5t45.5 -109.5q0 -14 -4 -23v-233q0 -68 19.5 -137.5t70.5 -122.5q49 -55 111.5 -64.5t127.5 -9.5h64q16 2 29.5 3t27.5 1q10 0 20.5 -1t20.5 -1q12 0 25.5 -1t25.5 -1q16 0 25.5 10.5t9.5 26.5q4 78 6 157.5 t2 157.5q0 14 -9 25.5t-23 13.5q-8 2 -19 2h-18q-23 4 -46.5 10.5t-37.5 24.5l6 -4q-18 27 -21.5 57.5t-3.5 63.5v80v41q0 76 -27.5 153.5t-88.5 118.5q59 49 88.5 125t29.5 156v22t-4 21v67q0 37 3 72t24 63l-6 -4q16 18 49 19q4 0 10 -1t17 -3q25 -4 32 -7q18 -6 31.5 6.5 t13.5 32.5q-6 160 -6 316q-2 12 -10 24.5t-22 16.5q-35 8 -73 15t-81 9q-10 2 -39 2q-78 0 -148.5 -35.5t-119.5 -101.5q-41 -57 -63.5 -125.5t-22.5 -140.5v-234q4 -6 4 -22q0 -51 -33 -92t-78 -41q-8 0 -14 1t-14 3q-20 6 -34 -5t-14 -34v-272z" />
<glyph unicode="|" horiz-adv-x="1054" d="M356 551q0 -203 2 -404.5t2 -406.5l17 -31q23 -20 44 -28.5t44 -8.5q25 0 46 5.5t44 15.5h-4q20 6 38.5 11t39.5 5q16 0 22 -2q16 -8 28.5 3t12.5 34q2 205 4 406.5t2 404.5q0 205 -2 406.5t-2 406.5q-2 6 -6 16.5t-10 14.5q-23 20 -46.5 26.5t-45.5 6.5 q-23 0 -43.5 -4.5t-42.5 -12.5q-18 -6 -37 -11t-39 -5q-4 0 -9 1t-16 3q-16 4 -26.5 -8.5t-10.5 -30.5q-2 -205 -4 -406.5t-2 -406.5z" />
<glyph unicode="}" horiz-adv-x="718" d="M-25 -72q0 -53 2.5 -106t2.5 -107q2 -25 2 -51v-53q0 -12 8 -23.5t22 -15.5q6 -2 14.5 -4t16.5 -4q29 -8 57.5 -15.5t65.5 -7.5h29q82 0 157.5 36t124.5 106q37 53 59.5 116.5t22.5 132.5v15v112v-2q4 14 4 29v33v26q0 14 -4 29v27q0 49 32 92t79 43q8 0 14 -1t14 -3 q18 -6 31.5 5t13.5 32v272q0 16 -10 28.5t-26 12.5q-59 4 -104.5 50t-45.5 110q0 6 1 11t1 11q0 57 -1 114.5t-1 115.5v12q0 68 -22.5 130t-59.5 116q-55 61 -122.5 72.5t-135.5 11.5h-49q-20 0 -36.5 -1t-37.5 -1h-39q-16 0 -35 2q-16 2 -27 -10.5t-11 -28.5v-103 q-2 -53 -4.5 -106t-2.5 -107q0 -16 11.5 -27.5t27.5 -11.5q6 0 11.5 -1t9.5 -1h8q4 -2 11 -3t12 -3q16 -4 33.5 -9t25.5 -15v2q14 -23 16 -53.5t2 -61.5q2 -10 2 -20v-19v-51v-41q0 -78 29 -156t88 -118q-59 -51 -89 -127t-30 -154v-23q0 -12 4 -22v-49q0 -10 -2 -19.5 t-2 -19.5v2q0 -33 -2 -63.5t-18 -51.5l4 4q-16 -16 -45 -16q-14 0 -23 2l4 -2l-40 12q-18 6 -33 -5t-15 -32z" />
<glyph unicode="~" horiz-adv-x="1257" d="M37 684q0 -53 4 -106.5t14 -106.5q4 -23 27.5 -30t40.5 14q47 53 114.5 84.5t143.5 35.5q53 -8 106.5 -25.5t104.5 -39.5q59 -29 122.5 -49.5t135.5 -20.5q57 0 112.5 11.5t106.5 40.5h-2q37 18 70.5 39.5t66.5 43.5q4 4 10.5 13.5t6.5 13.5v78q0 53 -3.5 106.5 t-13.5 104.5q-4 23 -26.5 29t-38.5 -11q-51 -49 -117 -85t-143 -36h-5q-53 0 -105 20.5t-105 43.5h2q-59 29 -125 50.5t-138 21.5h-10q-53 0 -107.5 -14.5t-101.5 -41.5l2 2q-68 -31 -145 -96q-2 -18 -3 -43.5t-1 -46.5z" />
<glyph unicode="&#xa1;" horiz-adv-x="698" d="M94 612q0 -33 29 -39q33 -8 86 -8q35 0 65.5 4t63.5 9q31 4 63.5 9t61.5 5q45 0 94 -17l47 37q0 59 -2 115.5t-2 116.5q-2 29 -2 57v57q0 12 -8 22.5t-19 14.5q-57 23 -120 23q-39 0 -72 -4t-68 -10q-31 -4 -63.5 -8.5t-63.5 -4.5h-20t-27 2q-14 2 -26.5 -9t-12.5 -30 v-112v2q-4 -57 -4 -117v-115zM98 18q0 -63 2 -127.5t2 -123.5q2 -31 2 -62v-63l23 -35q35 -16 64.5 -21.5t62.5 -5.5q35 0 66.5 4t62.5 8q33 6 62.5 11.5t58.5 5.5h20t25 -4q16 -4 29.5 8t13.5 31q0 33 -1 62.5t-1 60.5q2 53 4 104t2 102v54q-14 104 -30.5 209.5 t-33.5 209.5q-4 27 -30 31q-10 2 -23 2h-22q-35 0 -63.5 -4t-57.5 -8t-56.5 -8t-50.5 -4h-14q-6 0 -16 2q-14 4 -25.5 -6.5t-15.5 -26.5q-8 -51 -14.5 -101.5t-14.5 -101.5z" />
<glyph unicode="&#xa2;" horiz-adv-x="1325" d="M18 483q0 -113 50.5 -219t144.5 -172h-4q78 -59 170 -89t190 -36q0 -12 -1 -23.5t3 -23.5v-37q0 -6 1 -14t-3 -19q-2 -16 9.5 -29.5t31.5 -13.5t38 1.5t36 3.5l70 4q16 2 25 13t9 26v75v-4q4 10 5 21v24v9q72 10 140 27t136 50q80 41 141.5 111t96.5 156q4 16 -3.5 30.5 t-23.5 18.5q-86 27 -165 45t-157 37l5 -2q-12 4 -23.5 5t-21.5 3q-16 4 -30 -4t-18 -27q-6 -51 -41.5 -93t-85.5 -42h-8q-8 -2 -20 -2q-29 0 -52.5 16.5t-40 41t-24.5 55t-8 59.5v29q0 35 10 70.5t30.5 64t49.5 47t65 18.5q53 0 91 -42t55 -91q4 -10 15.5 -18t21.5 -8 q74 -2 146.5 -3.5t148.5 -3.5q14 0 26.5 10.5t12.5 26.5v78q-2 78 -3.5 159t-7.5 159q0 33 -34 36q-72 6 -148 8.5t-149 2.5q-16 0 -28.5 -12.5t-8.5 -28.5v-6q-18 10 -36 18t-40 16q-4 2 -10 3t-11 3v9v47v-4q-4 20 -4 39v41q0 16 -11 27t-28 11q-20 0 -41.5 -1t-44.5 -3 q-14 -2 -27.5 -3t-25.5 -1q-16 0 -27.5 -11t-11.5 -28v-116q-104 -10 -199.5 -51.5t-172.5 -108.5l4 2q-86 -63 -132.5 -159.5t-46.5 -201.5v-6z" />
<glyph unicode="&#xa3;" horiz-adv-x="1200" d="M-14 291q0 -4 1 -9.5t1 -9.5q0 -63 25.5 -119.5t68.5 -99.5t99.5 -68.5t117.5 -25.5h6q72 0 136.5 32t115.5 79q47 -41 107.5 -64.5t126.5 -23.5h24h4q82 0 152.5 34.5t125 93t85 133t32.5 154.5q0 12 -8 22.5t-18 14.5q-117 41 -230 68q-16 4 -29.5 -5.5t-17.5 -27.5 q-6 -35 -27.5 -63.5t-56.5 -28.5h-18q-35 0 -70 14q23 72 19 150q0 20 -2 36.5t-4 34.5q49 0 99 1t99 1q16 0 27.5 11.5t11.5 27.5v181q0 16 -11 27t-28 11q-68 0 -137.5 -2t-138.5 -6q-2 8 -4 14.5t-6 16.5q-6 12 -12.5 26.5t-16.5 32.5q-6 18 -12.5 38t-10.5 42v6 q0 31 23.5 54.5t52.5 23.5h12q35 0 57.5 -32.5t24.5 -67.5q2 -18 14.5 -29.5t30.5 -7.5q61 10 122 15l122 10q16 2 33 2q18 0 35 2q35 4 35 39q-2 88 -43 160.5t-105.5 124.5t-144.5 80t-162 28h-37q-16 0 -33 -4h6q-90 -2 -187 -30t-179 -82t-135.5 -134t-55.5 -186 q-2 -78 23 -158q-20 2 -41 3t-43 5q-16 2 -28.5 -10t-12.5 -29v-174q0 -35 33 -39q59 -6 115.5 -11t115.5 -5q29 -35 51 -74q-8 2 -16 2h-19h-2q-6 2 -16 2h-18q-47 0 -92.5 -16.5t-81 -46t-58 -71.5t-22.5 -93zM176 256v10q0 25 19.5 41.5t46.5 16.5h6q35 -4 66.5 -21.5 t60.5 -42.5q-6 -35 -31.5 -63.5t-60.5 -28.5h-11q-37 0 -66.5 25.5t-29.5 62.5z" />
<glyph unicode="&#xa4;" horiz-adv-x="1558" d="M-184 758q0 -20 14 -38t43 -18h158v-14v-37h-152q-29 0 -43 -17.5t-14 -39.5q0 -20 14 -37.5t43 -17.5h166q20 -111 71.5 -209.5t135.5 -175.5q100 -94 232 -141.5t268 -47.5q20 0 39.5 1t42.5 3q106 6 212.5 35t204.5 88q109 66 174.5 170.5t104.5 216.5q6 14 -1 30.5 t-24 20.5q-35 14 -68.5 26.5t-68.5 27.5q-55 23 -109.5 45t-107.5 39q-18 6 -31.5 -4.5t-17.5 -28.5q-4 -47 -19.5 -95t-42 -89t-64.5 -67t-89 -26h-10q-76 0 -115 55.5t-53 127.5h227q29 0 43 17t14 38q0 23 -14 40t-43 17h-238v35v17h426q29 0 43.5 17t14.5 38 q0 23 -14.5 40t-43.5 17h-419q6 43 18 83t33.5 70.5t53.5 50t75 19.5h14q33 0 61.5 -13t51 -36.5t40 -52.5t25.5 -59q4 -12 15.5 -20.5t21.5 -8.5h51q59 0 115.5 -2t114.5 -6h-4q16 -2 28 -2t28.5 -2t30 10t13.5 29q-2 123 -6 243.5t-15 241.5q0 12 -11 22.5t-23.5 12.5 t-24.5 2q-10 0 -25 2q-59 4 -119.5 8t-119.5 4h-35q-18 0 -29.5 -14.5t-7.5 -30.5v-10q-66 37 -142.5 55.5t-150.5 18.5q-10 0 -17 -1t-17 -1q-145 -10 -277.5 -66.5t-234.5 -155.5q-80 -80 -131.5 -181t-67.5 -212h-164q-29 0 -43 -17.5t-14 -39.5z" />
<glyph unicode="&#xa5;" horiz-adv-x="1413" d="M-18 1036q0 -16 11 -26.5t25 -12.5q16 -2 34 -3t36 -1q16 -29 32.5 -54.5t35.5 -49.5h-9h-49q-25 0 -51 4q-39 4 -43 -37q-2 -23 -2 -49v-47v-31q0 -16 10.5 -26.5t26.5 -12.5q66 -4 131.5 -6t130.5 -4q6 -10 14.5 -21.5t18.5 -21.5q2 -4 4 -5t6 -5q-53 0 -105.5 2 t-105.5 6q-23 2 -45 2q-23 0 -45 2l-41 -41q2 -29 2 -59v-62q0 -16 10.5 -26.5t26.5 -12.5q86 -6 172 -11t172 -5h25v-47h-70q-16 0 -27.5 -11.5t-11.5 -27.5q2 -80 3 -162t3 -162q0 -16 11.5 -25.5t25.5 -11.5q23 -2 45 -2h47q86 0 171 5.5t171 9.5q74 4 146.5 8t144.5 6 q16 0 26.5 10.5t12.5 26.5q4 80 6 162t4 161q0 16 -11 27.5t-28 11.5h-65v9v36q35 0 68.5 1.5t68.5 1.5q106 0 217 -7q18 -2 29.5 9.5t11.5 29.5v76q0 12 1 24.5t1 24.5q0 39 -39 39q-23 0 -44 1t-44 3q-51 2 -100 4t-99 2h-4q4 4 7.5 8.5t7.5 8.5q6 10 10 17t10 16 q63 -2 127 -3.5t127 -5.5q18 -2 29.5 9.5t11.5 29.5v31v47q0 27 -2 49q-4 33 -35 37q-18 2 -37.5 3t-38.5 1q-10 0 -20 1t-21 1q20 23 38 47.5t34 48.5q10 -2 17 -2h14h12t17 -2q18 -4 30.5 8.5t12.5 30.5q0 80 -5.5 160t-11.5 160q-2 14 -12 24.5t-23 12.5 q-104 10 -208.5 16t-210.5 6q-23 0 -44.5 -1t-44.5 -1q-16 0 -27 -12t-11 -29q2 -53 3 -106.5t1 -106.5q0 -27 1 -53.5t1 -54.5q0 -16 12 -29.5t31 -9.5h4q-16 -29 -32.5 -54.5t-35.5 -52.5h-10h-25q-10 0 -22 -2q-10 16 -17.5 32.5t-17.5 33.5q-10 18 -20 32q6 2 10 3 q6 0 12 2q12 2 22.5 13t12.5 23q2 20 2 41v43v41q0 20 -2 41q-2 41 -2 80v80q0 16 -12.5 28.5t-30.5 10.5q-133 -10 -262 -14t-262 -4h-158q-14 0 -25.5 -10.5t-13.5 -26.5q-6 -78 -10 -158t-6 -158z" />
<glyph unicode="&#xa6;" horiz-adv-x="1054" d="M356 446q0 -178 2 -353t2 -353l17 -31q23 -20 44 -28.5t44 -8.5q25 0 46 5.5t44 15.5h-4q20 6 38.5 11t39.5 5q16 0 22 -2q16 -8 28.5 3t12.5 34q2 176 4 351t2 354q0 23 -22 34q-16 10 -32.5 13.5t-33.5 3.5q-23 0 -44 -5.5t-44 -13.5q-39 -14 -71 -14q-10 0 -22.5 2 t-22.5 10q-16 12 -33 2t-17 -35zM356 657l23 -34q39 -18 67 -19q23 0 44.5 5t44.5 14q39 14 71 14q25 0 45 -12q16 -10 31.5 1t15.5 33q0 180 -2 354.5t-2 354.5q-2 6 -6 16.5t-10 14.5q-23 20 -46.5 26.5t-45.5 6.5q-23 0 -43.5 -4.5t-42.5 -12.5q-18 -6 -37 -11t-39 -5 q-4 0 -9 1t-16 3q-16 4 -26.5 -8.5t-10.5 -30.5q-2 -178 -4 -353t-2 -354z" />
<glyph unicode="&#xa7;" horiz-adv-x="1300" d="M29 518q0 -96 38.5 -175t103.5 -140.5t144.5 -102.5t163.5 -59l-4 2q35 -10 66.5 -17.5t64.5 -15.5q31 -8 62.5 -14t62.5 -16h-4q27 -6 48.5 -21.5t21.5 -38.5v-4q0 -23 -13.5 -40t-33 -27.5t-44 -16.5t-44.5 -8q-23 -6 -37 -6q-47 0 -85 38t-46 85q-2 14 -13.5 24 t-25.5 10q-16 0 -31.5 -1t-32.5 -1q-125 0 -250 19q-18 4 -31.5 -9.5t-9.5 -33.5q6 -96 58.5 -178t132.5 -133q68 -43 146.5 -65t158.5 -22h41t37 5h-4q98 10 192 36.5t178 81.5h-4q76 45 122 120t46 163v14q0 63 -25.5 119.5t-66.5 104.5q66 47 113 116.5t47 155.5v18 q0 94 -40 174t-104.5 141.5t-146.5 103.5t-164 61v-2q-23 6 -46 11t-48 11q-39 10 -77 21.5t-79 23.5q-23 8 -44 23.5t-21 38.5q2 47 45 68.5t86 25.5q20 6 37 6q49 0 87 -38t48 -89q2 -14 13 -23.5t26 -9.5h57q63 0 126 -2t128 -12q20 -4 32.5 8t8.5 35q-10 94 -60.5 178 t-134.5 131l5 -2q-72 47 -151 67.5t-163 20.5q-18 0 -34.5 -1t-32.5 -1q-98 -10 -193.5 -36.5t-177.5 -80.5h4q-74 -43 -120 -118.5t-46 -161.5v-21q0 -63 24.5 -120.5t65.5 -104.5q-66 -45 -109.5 -114.5t-43.5 -155.5v-23zM420 561q0 4 2 7t2 7q0 29 25 60 q45 -16 91 -27.5t93 -19.5h-2q47 -6 90 -15.5t78 -25.5q29 -12 54.5 -39t25.5 -59v-15q-6 -39 -31 -59q-45 18 -92 28.5t-94 16.5l8 -2q-6 2 -10.5 3t-12.5 3q-41 10 -80 18.5t-67 18.5q-31 14 -55.5 39.5t-24.5 60.5z" />
<glyph unicode="&#xa8;" horiz-adv-x="630" d="M-195 1110q0 -39 4.5 -74t10.5 -69q4 -10 15 -17.5t22 -9.5q43 -4 86 -4h84h67q33 0 68 -2q16 0 29.5 10t11.5 25q-4 35 -4 67v70v68t4 67q2 14 -11.5 24.5t-29.5 10.5q-53 -2 -107 -2h-106h-90q-12 0 -23.5 -8.5t-15.5 -18.5q-6 -33 -10.5 -66.5t-4.5 -70.5zM422 1243 q4 -39 6 -76t2 -75q0 -59 -6 -117q-2 -16 9 -26.5t28 -10.5q78 2 153 2h156q31 0 39 27q16 72 16 143q0 66 -18 137q-4 10 -13.5 18.5t-21.5 8.5q-45 4 -92 4h-92h-127z" />
<glyph unicode="&#xa9;" horiz-adv-x="1560" d="M-6 729q0 -154 62.5 -297t170.5 -254q98 -98 227.5 -160.5t270.5 -62.5q16 0 31.5 1t29.5 3h-2q150 12 290 74.5t251 167.5q111 102 176.5 237t65.5 283v22q0 156 -64.5 299.5t-175.5 249.5h2q-96 104 -229 165t-277 61h-26q-12 0 -25 -2h2q-154 -10 -294 -74t-251 -170 q-109 -104 -172 -241.5t-63 -289.5v-12zM213 717v31q0 104 46 199t120 167q80 80 184.5 130t216.5 50h4q10 2 19 2h18q102 0 192.5 -42t160.5 -113q76 -78 124 -175.5t48 -207.5v-25q0 -104 -47.5 -200.5t-124.5 -172.5q-80 -78 -182.5 -126t-213.5 -56q-10 0 -21.5 -1 t-23.5 -1q-98 0 -189 43t-163 113q-78 76 -123 175t-45 210zM334 698q0 -80 32.5 -156.5t89 -136t130 -95.5t155.5 -36q35 0 66 7q68 2 131 27.5t115.5 69.5t89.5 102.5t53 123.5q10 35 -29 45q-49 10 -101 23.5t-103 21.5q-37 6 -45 -32q-4 -29 -15.5 -58t-29 -51.5 t-41 -37.5t-52.5 -15h-14q-35 0 -59.5 19.5t-41 48t-24.5 64.5t-8 70q0 8 1 14.5t1 10.5v18q0 37 8 75t26.5 70t47 54.5t67.5 26.5q6 2 15 2q45 0 77.5 -36t43.5 -83q4 -16 17 -25.5t30 -5.5q47 10 93 17.5t95 15.5l33 47q-12 63 -47 115.5t-84 91.5t-109.5 60.5 t-122.5 21.5h-45h4q-92 -4 -175 -41t-146 -102q-59 -61 -93 -138t-34 -163v-9q-2 -10 -2 -20v-21z" />
<glyph unicode="&#xaa;" horiz-adv-x="903" d="M-17 1136.5q9 -16.5 29 -18.5q45 -10 91.5 -15t93.5 -9q-39 -8 -76 -21.5t-66.5 -37t-49 -56.5t-21.5 -78q4 -55 31.5 -96t68.5 -67.5t91 -40t99 -13.5h9q47 0 93 7t87 30q8 -19 33 -19q68 2 135 3.5t135 1.5h53q27 0 55 -2q16 0 27.5 10t13.5 22q4 43 6.5 87t4.5 87 q0 35 -35 39q-10 0 -21.5 1t-21.5 1v74q0 20 -1 40.5t-1 39.5q-4 70 -37 115t-83 72.5t-111.5 38.5t-120.5 11q-20 0 -38 -1t-36 -3h4q-4 0 -9 -1t-9 -1q-72 -4 -140.5 -10t-134.5 -29h2q-51 -16 -89 -51t-60 -78q-10 -16 -1 -32.5zM289 1104q16 20 39.5 31.5t48.5 11.5 q4 0 8 1t8 1q23 0 43.5 -14.5t22.5 -36.5q-35 6 -69 7t-68 1h-15q-4 0 -8 -1t-10 -1zM352 915v3q0 18 17.5 30.5t36.5 12.5h4q27 0 51 -7v-4v-51q-29 -18 -58 -18h-8q-16 0 -29.5 9t-13.5 25z" />
<glyph unicode="&#xab;" horiz-adv-x="1495" d="M20 469q55 -117 111.5 -233.5t118.5 -229.5q4 -8 15 -13t20 -5q23 0 42 -1t40 -1q39 0 74.5 -1t74.5 -1q111 0 219 6q23 2 32 18.5t-1 34.5q-33 68 -66.5 135.5t-68.5 132.5q-23 41 -44.5 82t-43.5 82q59 111 114.5 224.5t108.5 228.5q10 23 -2 39t-35 14 q-184 -12 -371 -12h-73q-8 0 -18.5 -5.5t-14.5 -13.5q-61 -111 -119.5 -223.5t-112.5 -226.5q-8 -16 0 -31zM746.5 487.5q-1.5 -12.5 3.5 -16.5q55 -113 108 -223.5t103 -227.5q4 -8 14 -15t20 -7q66 2 129.5 3t128.5 1q45 0 90.5 -1t92.5 -1q23 0 34 15.5t3 35.5 q-39 106 -86.5 210t-98.5 208v-2l-12 22q53 106 103.5 213t93.5 218q8 18 -3.5 33.5t-31.5 17.5q-98 6 -197.5 11t-198.5 5h-47q-10 0 -20 -7t-14 -15q-39 -92 -79 -180.5t-83 -176.5v2q-12 -27 -25.5 -52.5t-23.5 -53.5q-2 -4 -3.5 -16.5z" />
<glyph unicode="&#xac;" horiz-adv-x="1280" d="M45 750q-2 -16 9.5 -25.5t27.5 -11.5q100 -6 213 -6q86 0 172 2t174 6q51 2 102.5 3t102.5 3q0 -104 -3 -203.5t-7 -202.5l38 -39h304q16 0 26 9.5t10 23.5q10 92 16.5 184.5t6.5 186.5t-6 185t-17 184q0 12 -10 21t-24 11q-76 8 -155 11.5t-157 3.5t-155.5 -2t-155.5 -7 q-80 -4 -161 -6t-163 -2h-67q-31 0 -66 2q-12 0 -24.5 -9t-12.5 -23q-18 -147 -18 -299z" />
<glyph unicode="&#xad;" horiz-adv-x="825" d="M45 449q0 -49 2 -96.5t8 -94.5q2 -12 11.5 -21.5t21.5 -9.5q41 -4 81 -6t81 -2q51 0 102 2t101 4q45 2 86 2h86h104q14 -2 25.5 7.5t13.5 23.5q12 88 12 184q0 94 -12 187q-2 10 -12.5 19t-22.5 11q-45 2 -89 3.5t-89 1.5t-90 -1t-90 -1q-49 -2 -96.5 -3.5t-98.5 -1.5 h-43t-43 2l-39 -30q-6 -45 -8 -90t-2 -90z" />
<glyph unicode="&#xae;" horiz-adv-x="1560" d="M-6 729q0 -154 62.5 -297t170.5 -254q98 -98 227.5 -160.5t270.5 -62.5q16 0 31.5 1t29.5 3h-2q150 12 290 74.5t251 167.5q111 102 176.5 237t65.5 283v22q0 156 -64.5 299.5t-175.5 249.5h2q-96 104 -229 165t-277 61h-26q-12 0 -25 -2h2q-154 -10 -294 -74t-251 -170 q-109 -104 -172 -241.5t-63 -289.5v-12zM213 717v31q0 104 46 199t120 167q80 80 184.5 130t216.5 50h4q10 2 19 2h18q102 0 192.5 -42t160.5 -113q76 -78 124 -175.5t48 -207.5v-25q0 -104 -46.5 -201.5t-123.5 -169.5q0 4 -1 7.5t-4 7.5q-37 72 -77.5 135t-83.5 129 q-8 10 -17.5 21.5t-19.5 21.5q66 31 109.5 93.5t43.5 140.5v22q0 45 -22.5 87t-50.5 73q-37 41 -89.5 57.5t-105.5 16.5h-12q-102 0 -203.5 -9.5t-202.5 -9.5q-39 0 -39 -39q0 -82 -1 -163t-1 -162q0 -117 1 -231t3 -230q0 -16 9 -25q-8 6 -15.5 13.5t-15.5 13.5 q-78 74 -123 174t-45 211zM422 293q6 -2 20 -2h82q43 0 84 2l37 39q2 20 2 41v41v41q0 20 -2 41q-2 31 -2 61v61h27q23 0 44 -9t38 -25q37 -41 64.5 -90.5t53.5 -100.5q8 -16 15.5 -29.5t15.5 -29.5q4 -6 15.5 -13.5t19.5 -7.5h37q18 0 35 2q27 2 51 3t53 1h16 q-72 -63 -163 -100t-187 -41q-10 -2 -22 -2h-23q-86 0 -165 31t-146 86zM643 821v140h21q10 0 22 2q20 2 39 2q20 0 41 2q6 2 25 2q31 0 59.5 -12.5t28.5 -43.5v-10q0 -20 -13.5 -33.5t-34 -22.5t-44 -13.5t-44.5 -4.5q-25 -4 -50 -5t-50 -3z" />
<glyph unicode="&#xb0;" horiz-adv-x="743" d="M-31 971q0 -78 31 -155t90 -130l-4 2q51 -53 118.5 -85t139.5 -32q8 0 15.5 1t15.5 1q78 4 150.5 38t127.5 87q51 51 86 119t35 146v14q0 80 -34.5 151.5t-86 125t-120 84t-144.5 30.5h-18q-86 0 -157 -35t-126 -88h4q-63 -51 -93 -123.5t-30 -150.5zM233 958v11 q0 55 43 94t99 43l5 1t9 1q47 0 84 -38t37 -85v-10q0 -27 -11.5 -51.5t-30.5 -43t-44 -29.5t-51 -13q-4 0 -9.5 -1t-9.5 -1q-47 0 -84 36.5t-37 85.5z" />
<glyph unicode="&#xb1;" horiz-adv-x="1280" d="M49 770q0 -16 10.5 -26.5t26.5 -12.5q72 -8 147.5 -11t151.5 -3h59v-318q0 -23 17 -34h-92q-66 0 -134.5 5t-138.5 15q-18 4 -30.5 -9.5t-12.5 -31.5q4 -78 7 -154.5t8 -154.5l30 -37q72 -12 145.5 -17.5t149.5 -5.5q84 0 167 4.5t167 10.5q82 6 164 11t164 5 q31 0 58.5 -1t57.5 -3q16 -2 27.5 8t11.5 27q6 76 9.5 154.5t3.5 154.5q2 14 -8.5 25.5t-26.5 13.5q-45 4 -94.5 6t-96.5 2q-92 0 -180 -6q18 12 19 33v321h84q68 0 134 -2t136 -8q16 -2 28.5 9.5t12.5 29.5q0 78 -2 153.5t-2 153.5q-2 12 -11.5 24.5t-23.5 14.5 q-72 10 -146.5 12t-152.5 2h-62v82q0 59 -2 121t-2 121q-2 16 -14 27.5t-29 11.5q-35 -2 -69.5 -4t-69.5 -6q-41 -4 -81 -6t-83 -4q-14 0 -24.5 -11.5t-10.5 -27.5v-52v-127q-4 -37 -4 -73v-74q-23 -2 -46 -1t-46 1q-66 0 -128 2t-128 6q-18 2 -28.5 -10t-10.5 -29 q-2 -78 -4 -153.5t-2 -153.5z" />
<glyph unicode="&#xb2;" horiz-adv-x="743" d="M27 637q0 -12 10 -23.5t22 -13.5q82 -12 174 -12q45 0 90.5 2t92.5 4q47 4 95 7t95 3q14 0 28.5 -1t29.5 -1q33 0 36 33q4 53 8.5 105.5t8.5 105.5q2 16 -9.5 27.5t-27.5 11.5h-53h2q-27 2 -53.5 3t-53.5 1q-12 0 -22.5 -8.5t-14.5 -20.5q-2 -8 -2 -31q-29 -2 -53 -3 t-49 -3q-4 0 -7 -1t-7 -1q35 23 71.5 41.5t77.5 38.5l12 4q31 16 63 36t58.5 44.5t44 57t19.5 75.5q-4 61 -34 106.5t-75 76t-98 46t-107 15.5h-22t-21 -2q-53 -2 -110.5 -16.5t-105.5 -45t-79.5 -76.5t-31.5 -114q0 -33 32 -37q37 -4 75 -6t73 -2h31q14 0 28 2 q12 2 22.5 12t10.5 23q0 23 13.5 42t35.5 19h2q2 0 5 1t8 1q23 0 28 -18q-6 -35 -35.5 -61.5t-62.5 -49.5q-10 -8 -19.5 -14t-19.5 -14q-43 -25 -84 -58t-73.5 -73.5t-52 -89t-19.5 -103.5v-18v-13v-14z" />
<glyph unicode="&#xb3;" horiz-adv-x="749" d="M2 860q0 -63 27.5 -114.5t72.5 -88t102.5 -56t114.5 -19.5h31q16 0 29 2h-4q55 6 117.5 18t117 40t93 73t45.5 116v17q0 49 -26 89t-67 64q29 23 47.5 53.5t18.5 69.5v9q0 59 -28.5 103t-74 72.5t-98.5 43t-104 14.5h-25q-10 0 -20 -2q-53 -2 -113.5 -14.5t-112 -40 t-86 -72.5t-41.5 -113q-2 -16 7.5 -27.5t25.5 -13.5q51 -4 103.5 -7t107.5 -3l39 33q0 20 15.5 33.5t35.5 13.5h6q14 0 26.5 -7t12.5 -18q0 -25 -24.5 -37t-50.5 -16q-14 0 -23.5 -11t-9.5 -26q0 -14 1 -27.5t1 -27.5v-55q0 -20 14 -29.5t33 -5.5h14q23 0 45.5 -9.5 t22.5 -29.5v-6q0 -20 -18.5 -32.5t-41.5 -12.5q-6 -2 -18 -2q-25 0 -44 19.5t-19 43.5v2q0 16 -12.5 27.5t-28.5 9.5q-66 -6 -125 -6q-16 0 -36 1t-38 1q-14 0 -25.5 -10t-11.5 -27v-2z" />
<glyph unicode="&#xb4;" horiz-adv-x="606" d="M-20 958l28 -47q53 -4 117 -4h117q51 43 107.5 89t109.5 89q39 31 77.5 62t79.5 65q16 16 9 36t-33 22q-90 6 -182 6q-37 0 -74 -1t-74 -1q-23 0 -42 -1t-40 -1q-10 0 -19 -5t-14 -14q-16 -31 -34.5 -59.5t-36.5 -58.5h2q-27 -43 -51.5 -86t-46.5 -91z" />
<glyph unicode="&#xb5;" horiz-adv-x="1292" d="M-68 670q-2 -16 9.5 -27.5t25.5 -13.5q16 -2 31 -2h31h12q-4 -84 -4 -168v-166q0 -174 5 -345t15 -345q4 -33 35 -37q72 -8 146.5 -11.5t150.5 -3.5h49q25 0 49 3q16 2 26.5 13t10.5 27q-4 96 -5 187.5t-1 185.5q12 -2 25.5 -3t27.5 -1h21q57 18 90 55q16 -23 37 -20 q78 4 155.5 7t155.5 3q72 0 143.5 -2t145.5 -6q16 -2 27.5 10.5t11.5 28.5q0 29 1 58.5t1 58.5v172q0 35 -35 39q-18 2 -38.5 3t-39.5 1q-2 150 -6 299t-14 301l-35 37q-68 4 -137.5 7t-139.5 3q-82 0 -164.5 -4t-164.5 -8q-4 0 -6 -1t-5 -1h-6q-104 0 -207.5 -7.5 t-207.5 -7.5q-41 0 -82 1t-82 3q-16 0 -27.5 -10t-13.5 -27q-4 -43 -6 -86l-4 -86q-2 -29 -3.5 -57.5t-3.5 -56.5zM608 438v33v162q10 0 17.5 1t15.5 3q10 0 17.5 1t17.5 1v-55q0 -27 2 -56v-73v-56q-16 -10 -28.5 -18t-24.5 -12q-12 6 -14.5 26.5t-2.5 42.5z" />
<glyph unicode="&#xb6;" horiz-adv-x="1652" d="M66 1014q0 -8 2 -14.5t2 -12.5v-18q0 -98 41 -186.5t112 -151.5q70 -61 158 -86t176 -25h12q39 0 74 6v-473q0 -233 4 -471q0 -18 12.5 -29.5t28.5 -9.5q23 0 46.5 2t47.5 4q47 4 93.5 8.5t95.5 8.5q14 2 24.5 13t10.5 26q2 244 4 487.5t2 489.5v245q0 125 -4 252h84 q0 -141 2 -279t2 -278q0 -229 -4.5 -453.5t-8.5 -453.5q0 -18 12.5 -29.5t28.5 -11.5q72 4 142 4h139q16 0 26.5 10.5t10.5 26.5q14 225 19 449.5t5 447.5q0 141 -3 277.5t-7 275.5q23 -2 43 -4t43 -6q20 -4 32.5 9t12.5 32q-4 78 -7 153.5t-9 153.5q0 12 -10.5 23.5 t-22.5 13.5q-102 16 -202.5 21t-205.5 5q-141 0 -279 -8t-280 -18q-6 0 -14 1t-14 1q-86 0 -172 -32t-153.5 -89t-109.5 -135t-42 -172z" />
<glyph unicode="&#xb8;" horiz-adv-x="585" d="M41 -291l27 -33q37 -10 74.5 -16t74.5 -6h39q45 0 96 12t94 37t71 63.5t28 94.5q0 43 -18.5 79.5t-49.5 64.5t-69.5 43t-79.5 15h-15q-47 0 -91 -19t-83 -48l-24 -94q-6 -16 5 -28.5t32 -12.5h16h8q4 0 4 -6v-2q0 -10 -14 -12.5t-27 -2.5h-10q-16 4 -25 4q-8 0 -16 2 q-16 4 -27.5 -7t-11.5 -27v-11q0 -10 -1 -19t-3 -22q-2 -10 -3 -22t-1 -27z" />
<glyph unicode="&#xb9;" horiz-adv-x="718" d="M98 735q0 -25 2 -50.5t2 -49.5q2 -10 10.5 -20.5t20.5 -14.5q29 -6 61.5 -9t63.5 -3q35 0 66.5 2t64.5 4q35 4 66.5 7t64.5 3q12 0 25.5 -1t29.5 -3q14 -2 25.5 7t11.5 26q4 18 3 37.5t3 38.5v75q0 16 -10 26.5t-26 10.5q-6 0 -12.5 1t-12.5 1h6q-12 2 -24 2h-23v500 q-2 16 -12 26.5t-27 10.5q-10 0 -20.5 1t-20.5 1q-20 0 -42.5 -2t-45.5 -6q-37 -41 -85 -63.5t-95 -22.5q-16 0 -27 2q-16 2 -27.5 -8.5t-11.5 -26.5q-4 -16 -4 -39v-39v-72q0 -39 37 -38q4 0 8 -1t9 -1h2q4 0 8 -3q6 0 16 1.5t17 1.5q4 0 6 1l2 1v-238q-16 2 -32.5 4t-33 6 t-28 -8t-11.5 -29v-49z" />
<glyph unicode="&#xba;" horiz-adv-x="901" d="M-12 1006q0 -72 37.5 -132.5t97.5 -103.5q63 -47 139 -68.5t154 -21.5q10 0 18 1t19 1q86 2 167.5 24.5t153.5 69.5q57 35 98 95.5t41 132.5v18q0 74 -39.5 133t-97.5 100q-66 45 -139.5 66.5t-151.5 21.5q-10 0 -18 -1t-18 -1q-86 -2 -170 -23.5t-156 -68.5 q-59 -39 -97 -100.5t-38 -132.5v-10zM381 995v27q0 31 19.5 57.5t50.5 26.5h10q29 0 45 -23.5t16 -52.5v-24q0 -31 -18.5 -58.5t-50.5 -27.5h-11q-29 0 -45 23.5t-16 51.5z" />
<glyph unicode="&#xbb;" horiz-adv-x="1495" d="M20 51q-6 -18 4.5 -33.5t28.5 -17.5q111 -10 220.5 -12t220.5 -4q10 0 20 5t14 15q49 100 97 205q31 66 59.5 128t60.5 128q4 6 5 16q0 12 -5 19q-55 113 -109 224.5t-110 225.5q-8 23 -34 23q-66 -2 -133.5 -3t-133.5 -1h-82t-84 2q-23 2 -35 -14.5t-4 -36.5 q45 -113 90.5 -222.5t100.5 -220.5q-55 -104 -99.5 -210.5t-91.5 -215.5zM725 926q27 -51 52.5 -100.5t49.5 -100.5q31 -59 62 -116.5t59 -116.5l-88 -177q-35 -68 -66.5 -135t-66.5 -137q-10 -23 2 -39t35 -14q180 12 364 12h74q8 0 18.5 6t14.5 12q47 84 92 168t88 170 q16 29 29.5 55.5t28.5 55.5q4 6 4 16q0 12 -4 19q-14 29 -27.5 57.5t-30.5 56.5q-43 88 -87 174.5t-93 172.5q-2 4 -13.5 11t-17.5 7q-45 4 -90 4h-88q-137 0 -268 -6q-23 -2 -33 -18.5t0 -36.5z" />
<glyph unicode="&#xbc;" horiz-adv-x="1892" d="M96 664q0 -16 10.5 -26.5t26.5 -12.5q27 -2 53.5 -3t53.5 -4q72 -4 141.5 -7t140.5 -3h56q29 0 57 2q16 2 26.5 13.5t10.5 25.5v158q0 39 -41 39q-18 -2 -37 -2h-37q2 131 4 261t8 263q0 16 -11 28.5t-28 12.5h-141q-47 -43 -100 -62.5t-107 -19.5h-26q-14 0 -25.5 -9 t-13.5 -26q-4 -39 -6 -77.5t-5 -77.5q0 -16 12.5 -27.5t28.5 -11.5h68h4q-2 -53 -2 -105q0 -51 -2 -102v-23q0 -10 -2 -20q-10 2 -18 2t-19 2q-10 0 -20.5 1t-20.5 1q-39 0 -39 -39v-151zM332 41l33 -59h34t35 -2q29 -2 56.5 -3.5t56.5 -1.5h26q8 0 19.5 5.5t15.5 11.5 q82 125 164 249t166 246q143 217 285.5 430t283.5 431q12 20 2 37.5t-32 21.5q-31 4 -62 4h-63h-43t-43 2q-10 0 -20.5 -5t-14.5 -13q-143 -225 -289.5 -445.5t-294.5 -441.5q-80 -117 -158.5 -232.5t-156.5 -234.5zM990 417q-3 -11 1 -22q8 -23 14.5 -44t14.5 -44 q4 -14 9 -27.5t9 -25.5q2 -10 13.5 -18.5t23.5 -8.5q33 0 64.5 1t64.5 3t66 2h67h-22q-16 -2 -25.5 -13t-9.5 -25v-39q0 -16 -2 -35q-2 -20 -3 -41t-1 -41q0 -16 12 -27.5t29 -11.5q39 2 74 2h75h267q16 0 26 10.5t12 24.5q4 39 8.5 78t4.5 80q0 23 -23 34q10 4 19.5 12.5 t11.5 22.5q2 16 2 31q0 14 2 30.5t2 32.5v33q0 14 -10 25.5t-23 13.5q-10 2 -24 2h-25h-2q2 66 3 128.5t1 127.5v66q0 16 -11 26.5t-28 12.5q-47 4 -96 4t-98 2q-16 0 -32.5 1t-33.5 1l-28 -10q-37 -35 -72 -67t-72 -65q-61 -53 -123.5 -109t-122.5 -114q-6 -8 -9 -19z M1309 436q20 16 37.5 34.5t35.5 35.5v-10v-58h-36t-37 -2z" />
<glyph unicode="&#xbd;" horiz-adv-x="1892" d="M109 666q0 -16 10 -26.5t26 -12.5q27 -2 53.5 -3t53.5 -3q70 -4 139.5 -7.5t140.5 -3.5h56q29 0 57 2q14 2 25.5 12.5t11.5 26.5v158q0 16 -12.5 27.5t-28.5 11.5q-18 -2 -37 -2h-35q2 131 4.5 261t6.5 263q0 16 -11.5 28.5t-27.5 12.5h-140q-47 -45 -102 -63.5 t-111 -18.5h-20q-14 0 -25.5 -9t-13.5 -26q-4 -39 -6 -77.5t-4 -77.5q0 -16 11 -27.5t28 -11.5h73q-2 -53 -2 -107q0 -51 -2 -100v-23q0 -10 -2 -20q-10 2 -20 2q-8 0 -17 2q-10 0 -20 1t-21 1q-39 0 -38 -39v-151zM322 43l32 -61h39q18 0 37 -2q27 -2 53.5 -3.5t53.5 -1.5 h26q20 0 33 17q109 164 214 324.5t216 322.5q119 180 236.5 355t234.5 356q12 20 2 37.5t-33 21.5q-31 4 -61 4h-64h-43t-43 2q-8 0 -19 -5t-15 -13q-135 -215 -275.5 -422t-281.5 -418q-88 -129 -172 -257t-170 -257zM1036 31q0 -16 11.5 -28.5t29.5 -10.5q125 6 247 8 t247 2h143q16 0 26.5 10.5t12.5 24.5q2 16 3 34.5t5 34.5q4 37 9.5 75t7.5 75q0 16 -9.5 27.5t-25.5 13.5q-20 2 -41 2h-39h-45q-23 0 -45 4q-16 2 -27.5 -7t-15.5 -26q-2 -4 -2 -12v-16h-92h-33q25 14 55.5 26.5t63.5 26.5q20 10 39 16q4 2 8 3t8 5q33 16 68.5 35 t65.5 44.5t49.5 60.5t23.5 84q-4 70 -41 119t-90.5 79.5t-115.5 45t-120 14.5q-6 2 -16 2h-23q-55 0 -113.5 -16.5t-106.5 -50.5t-77.5 -83t-29.5 -112v-6q0 -16 11 -27.5t28 -11.5h51q27 0 51 2q14 2 27 2h26h27q14 0 28 -2q18 -2 30.5 10t12.5 29q0 23 13.5 41t34.5 18h18 q10 0 20.5 -7t14.5 -20q-6 -31 -33 -50t-55 -38h2q-18 -10 -31.5 -19t-28.5 -20l2 2q-53 -29 -100 -68.5t-84 -88.5t-58.5 -107.5t-21.5 -122.5v-26z" />
<glyph unicode="&#xbe;" horiz-adv-x="1898" d="M39 887q0 -70 32.5 -123t85 -90t117 -56.5t125.5 -19.5q6 0 13.5 1t13.5 1h27q61 0 127.5 13.5t123 45t93.5 82t37 123.5v10q0 53 -29 94.5t-72 65.5q33 27 53.5 66t20.5 80q-2 66 -34 109.5t-81 70t-107.5 38t-111.5 11.5h-39q-57 0 -118.5 -11.5t-115 -39t-91 -73.5 t-46.5 -116q-2 -16 9.5 -27.5t27.5 -13.5q29 -2 55.5 -4t55.5 -4t53.5 -3t50.5 -5l45 39q0 16 15.5 28.5t32.5 12.5h8q16 0 30.5 -8t16.5 -23q-2 -25 -29.5 -35t-52.5 -12q-31 -4 -35 -37q-2 -23 -2 -45v-43v-31q0 -16 11.5 -27t27.5 -11h12q29 0 55.5 -10.5t28.5 -39.5 q-2 -18 -17.5 -29.5t-31.5 -11.5q-4 0 -10 1t-10 1q-4 -2 -13 -2q-29 0 -47 20.5t-18 49.5v4q0 16 -11.5 27.5t-27.5 11.5h-39q-20 0 -37 -2h2q-29 -2 -57.5 -3t-57.5 -1h-26q-16 0 -27.5 -11.5t-11.5 -27.5v-10zM395 37l33 -60q10 0 20.5 -1t20.5 -1q23 -2 49 -2h49h37 q20 0 37 2q6 0 16.5 5.5t14.5 11.5q102 156 204.5 309.5t206.5 306.5q123 184 246 367.5t244 372.5q14 20 3 38.5t-34 20.5q-29 2 -53 2q-25 0 -51.5 2t-55.5 2h-53q-8 0 -18.5 -6t-14.5 -12q-133 -209 -269 -412t-273 -408q-92 -135 -181.5 -269t-177.5 -269zM1048.5 421 q-4.5 -11 0.5 -22l47 -145q4 -12 16 -19.5t23 -7.5q123 6 237 6q-12 -2 -21.5 -12t-11.5 -22q-4 -41 -5 -79t-3 -77q0 -16 11.5 -28.5t27.5 -12.5h422q16 0 26.5 10.5t12.5 24.5t3 29.5t3 29.5q4 23 5 47.5t3 46.5q2 10 -7 22.5t-19 16.5q12 2 22 11.5t12 23.5q2 16 2 31 q0 14 2.5 30.5t2.5 32.5v33q0 16 -12.5 27.5t-28.5 11.5q-6 0 -13 2h2q-10 2 -18 2h-16q2 63 3 126t1 128v66q0 16 -10.5 27.5t-26.5 11.5q-66 4 -131.5 5t-130.5 3l-25 -10q-27 -23 -50.5 -44.5t-47.5 -44.5q-74 -66 -150 -131t-147 -133q-6 -6 -10.5 -17zM1364 436 q20 18 39.5 37t42.5 37v-12v-60q-23 0 -42.5 -1t-39.5 -1z" />
<glyph unicode="&#xbf;" horiz-adv-x="1218" d="M-6 -8q0 -92 47 -172t119 -137l-2 2q78 -70 177 -97.5t200 -27.5q20 0 39.5 1t37.5 3h-2q94 6 198.5 29.5t194 72.5t152 128t70.5 196q2 16 -9.5 28.5t-27.5 14.5q-123 6 -254 6h-70q-33 0 -67 -2q-16 0 -26.5 -11.5t-10.5 -27.5v-10q0 -47 -34 -83t-81 -36h-6 q-8 -2 -18 -2q-43 0 -75 30.5t-32 73.5v15q0 31 14.5 57.5t37 47t51 30.5t57.5 10q18 0 39.5 -2t42.5 -2h39q16 0 28.5 12.5t10.5 28.5l-13 147q-4 39 -5 76t-5 72q-2 16 -14.5 25.5t-26.5 9.5q-33 -2 -64.5 -3t-64.5 -6l-129 -12q-10 -2 -21.5 -12t-13.5 -21q-2 -8 -3 -16 t-5 -22q-2 -4 -2 -9q0 -4 -2 -10q-88 -4 -174 -29.5t-158 -78.5v2q-66 -45 -102.5 -118t-36.5 -153v-18zM367 608q0 -16 11 -28.5t30 -12.5q106 4 208 13q59 6 120 10t120 4h29q16 0 27.5 11t11.5 28q-2 88 -4 175t-7 175q0 37 -39 37h-32q-72 0 -141.5 -4t-139.5 -10h2 q-41 -2 -79 -4.5t-76 -4.5q-16 0 -26.5 -11t-10.5 -28q0 -45 -1 -88t-1 -86v-88t-2 -88z" />
<glyph unicode="&#xc0;" horiz-adv-x="1478" d="M-31 360q2 -82 5 -162.5t8 -162.5q0 -12 10 -23.5t24 -13.5q100 -16 204 -24.5t208 -8.5q29 0 58.5 1t58.5 3q16 2 26.5 12.5t10.5 26.5q-2 76 -3 149.5t-1 149.5q0 16 -11.5 27.5t-27.5 11.5q-14 0 -26.5 -1t-29.5 -1q4 8 5 15.5t6 17.5l18 59q139 4 276 19q4 0 8.5 1 t10.5 1q4 -12 5 -20.5t5 -18.5q4 -12 7 -25.5t7 -27.5q-18 0 -43 -3l-26 -2q-12 0 -22.5 -13t-10.5 -28q-2 -76 -2 -149v-147q0 -18 13.5 -30.5t29.5 -10.5q129 12 254 17t254 5h86q45 0 88 -2q16 0 27.5 10.5t13.5 26.5q6 80 9 160t7 159l-36 41q-18 0 -37 1t-37 3 q-53 158 -109.5 314.5t-115.5 314.5q16 0 29.5 -1t25.5 -1q39 0 39 39v47v58q0 31 -2 61q-2 41 -2 78v80q0 16 -10.5 28.5t-26.5 12.5q-33 0 -67 1t-64 1q-94 0 -187.5 -5.5t-187.5 -11.5t-186.5 -11t-188.5 -5h-49q-23 0 -47 2q-18 2 -29.5 -10.5t-11.5 -28.5v-47v-57 q0 -27 -2 -56q-2 -41 -2 -82v-82q0 -16 11 -28.5t28 -12.5q4 0 10 -1t12 -1q8 -2 15 -2h14q-53 -152 -108.5 -303t-106.5 -303q-16 2 -31.5 3t-32.5 5q-20 4 -33.5 -8t-13.5 -31zM283.5 1859.5q-9.5 -24.5 11.5 -42.5q98 -86 201.5 -176.5t208.5 -170.5q59 6 121.5 9.5 t121.5 5.5l35 59q-47 86 -93 172t-93 172q-4 10 -16.5 16.5t-22.5 4.5q-111 -10 -218.5 -16.5t-217.5 -8.5q-29 0 -38.5 -24.5zM594 688q12 41 24.5 80t22.5 80q4 16 10 31.5t11 31.5q6 -18 12 -36.5t12 -34.5q12 -37 23.5 -71t21.5 -69l-33 -2q-27 -2 -52 -4t-52 -6z" />
<glyph unicode="&#xc1;" horiz-adv-x="1478" d="M-31 360q2 -82 5 -162.5t8 -162.5q0 -12 10 -23.5t24 -13.5q100 -16 204 -24.5t208 -8.5q29 0 58.5 1t58.5 3q16 2 26.5 12.5t10.5 26.5q-2 76 -3 149.5t-1 149.5q0 16 -11.5 27.5t-27.5 11.5q-14 0 -26.5 -1t-29.5 -1q4 8 5 16.5t6 16.5l18 59q139 4 276 19q4 0 8.5 1 t10.5 1q4 -12 5 -20.5t5 -18.5q4 -12 7 -25.5t7 -25.5q-18 -2 -43 -5l-26 -2q-12 -2 -22.5 -14t-10.5 -27q-2 -76 -2 -149v-147q0 -18 13.5 -30.5t29.5 -10.5q129 12 254 17t254 5h86q45 0 88 -2q16 0 27.5 10.5t13.5 26.5q6 80 9 160t7 159l-36 41q-18 0 -37 1t-37 3 q-53 158 -109.5 314.5t-115.5 314.5q16 0 29.5 -1t25.5 -1q16 0 27.5 11.5t11.5 27.5v47v60t-2 59q-2 41 -2 80v78q0 16 -10.5 28.5t-26.5 12.5q-33 2 -67 3t-64 1q-94 0 -187.5 -6.5t-187.5 -12.5t-186.5 -11t-188.5 -5h-49q-23 0 -47 2q-18 2 -29.5 -9.5t-11.5 -29.5v-47 v-57q0 -27 -2 -56q-2 -41 -2 -82v-82q0 -16 11 -28.5t28 -12.5h22q8 -2 15 -2h14q-53 -154 -108.5 -305t-106.5 -303q-16 2 -31.5 3t-32.5 5q-20 4 -33.5 -8t-13.5 -31zM494 1518l36 -58q59 4 124 8.5t124 10.5q23 18 48.5 41.5t45.5 44.5q78 72 153 142.5t153 137.5 q23 18 14.5 43t-37.5 27q-39 2 -77 3t-77 1q-72 0 -145.5 -3t-144.5 -11q-8 -2 -18.5 -8.5t-14.5 -14.5q-33 -68 -65.5 -133.5t-67.5 -130.5q-14 -25 -25.5 -50.5t-25.5 -49.5zM594 688q12 41 24.5 80t22.5 80q4 16 10 31.5t11 31.5q6 -18 12 -36.5t12 -34.5 q12 -37 23.5 -71t21.5 -69l-33 -2q-27 -2 -52 -4t-52 -6z" />
<glyph unicode="&#xc2;" horiz-adv-x="1478" d="M-31 358q2 -80 5 -161.5t8 -161.5q0 -12 10 -23.5t24 -13.5q100 -16 204 -24.5t208 -8.5q29 0 58.5 1t58.5 3q16 2 26.5 12.5t10.5 26.5q-2 74 -3 148.5t-1 148.5q0 16 -11.5 27.5t-27.5 11.5q-14 0 -26.5 -1t-29.5 -1q4 8 5 16.5t6 16.5l18 59q139 4 276 19q4 0 8.5 1 t10.5 1q4 -12 5 -20.5t5 -18.5q4 -12 7 -25.5t7 -25.5q-18 -2 -43 -5l-26 -2q-12 -2 -22.5 -14t-10.5 -27q-2 -74 -2 -147v-147q0 -18 13.5 -30.5t29.5 -10.5q129 12 254 17t254 5h86q45 0 88 -2q16 0 27.5 10.5t13.5 26.5q6 80 9 158.5t7 158.5l-36 41q-18 0 -37 1t-37 3 q-53 158 -109.5 314.5t-115.5 316.5q16 0 29.5 -1t25.5 -1q16 0 27.5 11.5t11.5 27.5v82t-2 82t-2 80v78q0 16 -10.5 28.5t-26.5 12.5q-33 2 -67 3t-64 1q-94 0 -187.5 -6.5t-187.5 -12.5t-186.5 -11t-188.5 -5h-49q-23 0 -47 2q-18 2 -29.5 -9.5t-11.5 -29.5v-47v-57 q0 -27 -2 -58q-2 -41 -2 -82v-82q0 -16 10 -27.5t27 -11.5q12 -2 26 -2h29q-10 -29 -18.5 -53t-18.5 -49q-47 -129 -93 -253t-87 -253q-16 2 -31.5 3t-32.5 5q-20 4 -33.5 -8t-13.5 -31zM268 1511l33 -59h51q57 0 122 2t122 6q35 31 74 65t73 68q10 -8 21.5 -16t26.5 -18h-3 q23 -16 49.5 -38t47.5 -38q41 2 86 2h88h57q29 0 58 -2q27 -2 38 16.5t-2 40.5l-106 178q-27 45 -51.5 90t-53.5 88q-4 6 -14 12.5t-18 6.5h-29q-66 0 -128 -4t-124 -10q-90 -10 -176 -13q-8 0 -18.5 -6t-14.5 -12q-33 -59 -65.5 -115.5t-67.5 -116.5v2q-18 -31 -37.5 -63.5 t-38.5 -65.5zM594 686q12 41 24.5 80t22.5 80q4 16 10 32.5t13 32.5q12 -33 22 -71l43 -142l-31 -2q-27 -2 -52 -4t-52 -6z" />
<glyph unicode="&#xc3;" horiz-adv-x="1478" d="M-31 360q2 -82 5 -162.5t8 -162.5q0 -12 10 -23.5t24 -13.5q100 -16 204 -24.5t208 -8.5q29 0 58.5 1t58.5 3q16 2 26.5 12.5t10.5 26.5q-2 76 -3 149.5t-1 149.5q0 16 -11.5 27.5t-27.5 11.5q-14 0 -26.5 -1t-29.5 -1q4 8 5 16.5t6 16.5l18 59q139 4 276 19q4 0 8.5 1 t10.5 1q4 -12 5 -20.5t5 -18.5q4 -12 7 -25.5t7 -25.5q-18 -2 -43 -5l-26 -2q-12 -2 -22.5 -14t-10.5 -27q-2 -76 -2 -149v-147q0 -18 13.5 -30.5t29.5 -10.5q129 12 254 17t254 5h86q45 0 88 -2q16 0 27.5 10.5t13.5 26.5q6 80 9 160t7 159l-36 41q-18 0 -37 1t-37 3 q-53 158 -109.5 314.5t-115.5 314.5q16 0 29.5 -1t25.5 -1q16 0 27.5 11.5t11.5 27.5q0 33 -1 64.5t-1 64.5v98t-2 97q0 35 -35 39q-39 4 -78 4h-78q-92 0 -185 -5.5t-186 -11.5q-94 -6 -186 -12t-186 -6h-41t-41 2q-45 4 -41 -41q2 -20 2 -39v-39v-41q0 -16 -2 -39 q-2 -41 -2 -82v-80q0 -16 11 -28.5t28 -12.5q4 0 10 -1t12 -1h29q-53 -154 -108.5 -305t-106.5 -303q-16 2 -31.5 3t-32.5 5q-20 4 -33.5 -8t-13.5 -31zM270 1497q-2 -16 10.5 -29.5t28.5 -13.5h27q29 0 61.5 1t61.5 3q16 2 33 2h34q12 0 22.5 9.5t14.5 19.5q4 23 17.5 42 t33.5 19h9q16 0 32.5 -5t34.5 -11q10 -4 29.5 -9t30.5 -9l2 -2l6 -3q31 -10 61.5 -17t65.5 -7h16q74 0 129 34.5t92 90t55.5 123t18.5 131.5v6q0 16 -11 27.5t-28 11.5h-37q-18 0 -36.5 2t-41.5 2h-41h-32q-14 0 -28.5 -2t-25 -13.5t-10.5 -23.5q-2 -20 -14 -35.5t-31 -15.5 q-25 -2 -53.5 9t-56.5 24q-72 31 -154 30h-16q-76 0 -131.5 -36.5t-93.5 -94t-58.5 -127t-26.5 -133.5zM594 688q12 41 24.5 80t22.5 80q4 16 10 32.5t13 32.5q12 -33 22 -71l43 -142l-31 -2q-27 -2 -52 -4t-52 -6z" />
<glyph unicode="&#xc4;" horiz-adv-x="1478" d="M-31 360q2 -82 5 -162.5t8 -162.5q0 -12 10 -23.5t24 -13.5q100 -16 204 -24.5t208 -8.5q29 0 58.5 1t58.5 3q16 2 26.5 12.5t10.5 26.5q-2 76 -3 149.5t-1 149.5q0 16 -11.5 27.5t-27.5 11.5q-14 0 -26.5 -1t-29.5 -1h-2q2 6 3 13.5t5 13.5q4 16 10.5 33.5t10.5 31.5 q68 0 138.5 5t139.5 14q4 0 8.5 1t10.5 1q4 -12 5 -20.5t5 -16.5q4 -14 7 -27.5t7 -25.5q-18 -2 -43 -5l-26 -2q-14 -4 -24.5 -16t-8.5 -27q2 -20 2 -36v-35v-35q0 -16 -2 -37q-2 -37 -2 -76v-75q0 -18 13.5 -30.5t29.5 -10.5q129 12 254 17t254 5h86q45 0 88 -2 q16 0 27.5 10.5t13.5 26.5q6 80 9 160t7 159l-36 41q-18 0 -37 1t-37 3q-53 158 -109.5 313.5t-113.5 311.5h53q16 0 27.5 11.5t11.5 27.5v47v60q0 31 -2 59q-2 41 -2 80v80q0 16 -10.5 27.5t-26.5 11.5q-35 2 -68 3t-65 1q-94 0 -189.5 -5.5t-189.5 -13.5 q-92 -6 -184.5 -11t-186.5 -5h-47q-23 0 -47 2q-16 2 -28.5 -11.5t-12.5 -29.5q-2 -80 -3 -161t-1 -163q0 -16 10 -26.5t27 -12.5q12 -2 26 -2h27q-55 -154 -109.5 -304t-105.5 -304q-16 2 -32.5 4t-33.5 6q-20 4 -32.5 -8t-12.5 -31zM219 1540q0 -16 11.5 -27.5t27.5 -11.5 h57q66 0 135.5 2t137.5 6q14 2 25.5 13.5t11.5 27.5v80t2 80q2 23 2 43v43v41q0 20 -2 41q-2 16 -14.5 27.5t-28.5 9.5q-80 -8 -160 -10t-158 -2l-39 -37q-4 -82 -6 -163t-2 -163zM594 688q12 41 25.5 80t23.5 80q4 16 9 32.5t12 32.5q6 -18 11 -36.5t11 -36.5 q10 -35 21.5 -70t21.5 -70l-31 -2q-27 -2 -52 -4t-52 -6zM850 1896q2 -41 2 -81v-80v-84q0 -41 2 -82q0 -16 12.5 -27.5t28.5 -9.5q29 2 53 2h56h73q37 0 74 -2q16 0 32.5 -1t33.5 -1q16 0 27 11t11 28q-2 82 -3 164t-5 163q0 14 -11 25.5t-26 11.5q-57 2 -113.5 4t-115.5 2 h-47q-25 0 -47 -2z" />
<glyph unicode="&#xc5;" horiz-adv-x="1478" d="M-31 358q4 -82 6 -161.5t7 -161.5q0 -12 10 -23.5t24 -13.5q109 -16 217.5 -24.5t219.5 -8.5h45q25 0 47 2q16 2 26.5 13.5t10.5 27.5q-2 39 -2 74v74v75q0 39 -2 76q0 16 -13.5 27.5t-29.5 9.5q-12 -2 -27 -2h-27l13 37q6 29 16 55q76 0 149.5 5t147.5 14q8 -35 18 -62 q2 -8 2 -14t2 -12q-18 -2 -43 -5l-26 -2q-12 -4 -22.5 -15t-10.5 -24v-299q0 -18 13.5 -30.5t29.5 -9.5q129 14 252 19t250 5h90t90 -2q16 0 27.5 10.5t13.5 26.5q6 80 9 160t7 159l-39 41h-20t-25 2q-8 0 -14 1t-12 1q-45 131 -92 260.5t-95 260.5q-10 27 -19 53.5 t-19 54.5q14 0 27 -1t26 -1q18 -2 29.5 9.5t11.5 29.5q0 82 -1 162t-3 162q0 14 -9.5 25.5t-25.5 13.5q-35 4 -72 4h-70q-94 0 -188 -6.5t-186 -12.5q-94 -8 -185.5 -13t-185.5 -5h-47q-23 0 -45 2q-18 2 -29.5 -9.5t-11.5 -29.5q0 -20 -1 -41t-1 -41v2q-2 -43 -2 -86v-86 v-72q0 -16 11 -27.5t28 -11.5q10 0 20 1t23 -3q2 0 4 -1t6 -1q-57 -152 -110.5 -302t-106.5 -304q-16 2 -32.5 4t-33.5 6q-20 4 -32.5 -9t-12.5 -32zM465 1694q0 -53 18.5 -106.5t65.5 -88.5q35 -33 78 -49t90 -16q6 0 13 1t13 1q53 6 101.5 27.5t87.5 62.5q35 37 57.5 87 t22.5 103v8q0 55 -21.5 106.5t-62.5 88.5q-33 31 -76 51.5t-92 20.5h-15q-6 0 -16 -4l4 2q-53 -4 -100 -29t-86 -66q-37 -39 -58.5 -93t-23.5 -107zM594 686q12 41 24.5 80t22.5 80q4 16 10 33.5t13 33.5q6 -18 11 -36.5t11 -36.5l43 -142l-31 -2q-27 -2 -52 -4t-52 -6z M676 1696v2q0 29 20.5 50t46.5 26q23 0 39.5 -16.5t16.5 -39.5v-6q0 -25 -18.5 -43t-43.5 -22h-2h-8q-20 0 -35.5 15t-15.5 34z" />
<glyph unicode="&#xc6;" horiz-adv-x="2160" d="M-25 350q4 -78 9.5 -158.5t15.5 -158.5q0 -12 10 -22.5t27 -12.5q133 -10 269 -16.5t272 -6.5q39 0 38 41q-8 80 -9 159t-1 159q0 16 -12 27.5t-29 11.5h-30h-39q10 16 18 32.5t18 34.5l17.5 35l19.5 39h123h101q51 0 102 2v-139h-12h-33q-15 0 -27 -2 q-16 -2 -26.5 -13.5t-10.5 -25.5q0 -82 2.5 -163t6.5 -161q0 -16 12 -26.5t29 -10.5q262 12 523 20.5t523 8.5h115q57 0 114 -2q35 0 43 33q12 102 20.5 206.5t12.5 213.5q0 16 -10 28.5t-27 12.5q-92 4 -182 6t-182 2q-14 0 -26.5 -10.5t-12.5 -24.5q-4 -16 -4 -35v-35h-60 h-51q-25 0 -49 -2q-20 0 -38.5 -1t-39.5 -1q2 37 2 74v74h99h67q35 0 70 -2q37 0 41 39q0 66 1 134t1 134q0 16 -11.5 27.5t-27.5 11.5h-64q-31 0 -61 2h2q-18 2 -39 2h-39h-37v4q0 29 -1 56.5t-1 54.5v10h29h82q43 0 84 -2h20t21 -2q2 -10 2 -19v-14q0 -10 1 -18.5t1 -16.5 q0 -16 11 -27.5t28 -11.5q176 0 358 -12q16 -2 28.5 11.5t12.5 29.5q-6 106 -14 211.5t-19 210.5q-4 31 -36 35q-137 12 -274.5 16t-276.5 4q-150 0 -299.5 -4t-298.5 -8q-147 -4 -295 -8.5t-295 -4.5q-16 0 -28.5 -10t-12.5 -26q-6 -80 -10 -159t-7 -159q-2 -16 10.5 -28.5 t28.5 -12.5h45q-78 -133 -150.5 -265t-143.5 -265q-10 -18 -20.5 -36.5t-20.5 -37.5l-50 4q-16 2 -30.5 -10t-12.5 -31zM737 848l43 80q14 29 29.5 57.5t30.5 56.5q10 0 18.5 1t18.5 1h18v-194q-35 -2 -68 -2h-67h-23z" />
<glyph unicode="&#xc7;" horiz-adv-x="1558" d="M27 690q0 -147 53 -288.5t162 -245.5q80 -78 180 -123t209 -58q-6 -6 -9.5 -15t-3.5 -13v-13v7l-18 -82q-4 -18 9.5 -32.5t31.5 -14.5q8 0 12 1t15 5h8v-2v-2q0 -16 -21.5 -20.5t-40.5 -4.5h-10q-10 2 -26 2h-13q-8 0 -18 -4q-6 -4 -13.5 -15.5t-7.5 -21.5v-12 q0 -12 -1 -23.5t-5 -25.5q0 -6 -1 -7t-2 -4.5t-2 -12.5t-1 -32l35 -39q31 -4 63.5 -8t67.5 -4q39 0 76 6q51 2 107.5 17.5t102.5 46.5t76.5 78t30.5 110v6q0 45 -19.5 84t-49.5 68q70 16 133 39.5t123 60.5q102 66 167.5 171.5t104.5 219.5q8 33 -23 48q-90 39 -179 75.5 t-179 65.5q-16 6 -30.5 -3t-18.5 -30q-4 -45 -19.5 -94t-42 -89t-64.5 -65.5t-89 -25.5h-17q-51 0 -84.5 27.5t-54 70.5t-29 94t-8.5 99q0 10 2 19t2 19v29q0 51 8.5 108.5t29 106.5t56 81t93.5 32h10q68 0 116 -49.5t64 -112.5q2 -12 14.5 -20.5t22.5 -8.5h35 q78 0 150.5 -5t148.5 -11q18 -2 30.5 10t12.5 29q-2 123 -5 244.5t-14 244.5q0 12 -9 23.5t-23 13.5q-78 10 -160 15.5t-166 5.5q-16 0 -27.5 -11.5t-11.5 -27.5v-15q-63 35 -136 53.5t-144 18.5h-25q-10 0 -25 -2q-141 -10 -273 -67.5t-237 -161.5q-100 -104 -153 -238.5 t-53 -277.5v-17z" />
<glyph unicode="&#xc8;" horiz-adv-x="1449" d="M39 1051q0 -14 11 -25.5t25.5 -13.5t26.5 -2t27 -2l16 -2v-93v-264t5 -262q-29 4 -52 8l-10 2q-18 0 -29.5 -12t-11.5 -29q4 -80 7 -160.5t7 -160.5q0 -10 9.5 -21.5t23.5 -15.5q82 -16 168 -24.5t176 -8.5q96 0 192.5 6t190.5 15h-4q100 8 195.5 15t193.5 7q37 0 71 -1 t71 -5l43 37q8 106 10 210.5t6 211.5q0 39 -39 43q-86 4 -175 6t-177 2q-20 0 -31.5 -13.5t-5.5 -33.5v-16v-15q0 -23 -4 -31q-10 -2 -23 -2h-20q-47 -4 -93 -7t-94 -7v143q59 6 118 9.5t118 7.5q14 0 25.5 11t11.5 28v137v-2q4 18 4 35v39v36t-4 35q0 16 -12.5 25.5 t-26.5 9.5q-59 -2 -117.5 -5t-116.5 -9v61v68q59 6 119 10t119 6v-69q0 -16 11.5 -27.5t27.5 -11.5h43q76 0 150.5 -4.5t152.5 -12.5q16 -2 29.5 10.5t13.5 30.5v94q0 55 -1 112.5t-1 115.5q-2 25 -2 49v55q0 12 -9 23.5t-26 15.5q-76 14 -154.5 18.5t-160.5 4.5 q-92 0 -186.5 -5.5t-188.5 -11.5t-186.5 -12t-188.5 -6q-55 0 -108.5 3t-112.5 9q-16 2 -29.5 -10t-13.5 -29v-84v2q-4 -41 -4 -84v-86v-71zM285.5 1855.5q-9.5 -24.5 13.5 -43.5q96 -86 200.5 -174t205.5 -168q59 6 122.5 10.5t122.5 6.5l33 59l-94 172q-23 41 -47.5 84 t-46.5 86q-4 10 -15.5 16.5t-23.5 4.5q-109 -12 -216.5 -19.5t-217.5 -9.5q-27 0 -36.5 -24.5z" />
<glyph unicode="&#xc9;" horiz-adv-x="1449" d="M39 1053q0 -14 11 -25.5t25.5 -13.5t26.5 -2t27 -2l16 -2v-93v-264t5 -262q-29 4 -52 8l-10 2q-18 0 -29.5 -12t-11.5 -29q4 -82 7 -161.5t7 -161.5q0 -10 9.5 -21.5t23.5 -15.5q82 -16 168 -24.5t176 -8.5q96 0 192.5 6t190.5 15h-4q100 8 195.5 15t193.5 7q37 0 71 -1 t71 -5l43 37q8 106 10 211.5t6 214.5q0 16 -10.5 27.5t-28.5 13.5q-86 4 -175 6t-177 2q-20 0 -31.5 -13.5t-5.5 -33.5v-16v-15q0 -23 -4 -30q-10 -2 -23 -3h-20q-47 -4 -93 -7t-94 -7v143q59 6 118 9.5t118 7.5q14 0 25.5 11t11.5 28v135v-2q4 18 4 35v39v36t-4 35 q0 16 -12.5 26.5t-26.5 10.5q-59 -2 -117.5 -5t-116.5 -9v61v68q59 6 119 9t119 5v-69q0 -16 11.5 -27.5t27.5 -11.5h43q76 0 150.5 -4.5t152.5 -12.5q16 -2 29.5 10.5t13.5 30.5v94q0 55 -1 113.5t-1 114.5q-2 25 -2 51v53q0 33 -35 39q-76 14 -154.5 19.5t-160.5 5.5 q-92 0 -186.5 -6.5t-188.5 -12.5t-186.5 -12t-188.5 -6q-55 0 -108.5 3t-112.5 9q-16 2 -29.5 -10t-13.5 -29v-80v2q-4 -41 -4 -86v-86v-71zM494 1518l36 -58q59 4 125 9.5t125 11.5q80 76 163 152.5t167 150.5q16 14 33.5 29.5t34.5 29.5q23 18 13.5 43t-38.5 27 q-49 2 -100.5 4t-102.5 2q-61 0 -121.5 -3t-119.5 -11q-8 -2 -18.5 -8.5t-10.5 -14.5q-35 -68 -68.5 -133.5t-68.5 -130.5q-12 -25 -24.5 -50.5t-24.5 -49.5z" />
<glyph unicode="&#xca;" horiz-adv-x="1449" d="M39 1051q0 -14 11 -25.5t25.5 -13.5t26.5 -2t27 -2l16 -2v-93v-262t5 -262q-29 4 -52 8l-10 2q-18 0 -29.5 -12t-11.5 -29q4 -82 7 -161.5t7 -161.5q0 -10 9.5 -21.5t23.5 -15.5q82 -16 168 -24.5t176 -8.5q96 0 192.5 6t190.5 15h-4q100 8 195.5 15t193.5 7q37 0 71 -1 t71 -5l43 37q8 106 10 211.5t6 214.5q0 16 -10.5 27.5t-28.5 13.5q-86 6 -175 7t-177 1q-20 0 -31.5 -13.5t-5.5 -33.5v-16v-15q0 -23 -4 -30q-10 -2 -23 -3h-20q-47 -4 -93 -7t-94 -7v143q59 6 118 9.5t118 7.5q12 0 23.5 11t11.5 28q2 70 2 137v137q0 16 -12.5 28.5 t-28.5 12.5q-53 -2 -107.5 -5t-107.5 -9l-17 -2v63v68q59 6 119 9t119 5v-69q0 -16 11.5 -27.5t27.5 -11.5h43q76 0 150.5 -4.5t152.5 -12.5q16 -2 29.5 10.5t13.5 30.5v92q0 55 -1 113.5t-1 114.5q-2 25 -2 51v53q0 33 -35 39q-76 14 -154.5 19.5t-160.5 5.5 q-92 0 -186.5 -6.5t-188.5 -12.5t-186.5 -12t-188.5 -6q-55 0 -108.5 3t-112.5 9q-16 2 -29.5 -10t-13.5 -29v-78v2q-4 -43 -4 -88v-86v-71zM270 1511l33 -59q23 0 42.5 1t39.5 1q47 0 98.5 1t116.5 7l14.5 14.5t18.5 14.5q29 27 56.5 50.5t53.5 51.5q14 -10 31 -22 t33 -24.5t40.5 -30t41.5 -31.5q23 2 51 2h51q47 0 91 -2t89 -6q25 -4 37.5 16.5t-2.5 42.5q-35 66 -73.5 130.5t-77.5 129.5l-58 100q-4 8 -14 14.5t-18 6.5h-29q-66 0 -125 -4t-121 -10q-45 -4 -89 -8.5t-93 -6.5q-4 0 -15.5 -5t-15.5 -13q-6 -14 -14 -28.5t-17 -26.5 q-43 -78 -86 -154t-90 -152z" />
<glyph unicode="&#xcb;" horiz-adv-x="1449" d="M39 1051q0 -16 10 -27.5t25 -11.5q14 -2 26 -2t27 -2l16 -2v-95q0 -131 1 -261t3 -263q-14 2 -27.5 4t-23.5 6q-20 8 -35.5 -4t-13.5 -35q4 -82 6 -161.5t6 -161.5q0 -10 10.5 -21.5t22.5 -15.5q162 -33 346 -33q94 0 190.5 6t190.5 15h-2q98 8 193.5 15t193.5 7 q70 0 144 -6l43 37q8 106 10 211.5t6 214.5q0 16 -10.5 27.5t-26.5 13.5q-88 6 -177 8t-177 2q-20 0 -31.5 -14.5t-7.5 -32.5q2 -10 2 -18v-15q-2 -10 -2 -18q0 -6 -2 -12q-10 -2 -23 -3h-20h2q-47 -4 -93 -7t-93 -7v143q59 6 116.5 9.5t114.5 7.5q16 0 26.5 11t10.5 28v67 q0 33 2 68v-2q2 18 2 35v39v36t-2 35t-14.5 27t-26.5 10q-47 -2 -96.5 -6t-98.5 -8h2q-10 -2 -19 -3t-17 -1v131q59 6 116.5 10t116.5 6v-69q0 -16 11.5 -27.5t27.5 -11.5h43q76 0 151.5 -4.5t153.5 -10.5q18 -2 30.5 9.5t12.5 29.5v92v113q0 59 -2 115q0 27 -1 52.5 t-1 51.5q0 14 -9 25.5t-24 13.5q-76 12 -152.5 17.5t-154.5 5.5q-94 0 -188.5 -6.5t-190.5 -12.5t-188 -11t-191 -5q-55 0 -110.5 3t-112.5 7q-18 2 -30.5 -9t-12.5 -30q0 -18 -1 -38.5t-1 -39.5v2q-2 -43 -2 -88v-86v-69zM221 1538q0 -16 10.5 -26.5t26.5 -12.5 q20 -2 39 -2h41q61 0 124.5 3t123.5 7q16 2 26.5 12.5t10.5 26.5q2 41 2 82v82v80q0 41 2 82q0 45 -43 41q-80 -10 -159 -12.5t-157 -2.5l-37 -36q-4 -82 -6 -162t-4 -162zM850 1815q2 -45 2 -89v-86v-71q0 -16 11 -27.5t28 -11.5q20 0 37.5 1t36.5 1q63 0 123.5 -3 t123.5 -7q16 -2 28.5 10t12.5 29q-2 82 -4 163.5t-6 163.5q-2 14 -12 25.5t-27 11.5q-10 0 -21.5 1t-21.5 1q-53 4 -105 7t-106 3q-16 0 -31.5 -1t-31.5 -1l-37 -39v-81z" />
<glyph unicode="&#xcc;" horiz-adv-x="856" d="M4 1864.5q-10 -23.5 10 -43.5q90 -94 184.5 -179.5t196.5 -160.5q4 -4 15.5 -7.5t15.5 -0.5q39 8 77 9t77 1h61q23 0 32 19.5t-1 39.5q-20 37 -38 74l-36 74q-27 51 -52.5 101t-51.5 99q-4 10 -16.5 16.5t-22.5 4.5q-80 -12 -160 -19.5t-158 -7.5h-47q-25 0 -47 2 q-29 2 -39 -21.5zM27 1049q0 -12 10 -24.5t22 -14.5q18 -4 39 -6.5t39 -2.5h10v-313q0 -156 3 -313q-20 4 -38 7t-34 9q-20 6 -33.5 -5t-13.5 -32q2 -82 3 -163.5t5 -163.5q0 -10 9 -20.5t20 -14.5q94 -27 188 -27q59 0 116.5 6t114.5 15q57 10 112.5 16t109.5 6q47 0 90 -6 q16 -2 28.5 9.5t12.5 27.5q2 41 3 81t3 81t2 80t2 79q0 16 -10.5 28.5t-26.5 12.5q-10 0 -20.5 1t-20.5 1t-21.5 1.5t-21.5 1.5v620q18 -2 37.5 -5t42.5 -7q18 -4 31.5 8t13.5 31v192q0 33 -1 64.5t-1 64.5q0 10 -9 21.5t-20 15.5q-51 16 -99 20.5t-95 4.5 q-59 0 -113.5 -5.5t-110 -11.5t-109.5 -12t-106 -6q-29 0 -58.5 3t-59.5 7q-18 4 -31.5 -9t-11.5 -32q2 -23 2 -41v-39v-39q0 -16 -2 -39q-2 -41 -2 -82v-81z" />
<glyph unicode="&#xcd;" horiz-adv-x="856" d="M3 1135q1 -41 1 -82q0 -12 8 -23.5t21 -15.5q39 -10 92 -13v-309q0 -156 2 -311q-25 4 -45.5 7t-26.5 7q-18 4 -33.5 -6t-13.5 -31q0 -80 2 -161.5t6 -161.5q0 -10 8.5 -20.5t18.5 -14.5q53 -18 106.5 -25.5t106.5 -7.5q57 0 112.5 5t110.5 14q57 8 112.5 14t108.5 6h37 q18 0 39 -4q16 -4 28.5 8.5t14.5 28.5q0 41 2 81t4 81t2 80t2 79q0 14 -10 26.5t-24 14.5q-23 2 -44.5 3.5t-43.5 1.5v620q10 0 19 -1t22 -3q10 -2 20 -2t20 -2q16 -4 29.5 8t13.5 31v192q0 35 -1 67t-1 64q0 12 -9 23.5t-21 15.5q-84 18 -174 19q-59 0 -115.5 -5.5 t-112.5 -13.5h2q-57 -6 -112.5 -12t-108.5 -6q-63 0 -131 12q-16 4 -30.5 -8t-12.5 -33q0 -23 1 -39t1 -39q0 -20 -1 -37.5t-1 -39.5q-2 -41 -1 -82zM180 1511l35 -57q59 0 119.5 7t122.5 18q92 92 183 178t196 158q20 14 16 38.5t-27 30.5q-66 18 -126 26.5t-121 8.5 q-102 0 -191 -18q-6 -2 -14 -9.5t-13 -11.5q-29 -59 -55 -114.5t-55 -114.5q-16 -35 -34.5 -70t-35.5 -70z" />
<glyph unicode="&#xce;" horiz-adv-x="860" d="M-27 1522l31 -62q80 -6 158 -6h61q33 0 62 2l30 31q29 27 57.5 52.5t57.5 53.5l35 -22q23 -20 51.5 -42t50.5 -42q72 -2 139.5 -6t133.5 -21q27 -6 41 15.5t2 44.5q-29 51 -56.5 102t-56.5 104q-23 41 -45.5 82t-44.5 84q-2 6 -12.5 13.5t-16.5 7.5q-16 2 -33 2h-30 q-53 0 -103.5 -5t-99.5 -12q-47 -6 -91 -11t-89 -5q-8 0 -17.5 -5t-13.5 -13q-49 -88 -98 -172t-103 -170zM9 1126q1 -41 1 -82q0 -14 9.5 -26t21.5 -14q18 -4 37 -5h41h14v-315q0 -156 2 -311q-18 4 -37.5 7t-38 7t-32 -8t-13.5 -31q0 -164 6 -323q0 -10 9.5 -20.5 t19.5 -14.5q49 -12 97.5 -17.5t95.5 -5.5q61 0 121.5 5t119.5 14q61 8 121 15t115 7q18 0 35.5 -1t36.5 -3q16 -2 27 9.5t13 27.5l7 160q2 41 2 80v81q0 12 -9.5 24.5t-21.5 14.5q-18 4 -37 5h-41h-14q2 156 3 311t1 313q20 -2 38.5 -4t41.5 -6q16 -4 29.5 8t13.5 31 q0 80 -1 160.5t-3 160.5q0 12 -8.5 23.5t-20.5 15.5q-43 10 -86 13.5t-90 3.5q-61 0 -120.5 -5.5t-117.5 -13.5q-59 -8 -116.5 -13t-112.5 -5q-29 0 -56.5 2t-56.5 6q-18 4 -31.5 -9.5t-11.5 -31.5q2 -20 2 -39v-39q0 -23 -1 -40t-1 -40q-4 -41 -3 -82z" />
<glyph unicode="&#xcf;" horiz-adv-x="868" d="M-70 1548q0 -16 10.5 -29.5t26.5 -13.5q94 -6 195 -6h61q33 0 62 4q14 0 24 11.5t10 27.5v80t3 80q2 23 2 43v43v41q0 20 -2 41q-2 16 -13.5 27.5t-27.5 9.5q-84 -6 -166 -6q-35 0 -69 1t-69 1l-36 -37l-7 -160q-2 -41 -2 -80q0 -37 -2 -78zM12 1042q0 -35 35 -38 q23 -4 44.5 -6.5t45.5 -2.5v-313q0 -154 2 -309q-18 2 -37.5 4t-42.5 6q-18 4 -30.5 -8.5t-12.5 -32.5q2 -41 2 -82q0 -39 2.5 -80t3.5 -80t1 -80q0 -14 8 -25t20 -15q80 -12 170 -13q68 0 132.5 5t130 13.5t130 14.5t127.5 6h27q14 0 29 -2q16 -2 28.5 9.5t12.5 27.5 q2 41 3 81t3 81t2 80q0 41 2 82q0 16 -10.5 28.5t-26.5 12.5q-23 0 -44 1t-44 1q2 156 3 310t1 310q10 0 20.5 -1t24.5 -1q10 0 20.5 -1t20.5 -1q16 0 27.5 11.5t11.5 27.5v162t-2 161q0 14 -10.5 25.5t-22.5 13.5q-35 6 -72.5 8.5t-76.5 2.5q-70 0 -134.5 -5.5 t-129.5 -13.5q-63 -8 -127 -12t-125 -4h-50q-25 0 -51 4q-16 0 -28.5 -11.5t-12.5 -29.5v-322zM541 1894q2 -41 2 -82v-79v-84q0 -41 2 -82q0 -16 10 -26.5t27 -10.5q14 0 27.5 1t25.5 1q66 0 130 -7t130 -20q18 -2 31.5 9.5t11.5 33.5q-2 27 -2 51q0 27 -2 54q-2 55 -2 108 q0 55 -4 109q0 12 -10.5 21.5t-20.5 13.5q-72 18 -142.5 24t-140.5 6h-36q-16 0 -26.5 -12t-10.5 -29z" />
<glyph unicode="&#xd0;" horiz-adv-x="1705" d="M35 563q0 -16 11 -27.5t28 -11.5h22t25 -2q6 -2 16 -2q0 -10 1 -23.5t1 -23.5q0 -23 -1 -44t1 -42q-4 0 -7 1t-7 1q-10 2 -20.5 3t-26.5 1t-27.5 -12t-11.5 -29q4 -80 8 -159.5t12 -159.5q2 -12 11.5 -22.5t23.5 -12.5q217 -25 447 -25q72 0 142.5 2t137.5 7q86 6 174 17 t172 34.5t162 63.5t144 106q96 96 147 219t51 254v31q0 141 -61.5 274t-167.5 229l2 -2q-111 106 -257.5 150.5t-295.5 44.5q-25 0 -49.5 -1t-46.5 -3q-139 -6 -274.5 -10.5t-274.5 -4.5q-37 0 -74 1t-74 1q-35 0 -39 -34q-8 -78 -12 -156l-8 -156q0 -16 11 -28.5t28 -12.5 h61v-67v-66q-4 0 -6 1t-4 1q-12 4 -26.5 3t-28.5 -1l-39 -39v-268zM743 479v37q18 0 37 1t35 3q29 4 54.5 6t48.5 2q16 0 27 11.5t11 27.5v273q0 16 -11 27.5t-27 11.5q-57 0 -109 -7q-16 -2 -32.5 -4t-33.5 -2v11v118q14 2 27 2h29q20 6 43 7q43 0 77.5 -23t57 -59.5 t35 -81.5t12.5 -88q0 -14 -1 -27.5t-3 -26.5q2 -10 2 -18v-18q0 -49 -15.5 -99.5t-44 -90.5t-69.5 -65.5t-92 -25.5h-10q-10 0 -20.5 -1t-20.5 -1h-2v14v29q0 14 -3 27v-3q-2 16 -2 33z" />
<glyph unicode="&#xd1;" horiz-adv-x="1667" d="M0 1051q0 -14 10 -25.5t25 -13.5q16 -2 31 -2q14 0 30 -2q4 -2 8 -2q6 0 15 -2q0 -154 1 -308.5t5 -310.5q-31 2 -68 12q-20 4 -33.5 -8t-13.5 -31q0 -51 2 -102t6 -100q2 -29 3.5 -61t3.5 -60q0 -12 9 -23.5t23 -13.5q104 -16 211 -24.5t215 -8.5q31 0 61.5 1t61.5 3 q39 4 39 39v82t-2 82t-2 80v80q0 16 -11.5 27.5t-27.5 11.5q-6 0 -15 -1t-16 -1q-14 -2 -26 -2h-25h-4q-2 82 -3 162.5t-1 162.5q39 -53 77 -106.5t79 -106.5q90 -123 178 -241.5t174 -243.5q4 -6 14 -12.5t19 -6.5q90 4 178 6.5t178 2.5h76q16 0 26.5 11t12.5 28 q25 442 24 886v111q4 0 8.5 -1t8.5 -1q16 -2 30 -2t29 -2q18 -2 30.5 10t12.5 29q0 29 -1 54.5t-1 51.5q0 53 -1 108.5t-3 108.5q0 33 -35 37q-111 12 -222.5 17.5t-221.5 5.5h-107q-16 0 -28.5 -12.5t-10.5 -30.5q2 -31 2 -60v-59v-205q0 -16 12.5 -28.5t28.5 -10.5 q20 0 38 1t36 1v-233q-59 84 -121 167t-121 169q-47 66 -95 131t-95 131q-4 6 -15.5 11t-17.5 5q-164 -12 -321 -12q-160 0 -320 12q-16 2 -28.5 -9t-12.5 -28q-2 -55 -3 -109.5t-1 -107.5q0 -27 -1 -53.5t-1 -54.5zM360 1497q-2 -16 10.5 -29.5t28.5 -13.5q35 0 69 1t67 3 q23 2 43 3t43 1q12 0 22 9.5t14 19.5q4 20 17.5 37.5t34.5 21.5h12q14 0 32.5 -6t37.5 -12q8 -4 15 -5t13 -5q41 -16 82 -26.5t86 -10.5h10q74 0 129.5 35.5t92 92t56 125t19.5 132.5l-39 39q-12 0 -22 1t-21 1q-25 2 -49 2h-51h-39q-18 0 -37 -2q-12 -2 -22 -12.5 t-13 -24.5q-2 -20 -14 -34.5t-33 -16.5q-20 0 -42.5 7t-49.5 17q-8 4 -20 8h2q-37 14 -75 22.5t-79 8.5h-16q-76 0 -132.5 -37t-94 -94t-59 -125.5t-28.5 -132.5z" />
<glyph unicode="&#xd2;" horiz-adv-x="1685" d="M35 702q0 -152 65.5 -291t169.5 -245q100 -102 231.5 -155.5t270.5 -53.5q20 0 38.5 1t37.5 3q152 10 297 68.5t264 163.5q111 96 176.5 230.5t65.5 281.5v28q0 147 -63.5 281.5t-170.5 232.5h4q-104 96 -234 149.5t-272 53.5q-18 0 -37.5 -1t-39.5 -3h4 q-160 -10 -308.5 -65.5t-271.5 -159.5q-106 -92 -166.5 -220.5t-60.5 -269.5v-29zM386 1855.5q-11 -24.5 11 -43.5q76 -72 162 -142.5t178 -141.5q16 -12 38 -29.5t38 -30.5q45 4 93 8.5t93 6.5h31q16 0 33 2l29 57q-23 43 -46.5 87t-48.5 87q-23 43 -47 85t-47 85 q-4 10 -16.5 16.5t-22.5 4.5q-111 -10 -219 -17.5t-221 -9.5q-27 0 -38 -24.5zM707 670v59q0 47 3 99.5t16 98.5t42 79.5t80 44.5q49 -4 75.5 -34t39 -73t15.5 -93t3 -95l-2 -41q0 -49 -4 -102.5t-10 -106.5v4q-10 -53 -40 -102.5t-87 -51.5q-4 -2 -13 -2q-35 0 -59.5 26 t-34.5 58l4 -2q-16 59 -22 118.5t-6 115.5z" />
<glyph unicode="&#xd3;" horiz-adv-x="1685" d="M35 702q0 -152 65.5 -291t169.5 -245q100 -102 231.5 -155.5t270.5 -53.5q20 0 38.5 1t37.5 3q152 10 297 68.5t264 163.5q111 98 176.5 231.5t65.5 280.5v28q0 147 -63.5 282.5t-170.5 233.5h4q-104 94 -234 147.5t-272 53.5q-18 0 -37.5 -1t-39.5 -3h4 q-160 -10 -308.5 -66.5t-271.5 -158.5q-106 -92 -166.5 -220.5t-60.5 -269.5v-29zM598 1518l35 -60q47 2 92 5t92 7q14 2 33.5 3.5t34.5 3.5q72 70 151.5 138t153.5 136q25 23 49.5 46.5t50.5 45.5q20 20 11 44t-37 26q-37 2 -77 3t-77 1q-74 0 -147.5 -3t-147.5 -11 q-8 -2 -17.5 -8.5t-13.5 -12.5q-47 -94 -91 -183t-95 -181zM707 670v59q0 47 3 99.5t16 98.5t42 80.5t80 45.5q49 -4 75.5 -34t39 -74t15.5 -94t3 -93v-43q0 -49 -5 -102.5t-11 -106.5v4q-10 -53 -40 -102.5t-87 -51.5q-4 -2 -13 -2q-35 0 -59.5 26t-34.5 58l4 -2 q-16 59 -22 118.5t-6 115.5z" />
<glyph unicode="&#xd4;" horiz-adv-x="1685" d="M35 709q0 -154 62.5 -297.5t172.5 -247.5v2q98 -104 230.5 -156.5t271.5 -52.5q20 0 38.5 1t37.5 3q152 10 297 68.5t264 163.5q111 98 176.5 231.5t65.5 280.5v24q0 147 -62.5 282.5t-171.5 235.5l4 -2q-104 100 -237 153.5t-275 53.5q-20 0 -36.5 -1t-34.5 -3 q-154 -14 -302.5 -68.5t-273.5 -158.5q-104 -90 -165.5 -219.5t-61.5 -270.5v-22zM371 1509l35 -59q16 0 30.5 1t30.5 1q55 2 119.5 4t120.5 6l143 133q14 -10 25.5 -21t27.5 -22q20 -16 45 -35.5t47 -33.5q39 2 84 2h86h58q31 0 59 -2q27 -2 38 17.5t-3 41.5 q-29 45 -55.5 92t-55.5 95l-46 86t-52 83q-4 6 -15.5 12.5t-17.5 6.5h-31q-63 0 -121.5 -4t-119.5 -10q-92 -8 -193 -13q-8 0 -18 -6t-14 -14q-41 -76 -82 -148.5t-86 -146.5q-10 -16 -19.5 -32.5t-19.5 -33.5zM709 668v24q0 100 12 209v-2q8 51 37.5 101.5t85.5 52.5 q4 0 8 1t8 1q33 0 58.5 -24.5t35.5 -55.5q14 -55 20.5 -115t6.5 -119v-61q0 -47 -3 -100.5t-17.5 -99.5t-43 -79.5t-79.5 -44.5q-47 4 -73 32t-38 69t-14 89t-2 93q-2 16 -2 29z" />
<glyph unicode="&#xd5;" horiz-adv-x="1685" d="M35 711q0 -154 63.5 -295.5t171.5 -249.5q100 -102 231.5 -155.5t270.5 -53.5q20 0 38.5 1t37.5 3q152 10 297 68.5t264 163.5q111 96 176.5 230.5t65.5 281.5v28q0 150 -62.5 283t-169.5 231q-104 100 -236 153.5t-274 53.5q-20 0 -36.5 -1t-34.5 -3 q-154 -14 -303.5 -68.5t-272.5 -158.5q-106 -92 -166.5 -220.5t-60.5 -269.5v-22zM373 1497q0 -16 11 -29.5t30 -13.5h32q37 0 74 2t72 4q8 0 19.5 1t21.5 1t21.5 8.5t15.5 18.5q8 20 20 40.5t31 20.5h8q14 0 28.5 -4t33.5 -10l-5 2q10 -4 24.5 -8t29.5 -8l8 -3t18 -8 q31 -10 63 -17t66 -7h15q76 0 131 36t92 92t54.5 124.5t17.5 132.5l-37 39q-39 2 -78 2h-76h-63q-14 0 -25.5 -10.5t-11.5 -24.5q-4 -23 -15.5 -38t-31.5 -15q-25 0 -52.5 10t-58.5 23q-72 31 -154 30h-18q-78 0 -133 -36.5t-93 -94t-58.5 -127t-26.5 -133.5zM707 672v59 q0 47 3 99.5t16 98.5t42 79.5t78 44.5q49 -4 76.5 -34t40 -73t15.5 -93t3 -95l-2 -41q0 -49 -4 -102.5t-10 -106.5v4q-4 -27 -14.5 -53.5t-26 -49t-37 -38t-49.5 -15.5q-4 -2 -13 -2q-33 0 -59.5 27t-36.5 59l4 -4q-14 59 -20 119.5t-6 116.5z" />
<glyph unicode="&#xd6;" horiz-adv-x="1685" d="M35 707q0 -154 62.5 -296.5t172.5 -246.5v2q98 -104 230.5 -156.5t271.5 -52.5q20 0 38.5 1t37.5 3q154 12 299 69.5t262 162.5q111 98 176.5 231.5t65.5 280.5v24q0 150 -62.5 286t-171.5 236l4 -2q-104 98 -237 151.5t-275 53.5q-23 0 -38 -1t-33 -3 q-154 -14 -303.5 -68.5t-272.5 -160.5q-104 -92 -165.5 -221.5t-61.5 -270.5v-22zM322 1542q-2 -16 10 -28.5t28 -12.5q84 0 166 3t166 7q14 2 24.5 11.5t10.5 25.5q2 47 2 97v100q0 33 2 64.5t2 64.5q0 18 -12 29.5t-31 9.5q-78 -4 -159.5 -7t-161.5 -5l-39 -39v-80 q0 -37 -4 -78q0 -41 -2 -81t-2 -81zM709 666v24v37q0 47 3 99.5t16 98.5t41 80.5t79 45.5q49 -4 75.5 -34t39 -73t15.5 -93t3 -93h-2v-78q0 -47 -3 -100.5t-17.5 -99.5t-42 -79.5t-78.5 -44.5q-47 4 -73 32t-38 69t-14 89t-2 91q-2 16 -2 29zM956 1896q0 -82 2.5 -162.5 t2.5 -162.5q0 -16 12 -27.5t28 -11.5q41 2 81 3t81 1t81 -1t81 -3q16 0 28.5 11t12.5 28q0 61 -2 121.5t-6 119.5q0 23 1 42.5t-3 41.5q0 12 -10.5 23.5t-26.5 13.5q-43 4 -90 4h-90h-74t-72 -2z" />
<glyph unicode="&#xd7;" horiz-adv-x="1273" d="M68 381q0 -16 10 -27q104 -121 219 -231q29 -29 53 0q74 72 146.5 143.5t142.5 149.5q72 -68 140.5 -135.5t135.5 -139.5q10 -10 26.5 -11t29.5 9q23 23 47 46.5t47 45.5q31 31 62.5 61t66.5 58q29 25 2 56q-14 12 -26.5 25t-26.5 28q-59 59 -114.5 118.5t-115.5 118.5 l95 95q47 43 92 86t94 88q12 12 12 28t-10 27q-25 25 -48.5 49.5t-47.5 48.5q-33 35 -63.5 67t-65.5 64q-25 25 -53 0q-29 -31 -59 -60.5t-58 -58.5q-41 -43 -84 -84.5t-84 -87.5q-72 68 -142.5 134.5t-140.5 138.5q-25 29 -53 0q-31 -31 -63.5 -62.5t-65.5 -62.5 q-23 -23 -44.5 -43.5t-43.5 -42.5q-10 -10 -11 -24.5t9 -26.5q72 -78 141.5 -153t138.5 -140q-18 -18 -36.5 -36t-34.5 -34q-53 -51 -103.5 -100t-103.5 -98q-12 -10 -12 -27z" />
<glyph unicode="&#xd8;" horiz-adv-x="1685" d="M33 688q0 -139 56 -267t153 -228q-12 -16 -13 -23q-10 -10 -19 -22l-9 -13q-12 -10 -13 -29q0 -18 13 -28q16 -16 43.5 -35.5t54.5 -40.5q10 -10 22.5 -18.5t24.5 -18.5q10 -10 24.5 -8t24.5 12q23 20 36 37t28 31q76 -39 159.5 -56.5t167.5 -17.5h31q16 0 31 2h-4 q156 10 302 64.5t263 158.5v-2q115 92 179.5 227.5t64.5 280.5v19q0 141 -60.5 271t-162.5 228q14 12 20 27q14 20 16 21q2 0 9 8q10 12 9 28.5t-18 26.5q-41 35 -88 70q-12 10 -26.5 20t-28.5 21l-47 -4q-16 -14 -26.5 -27.5t-22.5 -26.5q-2 -4 -4 -6t-2 -6 q-78 41 -159 57.5t-167 16.5h-31q-14 0 -28 -2h4q-156 -6 -302.5 -62.5t-269.5 -161.5q-104 -92 -169.5 -221t-65.5 -272v-31zM707 733q2 47 5 98.5t17 95.5t42 76.5t79 40.5h-2h8q20 0 39.5 -9t32.5 -25q-29 -35 -56.5 -70t-56.5 -68q-29 -35 -54.5 -69.5t-53.5 -69.5z M752 393q59 72 115.5 141.5t115.5 141.5q-4 -45 -8 -87t-10 -87q-4 -25 -13.5 -50.5t-25 -47t-38 -36t-50.5 -14.5q-4 -2 -11 -2q-49 0 -75 41z" />
<glyph unicode="&#xd9;" horiz-adv-x="1411" d="M-6 1053q0 -14 11 -25.5t25.5 -13.5t26.5 -2t27 -2q4 -2 14 -2v-88v-371v-10q0 -111 34 -221.5t105.5 -196.5t176 -126t213.5 -40q47 0 84 6q106 0 212.5 38t191.5 107.5t138.5 165t53.5 211.5v25q0 10 -4 20q4 125 4 246v246q18 -2 33.5 -3t33.5 -3q16 -2 29.5 10 t13.5 29v80q0 41 -4 81v158q0 16 -10 26.5t-27 12.5q-92 10 -185 17.5t-192 7.5q-35 0 -67.5 -1t-65.5 -3q-16 0 -26.5 -11.5t-10.5 -27.5v-326q0 -16 13.5 -28.5t29.5 -10.5q6 0 13.5 1t13.5 1v-467v-31q0 -27 -5 -56.5t-16.5 -54t-31 -40.5t-47.5 -16h-11q-25 0 -42 14 t-27 36.5t-15.5 49.5t-5.5 51q0 8 2 14.5t2 12.5v256q0 53 -2 108.5t-2 108.5h4q10 2 17 2h10q16 0 27.5 11t11.5 28v327q0 16 -13.5 28.5t-29.5 10.5q-106 -10 -210.5 -17t-209.5 -7q-129 0 -264 12q-16 2 -28.5 -10t-12.5 -29q-2 -80 -4 -159.5t-2 -159.5zM251 1855.5 q-9 -24.5 13 -43.5q94 -88 199.5 -175t208.5 -167q59 6 122.5 10.5t123.5 6.5l32 57q-18 33 -34.5 63.5t-34.5 61.5q-29 53 -59.5 107.5t-59.5 109.5q-4 10 -15.5 17.5t-21.5 5.5q-111 -12 -218.5 -18.5t-219.5 -10.5q-27 0 -36 -24.5z" />
<glyph unicode="&#xda;" horiz-adv-x="1411" d="M-6 1055q0 -16 11 -27.5t25.5 -13.5t26.5 -2t27 -2q4 -2 14 -2v-88v-371v-10q0 -111 34 -221.5t105.5 -196.5t176 -126t213.5 -40q47 0 84 6q106 0 212.5 38t191.5 107.5t138.5 165t53.5 211.5v25q0 10 -4 20q4 125 4 246v246q18 -2 33.5 -3t33.5 -3q16 -2 29.5 10 t13.5 31v78q0 41 -4 81v158q0 16 -10 26.5t-27 12.5q-92 10 -185 17.5t-192 7.5q-35 0 -67.5 -1t-65.5 -3q-16 0 -26.5 -11.5t-10.5 -27.5v-326q0 -16 13.5 -28.5t29.5 -10.5q6 0 13.5 1t13.5 1v-467v-31q0 -27 -5 -56.5t-16.5 -54t-31 -40.5t-47.5 -16h-11q-25 0 -42 14 t-27 36.5t-15.5 49.5t-5.5 51q0 8 2 14.5t2 12.5v256q0 53 -2 108.5t-2 108.5h4q10 2 17 2h10q16 0 27.5 11t11.5 28v327q0 16 -13.5 28.5t-29.5 10.5q-106 -10 -210.5 -17t-209.5 -7q-129 0 -264 12q-16 2 -28.5 -9t-12.5 -30q-2 -80 -4 -159.5t-2 -157.5zM461 1516l37 -58 q59 4 124.5 8t125.5 13q76 74 156.5 148.5t162.5 146.5q18 16 37.5 34.5t42.5 34.5q23 18 12.5 43t-39.5 27q-41 2 -86 3t-90 1q-139 0 -268 -12q-8 0 -17.5 -8.5t-13.5 -14.5q-35 -72 -70.5 -143.5t-72.5 -143.5q-10 -20 -20.5 -38.5t-20.5 -40.5z" />
<glyph unicode="&#xdb;" horiz-adv-x="1411" d="M-6 1053q0 -16 11 -27.5t25.5 -13.5t26.5 -2t27 -2q4 -2 14 -2v-88v-369v-10q0 -111 34 -221.5t105.5 -196.5t176 -126t213.5 -40q47 0 84 6q106 0 212.5 38t191.5 107.5t138.5 165t53.5 211.5v25q0 10 -4 20q4 125 4 246v246q18 -2 33.5 -3t33.5 -3q16 -2 29.5 10 t13.5 31v78q0 41 -4 81v158q0 16 -10 26.5t-27 12.5q-92 10 -185 17.5t-192 7.5q-35 0 -67.5 -1t-65.5 -3q-16 0 -26.5 -11.5t-10.5 -27.5v-328q0 -18 14.5 -30.5t30.5 -8.5q6 0 12.5 1t12.5 1v-491q0 -29 -5 -58.5t-17.5 -55.5t-32 -42t-47.5 -16h-11q-25 0 -41 14 t-26 37.5t-14.5 50.5t-4.5 51v281v217q10 2 17 2h12q16 0 27.5 11t11.5 28v327q0 16 -13.5 28.5t-29.5 10.5q-106 -10 -210.5 -17t-209.5 -7q-129 0 -264 12q-16 2 -29.5 -9t-13.5 -30v-78v2q-4 -43 -4 -88v-86v-69zM238 1509l32 -59h52q57 0 121.5 2t121.5 6 q10 10 24.5 23.5t24.5 21.5q25 23 48.5 46.5t48.5 45.5q35 -27 66.5 -53t64.5 -53q4 -4 14 -6t14 -2q61 6 119 6q18 0 36.5 -1t35.5 -1q20 0 40.5 -1t41.5 -1q25 0 35 19.5t-4 41.5q-35 55 -67 111.5t-67 113.5q-18 33 -35.5 65t-37.5 64q-4 8 -14.5 14.5t-18.5 6.5 q-78 -2 -155 -8t-154 -10l-150 -11q-6 0 -16 -7t-15 -13q-49 -92 -101 -180t-105 -181z" />
<glyph unicode="&#xdc;" horiz-adv-x="1411" d="M-6 1053q0 -16 11 -26.5t25.5 -12.5t26.5 -2t27 -2q4 -2 14 -2v-88v-373v-10q0 -111 33 -220.5t107 -195.5q72 -86 176 -126t213 -40q47 0 84 6q104 0 210.5 38t192.5 106.5t139.5 165t53.5 210.5v25q0 12 -4 22q4 125 4 246v246h14q12 -2 25 -2q14 0 28 -2q16 -2 29.5 9 t13.5 30q0 80 -2 158.5t-2 158.5q-2 14 -11 26.5t-24 14.5q-90 10 -182 16.5t-186 6.5q-35 0 -72 -1t-72 -3q-16 0 -26.5 -11.5t-10.5 -27.5v-326q0 -18 13.5 -30.5t29.5 -10.5l21 2h6v-491q0 -29 -5 -58.5t-17.5 -55.5t-32 -42t-47.5 -16h-11q-25 0 -42 15t-26 38.5 t-13.5 51.5t-4.5 52v275v221h29q16 0 27.5 12t11.5 29v325q0 18 -12.5 29.5t-30.5 9.5q-104 -10 -209.5 -16t-210.5 -6q-129 0 -264 12q-16 2 -29.5 -10t-13.5 -31v-78v2q-4 -43 -4 -88v-86v-69zM188 1542q-2 -16 10.5 -27.5t28.5 -11.5h74q63 0 127 2t127 8q33 4 33 37 q2 47 2 97v100q0 33 2 64.5t2 64.5q0 18 -13.5 29.5t-31.5 9.5q-80 -8 -159 -10t-157 -2l-38 -39q0 -78 -3.5 -160t-3.5 -162zM817 1829q0 -35 4 -70v-131v-53q0 -16 11.5 -28.5t31.5 -10.5q23 2 43 2h45q59 0 115.5 -2t116.5 -6q16 -2 28.5 10t12.5 29q-2 82 -4 162.5 t-9 162.5q0 14 -10 24.5t-26 12.5q-59 4 -122 6t-122 2h-74q-18 0 -29.5 -11t-11.5 -27v-72z" />
<glyph unicode="&#xdd;" horiz-adv-x="1413" d="M-27 1051q0 -16 11.5 -27.5t27.5 -11.5q8 0 18.5 -1t20.5 -3q6 -2 12 -2h15q78 -121 159.5 -239t168.5 -235v-49q0 -25 2 -47q2 -14 2 -26v-25v-16h-72q-39 0 -39 -39q0 -53 1 -108.5t3 -108.5q0 -29 1 -55.5t1 -51.5q0 -35 35 -39q18 -2 37 -2h41q86 0 168 6t164 13 q82 8 160.5 13t156.5 5q16 0 27.5 10.5t11.5 26.5q4 82 6 164l4 164q0 16 -11 27.5t-28 11.5h-39q-16 0 -32 -3v31q0 16 2 33v-2q2 14 2 29v28v23q0 12 -2 22q80 117 158.5 229.5t164.5 223.5q20 -4 37 -4q6 0 15.5 -1t17.5 -1q16 0 27.5 11t11.5 28q0 80 -1 160.5t-3 160.5 q0 12 -11.5 24.5t-23.5 14.5q-96 12 -191.5 17.5t-193.5 5.5h-72t-72 -2q-16 0 -26 -12.5t-10 -28.5v-326q0 -16 11 -27.5t27 -11.5h13q-4 -4 -5 -10t-5 -10q-23 -37 -44.5 -74t-46.5 -72l-6 17l-75 135q6 0 22 4q14 2 23.5 14t9.5 25v329q0 16 -12.5 28.5t-30.5 10.5 q-106 -10 -211 -16t-211 -6q-70 0 -137.5 2t-139.5 8q-16 2 -28.5 -10t-12.5 -29q0 -23 -1 -42t-1 -40q-2 -41 -2 -84v-86v-71zM459 1520l33 -60q59 2 124.5 7.5t124.5 11.5q96 92 197.5 184t202.5 178q20 18 12 43t-37 27q-41 4 -84 4h-86q-68 0 -137.5 -3t-134.5 -9 q-8 0 -18.5 -8.5t-14.5 -14.5q-10 -18 -19.5 -37.5t-19.5 -40.5q-35 -72 -68.5 -142.5t-74.5 -139.5z" />
<glyph unicode="&#xde;" horiz-adv-x="1603" d="M8 211q2 -29 3 -59.5t5 -59.5v-29q0 -14 4 -28q0 -12 10.5 -22.5t24.5 -12.5q111 -14 223.5 -19.5t227.5 -5.5q82 0 164 3.5t164 7.5q16 2 26 13t10 26v88q0 43 2 88q0 16 -11 28.5t-27 12.5h-3q41 4 85.5 6t87.5 2h12q94 0 196.5 24.5t187.5 76.5t140 133t55 194v10 q0 8 1 15.5t1 15.5q0 94 -43 174t-111.5 139.5t-156.5 93t-178 33.5h-29q-14 0 -24 -2q-53 0 -106.5 -2t-106.5 -6q29 10 28 41q-2 35 -2 65v66v45q0 16 -12 28.5t-29 10.5q-137 -10 -272 -15.5t-272 -5.5q-55 0 -109.5 1t-112.5 4q-16 0 -27 -9.5t-14 -25.5q-4 -43 -8 -88 t-4 -88q-2 -16 8.5 -27.5t26.5 -13.5q20 -2 41 -2h39h10q-6 -113 -8 -223.5t-2 -223.5t2 -223.5t8 -222.5q-4 0 -6 1t-6 1q-16 2 -32.5 3t-35 5t-33 -9.5t-12.5 -31.5zM731 606v164q25 2 49 3t51 5h13q20 4 26 4q35 0 67 -17t32 -50v-21q0 -20 -11.5 -35.5t-30 -24.5 t-41 -14.5t-42.5 -5.5h-6q-20 0 -39 -1t-37 -3q-8 -2 -17 -2q-6 0 -14 -2z" />
<glyph unicode="&#xdf;" d="M6 326q4 -72 8 -146t11 -145q0 -12 10 -23.5t24 -13.5q211 -25 435 -25q59 0 117.5 2t117.5 7q14 0 25.5 11t11.5 25v295q0 16 -12.5 27.5t-28.5 11.5h-33v588q-4 10 -4 21q0 27 7 54t21.5 49.5t35 37t49.5 14.5h8q6 2 14 2q35 0 62.5 -27.5t27.5 -64.5v-16 q0 -41 -34.5 -68t-75.5 -27h-4q-16 0 -27.5 -11t-11.5 -27v-56t4 -55v-76v-33q0 -16 12 -27.5t29 -11.5q6 0 11 1.5t11 1.5q53 0 88 -31q43 -55 43 -123v-18v-23q0 -41 -21.5 -79t-62.5 -38h-12q-12 2 -20 2h-13q-16 0 -27 -10t-11 -27v-225q0 -12 9 -22.5t19 -14.5 q51 -18 102.5 -24t104.5 -6h29q92 0 183 32.5t161 102.5q63 63 99 147t36 176v15q0 104 -60.5 192t-152.5 139q66 35 114 96.5t48 139.5v22q-12 109 -70.5 184t-141.5 122t-182.5 67.5t-191.5 20.5h-37q-16 0 -33 -2q-129 -10 -259 -41t-246 -99q-55 -33 -93.5 -79t-63 -101 t-35.5 -115.5t-11 -119.5v-7q0 -43 -2 -88t-2 -88q0 -76 4 -150.5t4 -150.5v-39l-74 9q-16 2 -29.5 -10.5t-13.5 -30.5z" />
<glyph unicode="&#xe0;" horiz-adv-x="1454" d="M8 719q8 -17 29 -21q92 -20 189.5 -31.5t195.5 -21.5q10 -2 21.5 5t15.5 16q23 37 68.5 56t93.5 21q10 2 22 2q43 0 80 -27.5t37 -70.5v-37q-49 10 -98.5 14.5t-98.5 4.5h-57q-90 0 -182.5 -16.5t-169.5 -69.5l2 2q-61 -35 -98.5 -97.5t-37.5 -134.5v-6q0 -80 39 -144.5 t99.5 -109.5t135.5 -69.5t146 -24.5h49q70 0 138.5 15.5t128.5 52.5q0 -16 12.5 -28.5t30.5 -10.5q109 10 214 13t212 3h82q43 0 84 -2q16 0 27.5 10.5t13.5 26.5q4 72 8 143.5t6 143.5q0 16 -9.5 27.5t-25.5 13.5q-14 2 -31 2h-34h-23q0 18 1 34.5t1 34.5q2 53 3 107.5 t1 107.5v15q0 47 -13 94t-40 88t-63.5 72.5t-82.5 50.5l3 -2q-80 35 -165 48t-169 13h-58q-27 0 -55 -4q-18 -2 -34.5 -3t-33.5 -3q-100 -6 -199.5 -19.5t-197.5 -48.5q-70 -27 -127 -79t-86 -123q-8 -16 0 -33zM261 1447q-9 -26 13 -44q94 -88 201 -175t209 -169 q59 4 121.5 8t122.5 6l35 57q-23 43 -46.5 87.5t-46.5 85.5l-94 170q-4 8 -15 13t-22 5q-100 -8 -199.5 -13t-201.5 -5h-39q-29 0 -38 -26zM555 326v10q0 37 33 64.5t71 27.5h21q41 0 78 -14v-127q-47 -35 -115 -45h-4q-35 0 -59.5 24.5t-24.5 59.5z" />
<glyph unicode="&#xe1;" horiz-adv-x="1454" d="M8 719q8 -17 29 -21q92 -18 189.5 -30.5t195.5 -22.5q10 -2 21.5 5t15.5 16q23 37 68.5 56t93.5 21q10 2 22 2q43 0 80 -27.5t37 -70.5v-37q-49 10 -98.5 14.5t-98.5 4.5h-57q-90 0 -182.5 -16.5t-169.5 -69.5l2 2q-61 -35 -98.5 -97.5t-37.5 -134.5v-6q0 -80 39 -144.5 t99.5 -109.5t135.5 -69.5t146 -24.5h49q70 0 138.5 15.5t128.5 52.5q0 -16 12.5 -28.5t30.5 -10.5q109 10 214 13t212 3h82q43 0 84 -2q16 0 27.5 10.5t13.5 26.5q4 72 8 144.5t6 144.5q0 14 -9.5 26.5t-25.5 12.5q-14 2 -31 2h-34h-23q0 18 1 34.5t1 34.5q2 53 3 107.5 t1 107.5v15q0 47 -13 94t-40 88t-63.5 72.5t-82.5 50.5l3 -2q-80 35 -165 48t-169 13h-58q-27 0 -55 -4q-18 -2 -34.5 -3t-33.5 -3q-100 -6 -199.5 -19.5t-197.5 -48.5q-70 -27 -127 -79t-86 -123q-8 -16 0 -33zM473 1106l35 -53q57 2 124.5 6t127.5 8q96 92 196.5 183 t200.5 177q20 16 12 41t-36 27q-35 2 -72 3t-72 1q-74 0 -148.5 -4t-150.5 -8q-8 0 -18 -6t-15 -15q-23 -47 -47 -93t-49 -91q-23 -43 -45 -87t-43 -89zM555 326v10q0 37 33 64.5t71 27.5h21q41 0 78 -14v-127q-47 -35 -115 -45h-4q-35 0 -59.5 24.5t-24.5 59.5z" />
<glyph unicode="&#xe2;" horiz-adv-x="1454" d="M6 754q-6 -18 2 -35t31 -21q90 -18 188.5 -30.5t196.5 -22.5q10 -2 20.5 5t16.5 16q23 37 68.5 56t93.5 21q10 2 22 2q43 0 80 -27.5t37 -70.5v-39q-53 12 -104.5 16.5t-104.5 4.5h-47q-90 0 -182.5 -16.5t-169.5 -69.5h4q-61 -35 -99.5 -95.5t-38.5 -130.5v-10 q0 -80 39 -144.5t100.5 -109.5t136.5 -69.5t146 -24.5h50q70 0 138 15.5t128 52.5q0 -16 12.5 -28.5t30.5 -10.5q109 10 214 13t212 3h82t84 -2q14 0 26.5 10.5t12.5 26.5q6 72 10 144.5t4 144.5q2 14 -8.5 26.5t-26.5 12.5q-14 2 -31 2h-34h-23q0 18 1 34.5t1 34.5 q2 53 4 106.5t2 106.5v15q0 47 -13 94t-40 89t-63.5 74.5t-84.5 51.5l5 -2q-78 37 -161 48t-167 11q-29 0 -59.5 -1t-59.5 -3l-70 -4q-100 -8 -199.5 -21.5t-197.5 -48.5q-72 -27 -129 -78t-86 -122zM248 1106l28 -57q14 -2 29 -2h31q29 0 59.5 1t59.5 3q27 2 59 2h59 q35 29 74 62.5t76 68.5q12 -10 24.5 -21.5t28.5 -21.5q18 -16 44 -36t46 -36q25 2 56 2h57h178q23 0 33 18.5t-2 40.5q-33 59 -69 117t-70 117l-70 117q-4 6 -15.5 12t-19.5 6h-29q-59 0 -118.5 -4t-118.5 -8q-47 -4 -94 -5t-97 -3q-6 0 -17 -6.5t-15 -14.5 q-55 -102 -115 -196q-23 -37 -46.5 -76t-45.5 -80zM555 326v10q0 39 35 64.5t74 25.5h22q37 0 74 -12v-127q-51 -35 -117 -45h2h-6q-35 0 -59.5 24.5t-24.5 59.5z" />
<glyph unicode="&#xe3;" horiz-adv-x="1454" d="M6 750q-6 -16 2 -33t31 -21q90 -18 188.5 -30.5t196.5 -22.5q10 -2 20.5 5t16.5 16q23 37 68.5 56t93.5 21q10 2 20 2q41 0 80 -26.5t39 -69.5v-39q-51 10 -100.5 14.5t-98.5 4.5h-57q-90 0 -182.5 -16.5t-169.5 -69.5h4q-59 -35 -98.5 -93.5t-39.5 -125.5v-15 q0 -80 39 -144.5t100.5 -109.5t136.5 -69.5t146 -24.5h50q70 0 138 15.5t128 52.5q0 -16 12.5 -28.5t30.5 -10.5q109 10 214 13t212 3h82t84 -2q14 0 26.5 10.5t12.5 26.5q6 72 10 143.5t4 143.5q2 16 -8.5 27.5t-26.5 13.5q-14 2 -31 2h-34h-23q0 18 1 34.5t1 34.5 q2 53 4 106.5t2 106.5v15q0 47 -14 94t-40 88t-63.5 73.5t-83.5 51.5l5 -2q-78 35 -161 47t-167 12q-29 0 -62.5 -1t-62.5 -3q-23 -4 -41 -5t-43 -3q-92 -6 -188.5 -18.5t-188.5 -47.5q-70 -27 -128 -79t-87 -123zM248 1092q0 -39 37 -43q16 -2 34 -2h37h35q16 0 37 2 q16 0 36.5 1t43.5 1q12 0 23.5 8t15.5 22q4 20 15 37t32 21q35 0 86 -21q8 -4 27 -10q39 -14 79.5 -25.5t85.5 -11.5h9q74 0 129 36t92 91t55.5 123t18.5 129l-37 39q-41 2 -80 2h-76h-61q-14 0 -25.5 -9t-11.5 -26q-4 -18 -15.5 -34.5t-31.5 -18.5q-29 2 -54.5 11t-52.5 24 q-41 12 -82 23.5t-82 11.5h-10q-74 0 -130 -36t-94 -92.5t-59.5 -124t-25.5 -128.5zM555 326v8q0 41 34 65.5t75 26.5q8 2 24 2q29 0 72 -16v-125q-51 -35 -117 -45h-4q-35 0 -59.5 24.5t-24.5 59.5z" />
<glyph unicode="&#xe4;" horiz-adv-x="1454" d="M23 307q0 -82 38.5 -147.5t100 -110.5t137.5 -68.5t150 -23.5h32q72 0 143.5 15.5t135.5 54.5q0 -16 11.5 -28.5t29.5 -10.5q106 10 212.5 13t213.5 3h82t84 -2q14 0 26.5 10.5t12.5 26.5q4 27 4 53q0 27 4 53q2 47 4 92.5t2 92.5q0 16 -10.5 26.5t-26.5 12.5 q-23 0 -43 1t-41 3q4 43 4 86v88v106v15q0 49 -13 96t-39 88t-62.5 72.5t-84.5 50.5l5 -2q-80 35 -163 50t-169 15q-59 0 -117 -6q-16 -2 -33.5 -3t-34.5 -3h5q-102 -8 -201.5 -20.5t-198.5 -47.5q-35 -12 -58.5 -38.5t-39.5 -60.5t-28.5 -71.5t-26.5 -72.5q-6 -18 2 -34.5 t30 -21.5q45 -10 83 -11t75 0t77 2t89 -3q23 0 37 19q23 39 67.5 58t92.5 21q10 2 20 3q43 0 82 -28t39 -73v-37q-94 20 -191 21q-16 0 -32.5 -1t-32.5 -1q-90 -2 -182.5 -17.5t-169.5 -68.5q-61 -33 -97 -93.5t-36 -132.5v-10zM197 1141q0 -16 12 -28.5t29 -12.5 q37 0 73.5 -1t73.5 -1q92 0 182 6q14 2 24.5 11t10.5 26q2 47 2 98v98q0 33 2 65t2 64q0 16 -12 28.5t-31 10.5q-78 -4 -157.5 -7t-159.5 -3l-39 -35q-4 -53 -5 -107.5t-1 -107.5q-2 -27 -2 -53q0 -25 -4 -51zM557 326v10q0 39 38 64.5t77 25.5q10 2 20 2q35 0 70 -14v-127 q-54 -37 -115 -45h-6q-35 0 -59.5 24.5t-24.5 59.5zM831 1321q0 -41 1.5 -82t1.5 -82q2 -16 12 -26.5t26 -10.5h50q35 0 68.5 1t68.5 1h67q33 0 68 -4q43 0 43 41q-4 29 -4 55v54q-2 53 -3 106t-5 107q0 14 -10.5 23t-24.5 12q-47 4 -96.5 6t-96.5 2q-33 0 -65.5 -1 t-63.5 -1l-37 -41v-160z" />
<glyph unicode="&#xe5;" horiz-adv-x="1454" d="M8 756q-6 -16 3 -32.5t30 -21.5q92 -23 189.5 -34t195.5 -21q10 -2 20.5 4t16.5 15q23 37 69 56t93 23q10 2 18 3q43 0 82 -27t39 -74v-39q-53 12 -102.5 16.5t-96.5 4.5h-57q-90 -2 -182.5 -17.5t-169.5 -68.5q-61 -33 -97 -95.5t-36 -130.5v-10q0 -84 38.5 -148.5 t100 -110.5t137.5 -69.5t150 -23.5h32q72 0 144.5 16.5t136.5 57.5v-2q0 -16 10 -28.5t29 -10.5q117 8 234.5 12t234.5 4q31 0 62.5 -1t62.5 -1q14 0 25.5 11.5t11.5 25.5q12 143 12 289q2 16 -8.5 27.5t-26.5 13.5q-23 0 -43 1t-41 3q4 43 4 86v90v106v15q0 94 -52 180 t-142 125q-78 35 -159 48t-163 13h-35q41 10 76 30.5t61 49.5h-4q37 39 59.5 88t22.5 103v6q0 55 -24.5 105t-63.5 87q-31 31 -77 51.5t-93 20.5q-4 0 -9 -1t-9 -1h-2q-55 -8 -105.5 -30.5t-87.5 -61.5h4q-41 -41 -60.5 -91.5t-19.5 -103.5q-2 -53 18.5 -105.5t61.5 -88.5 q59 -53 136 -66q-10 -2 -29 -2h4q-106 -8 -208.5 -20.5t-205.5 -49.5q-72 -27 -129 -78t-86 -122zM557 324v12q0 37 37 63.5t78 26.5h26q35 0 64 -10v-129q-29 -16 -55.5 -29.5t-55.5 -17.5h-10q-35 0 -59.5 24.5t-24.5 59.5zM655 1286v10q0 23 21.5 41.5t44.5 22.5h4 q23 0 39 -15.5t16 -37.5q0 -27 -19.5 -47.5t-45.5 -20.5h-10q-18 0 -34 14.5t-16 32.5z" />
<glyph unicode="&#xe6;" horiz-adv-x="2115" d="M11 699.5q9 -15.5 30 -19.5q98 -12 194.5 -22.5t192.5 -20.5q10 -2 21.5 3t15.5 13q27 35 70 53.5t88 18.5h18q47 0 89 -27.5t42 -74.5v-33q-66 16 -131.5 22t-130.5 6q-92 0 -185.5 -15t-172.5 -68h2q-63 -37 -101.5 -101.5t-38.5 -136.5q8 -82 53.5 -143.5t111 -102.5 t144 -61.5t152.5 -20.5h49q115 0 228.5 35t199.5 113q100 -82 225.5 -113t252.5 -31h38q86 0 175.5 15.5t171 49.5t149.5 88t113 132q10 18 -0.5 35.5t-32.5 21.5q-43 4 -85 9.5t-83 11.5q-59 8 -119.5 15t-122.5 14q-10 2 -22.5 -5.5t-16.5 -17.5q-16 -33 -45.5 -56.5 t-66.5 -23.5h-10q-27 0 -52.5 13.5t-42.5 35.5l2 -4q-14 23 -20 48.5t-10 50.5q72 2 143.5 3t144.5 1q215 0 430 -7q16 0 28.5 10.5t12.5 26.5q-2 119 -56 227.5t-152 184.5l4 -2q-98 86 -222 125t-253 39h-9q-84 0 -158.5 -23.5t-146.5 -62.5q-96 43 -198.5 59t-206.5 14 q-119 -2 -238 -12t-229 -51q-76 -29 -136.5 -81t-95.5 -124q-10 -18 -1 -33.5zM561 328v4q0 37 31 60.5t67 23.5h23q23 0 45.5 -6.5t44.5 -14.5v-30q0 -14 2 -29v-39v-23q-25 -18 -54.5 -26t-60.5 -8h-10q-35 0 -61.5 26.5t-26.5 61.5zM1352 604q6 45 20 78q8 20 27.5 32.5 t42.5 12.5h6q47 0 79 -39t32 -84h-86h-121z" />
<glyph unicode="&#xe7;" horiz-adv-x="1325" d="M18 481q0 -113 48.5 -215t140.5 -172q63 -49 138 -78.5t153 -40.5q-8 -12 -9 -14q0 -8 -2 -15t-2 -16q-4 -16 -7 -32.5t-3 -32.5q-2 -18 9.5 -30.5t29.5 -12.5q4 0 7 1t7 1q14 0 21 2v-2q0 -16 -18.5 -20.5t-34.5 -4.5h-35q-4 0 -9.5 1t-9.5 1q-16 0 -26 -10t-10 -24 l-13 -117q-4 -16 6.5 -27.5t26.5 -15.5q35 -6 70.5 -10.5t76.5 -4.5h29q14 0 27 2h-4q51 2 108.5 17.5t104.5 45.5t78.5 76t31.5 107v8q0 45 -18.5 81t-46.5 65q68 16 133 42.5t120.5 66.5t99.5 94.5t71 126.5q4 16 -3.5 31.5t-23.5 19.5q-94 29 -187.5 52.5t-181.5 39.5 l-45 -33q-8 -53 -44 -95t-89 -42q-8 -2 -20 -2q-31 0 -54.5 16.5t-40 41t-24.5 56t-8 62.5v33q0 35 11 69.5t31.5 64.5t49.5 48.5t65 22.5q51 0 90 -41t56 -90q4 -10 15 -17.5t22 -7.5h49q63 0 120.5 -3t121.5 -9q16 -2 29.5 11t13.5 30q-4 98 -9.5 195t-9.5 196 q0 14 -10 24.5t-23 12.5q-72 10 -144.5 13t-150.5 5q-14 0 -26.5 -11t-12.5 -28v-8q-49 27 -102 38t-108 11h-29q-12 0 -23 -2q-115 -4 -221 -49t-196 -119v2q-78 -66 -127.5 -162t-49.5 -200v-19z" />
<glyph unicode="&#xe8;" horiz-adv-x="1343" d="M27 481q0 -117 52 -213t136 -166.5t189.5 -109.5t213.5 -39q29 0 53.5 3t47.5 7h-6q82 4 166 21.5t159.5 53.5t140 91t105.5 133l-29 57q-98 16 -198.5 28.5t-204.5 21.5q-10 0 -22.5 -7.5t-16.5 -17.5q-12 -35 -44 -59.5t-69 -28.5q-6 -2 -14 -2q-49 0 -80 43 q-14 23 -21 49.5t-12 50.5q119 8 234 14.5t231 6.5q59 0 119 -2t119 -6q18 -2 29.5 10t11.5 29q0 123 -45 241.5t-139 202.5q-82 74 -185.5 108.5t-208.5 34.5q-18 0 -34.5 -1t-32.5 -3h4q-125 -10 -246 -46t-223 -114q-80 -61 -130 -155t-50 -199v-37zM219 1445.5 q-8 -24.5 14 -42.5q66 -61 136.5 -119.5t140.5 -116.5q29 -25 56.5 -47t56.5 -47q4 -4 14 -7t14 -3q57 4 114.5 8t115.5 4l32 58q-27 53 -57.5 107t-60.5 108q-16 31 -34 62.5t-36 62.5q-4 6 -15.5 12t-21.5 6q-111 -8 -216 -14.5t-216 -6.5q-29 0 -37 -24.5zM578 596 q6 23 11 41t13 41h-2v-4q16 25 34.5 45t43.5 20h10q43 0 68.5 -40t25.5 -81v-6q-37 -2 -70.5 -5t-66.5 -5q-18 -2 -34.5 -4t-32.5 -2z" />
<glyph unicode="&#xe9;" horiz-adv-x="1343" d="M27 481q0 -117 52 -213t136 -166.5t189.5 -109.5t213.5 -39q29 0 53.5 3t47.5 7h-6q82 4 166 21.5t159.5 53.5t140 91t105.5 133l-29 57q-98 16 -198.5 28.5t-204.5 21.5q-10 0 -22.5 -7.5t-16.5 -17.5q-12 -35 -44 -59.5t-69 -28.5q-6 -2 -14 -2q-49 0 -80 43 q-14 23 -21 49.5t-12 50.5q119 8 234 14.5t231 6.5q59 0 119 -2t119 -6q18 -2 29.5 10t11.5 29q0 123 -45 241.5t-139 202.5q-82 74 -185.5 108.5t-208.5 34.5q-18 0 -34.5 -1t-32.5 -3h4q-125 -8 -246 -46t-223 -114q-80 -61 -130 -154t-50 -198v-39zM425 1073.5 q11 -18.5 36 -18.5q59 2 125.5 6t126.5 8q96 90 195.5 179t199.5 175q20 18 12 42t-37 26q-92 6 -190 6q-61 0 -123.5 -2t-126.5 -6q-8 0 -18.5 -7t-14.5 -16q-37 -80 -79 -158.5t-82 -156.5l4 2l-27 -41q-12 -20 -1 -38.5zM578 598q6 20 11 38.5t13 41.5l-4 -4 q16 25 35.5 45t44.5 20h10q43 0 68.5 -38.5t25.5 -82.5v-6q-37 -2 -70.5 -5t-66.5 -5q-18 -2 -34.5 -3t-32.5 -1z" />
<glyph unicode="&#xea;" horiz-adv-x="1343" d="M27 483q0 -117 51 -214t135 -167.5t189.5 -109.5t213.5 -39q29 0 53.5 3t49.5 7h-6q82 4 166 22.5t159.5 54.5t140 91t105.5 133l-29 58q-98 16 -198.5 28t-204.5 21q-10 0 -22.5 -7.5t-16.5 -17.5q-12 -35 -44 -59.5t-69 -28.5q-6 -2 -14 -2q-49 0 -80 43 q-14 23 -21 49.5t-12 50.5q119 8 234 14.5t231 6.5q59 0 119 -2t119 -6q18 -2 29.5 10t11.5 29q0 123 -45 241.5t-139 200.5q-82 72 -184.5 106.5t-207.5 34.5q-18 0 -35.5 -1t-33.5 -3h4q-125 -6 -245 -43t-224 -115q-82 -63 -131 -159.5t-49 -200.5v-29zM201 1104l32 -57 h97q45 0 91 1t107 7q35 29 73 63.5t73 67.5q35 -29 71.5 -58.5t69.5 -56.5h168h59q29 0 62 -4q23 -2 34 17.5t-1 41.5q-29 53 -57.5 102.5t-61.5 102.5q-23 37 -44.5 75t-43.5 77q-4 8 -13.5 13t-19.5 5h-27q-59 0 -117.5 -3t-117.5 -7q-49 -4 -96 -7t-99 -5q-6 0 -17 -6.5 t-15 -14.5q-33 -59 -65 -114.5t-67 -112.5v2q-18 -31 -36.5 -63.5t-38.5 -65.5zM578 600q6 18 10 38t14 40l-4 -4q16 25 35.5 44t44.5 19h10q43 0 68.5 -37.5t25.5 -81.5v-4q-37 -2 -70.5 -5t-66.5 -5q-18 -2 -34.5 -3t-32.5 -1z" />
<glyph unicode="&#xeb;" horiz-adv-x="1343" d="M29 481q0 -115 51 -212t133 -167.5t186.5 -109.5t212.5 -39q29 0 55.5 3t51.5 7h-4q80 4 164 22.5t159.5 54.5t140 91t105.5 133l-29 58q-98 16 -197.5 29.5t-203.5 21.5q-10 0 -22.5 -8.5t-16.5 -18.5q-12 -35 -43 -60.5t-65 -27.5q-8 -2 -21 -2q-49 0 -78 45 q-14 23 -20 46.5t-10 47.5q123 10 241.5 17.5t241.5 7.5q53 0 105.5 -2t105.5 -6q18 0 30.5 11t12.5 28v14q0 119 -46 232.5t-134 193.5q-82 72 -183.5 108.5t-206.5 36.5q-20 0 -37.5 -1t-33.5 -3h2q-123 -10 -244 -46t-223 -114q-82 -61 -131 -155t-49 -199v-37zM156 1135 q0 -16 11 -27.5t28 -11.5h53q68 0 136.5 1t137.5 5q14 2 24.5 12t10.5 27v80v120t2 121q0 16 -11 28.5t-28 10.5q-80 -6 -158.5 -8t-158.5 -2l-37 -37q-4 -78 -6 -160t-4 -159zM582 598q4 16 8 36t10 38q16 25 34.5 45t43.5 20h10q43 0 68.5 -39t25.5 -82v-4 q-35 -2 -68.5 -4t-66.5 -4q-18 -2 -33.5 -4t-31.5 -2zM784 1288q0 -33 1 -64.5t1 -64.5q0 -16 11.5 -27.5t27.5 -11.5h47q68 0 135.5 -1t137.5 -5q20 -2 32.5 9.5t10.5 31.5q-2 27 -2 53q0 27 -2 54q-2 53 -3 104t-5 104q-2 14 -11.5 25.5t-23.5 13.5q-53 4 -111.5 6.5 t-116.5 2.5h-92q-16 0 -26.5 -12.5t-10.5 -28.5v-189z" />
<glyph unicode="&#xec;" horiz-adv-x="753" d="M-14.5 1449q-10.5 -26 8.5 -44q88 -86 180 -172t209 -172q88 12 158 12h32t35 -4l39 55q-43 88 -88 175t-92 174q-4 10 -14.5 16t-20.5 4q-78 -10 -154.5 -17.5t-152.5 -7.5q-29 0 -52.5 1t-50 3.5t-37 -23.5zM53 879q0 -37 2 -74q2 -20 2 -37v-35v-37q0 -14 -2 -32.5 t9.5 -30.5t27.5 -12h27q14 0 28 -3v-272h-2t-4 2q-10 2 -20 3t-27 1q-16 0 -26.5 -11t-10.5 -28v-47v-59q0 -29 2 -57q2 -33 3 -65t1 -65q0 -12 9.5 -24t21.5 -14q57 -6 121 -7q57 0 112.5 4.5t110.5 10.5q51 6 102.5 11t98.5 5q23 0 42 -1t40 -3q16 -2 27.5 9.5t11.5 27.5 q4 72 6 144.5t4 144.5q0 16 -10 27.5t-27 11.5h-20t-21 2q0 31 1 62.5t1 62.5q2 70 2 137v137v100t-2 103q0 14 -10 25.5t-25 11.5q-47 6 -98 6q-55 0 -104 -4t-97 -9q-49 -6 -96 -10t-94 -4q-18 0 -37.5 1t-40.5 3q-16 2 -27.5 -10t-11.5 -29v-73z" />
<glyph unicode="&#xed;" horiz-adv-x="753" d="M-20 668q0 -16 10 -27.5t26 -11.5h19q10 0 20 -2q6 -2 7 -3t12 -3v-261q-6 0 -11 2q-16 0 -36 5q-18 4 -30.5 -7.5t-12.5 -31.5q0 -72 2 -145.5t6 -147.5q0 -12 8 -21.5t18 -13.5q51 -14 99.5 -19.5t97.5 -5.5q53 0 104.5 4.5t100.5 8.5t98 9t96 5h37q16 0 26.5 10.5 t12.5 26.5q0 72 2 147.5t4 147.5q0 16 -10 27.5t-27 11.5h-41q2 84 3 164v168q0 66 -1.5 134t-1.5 134q-4 39 -36 39h-25q-104 0 -203 -13q-51 -6 -100 -10t-96 -4q-66 0 -135 12q-18 4 -30.5 -8t-12.5 -31v-290zM104 1106l33 -57h37q49 0 100.5 2t104.5 10q92 92 184 179 t195 161q23 16 17.5 41.5t-30.5 30.5q-109 25 -221 24q-55 0 -107 -5t-104 -13q-20 -4 -28 -21q-45 -90 -89 -176t-92 -176z" />
<glyph unicode="&#xee;" horiz-adv-x="763" d="M-72 1114l31 -61q47 -2 93 -4t93 -2h48q27 0 45 2l37.5 37.5t35.5 33.5q16 14 33.5 30.5t34.5 31.5q14 -14 39 -29q25 -20 50.5 -39.5t51.5 -42.5h47q57 0 113.5 -4t114.5 -12q25 -4 36 16.5t0 42.5q-20 35 -37.5 66.5t-33.5 64.5q-35 59 -64.5 116.5t-64.5 117.5 q-4 8 -14.5 14t-18.5 6q-10 0 -21.5 1t-21.5 1q-53 0 -101 -5t-96 -9q-51 -6 -102 -10t-100 -4q-6 0 -16.5 -5.5t-14.5 -13.5q-37 -63 -72 -124.5t-69 -125.5q-14 -23 -27.5 -45t-28.5 -45zM12 659q0 -16 10.5 -27t26.5 -11h14h17q6 0 16 -3q2 0 4 -1t6 -1q0 -35 -1 -69.5 t1 -69.5q0 -23 1.5 -41t1.5 -41v-45h-11q-10 0 -21 1t-22 3q-18 4 -30.5 -8t-10.5 -31q0 -147 6 -295q0 -12 10.5 -23t22.5 -13q35 -4 71 -6.5t73 -2.5q57 0 112.5 4.5t110.5 8.5q55 6 107.5 11t105.5 5h26q14 0 29 -2q16 -2 27.5 9.5t13.5 27.5q0 37 2 74t4 73.5t2 73.5 t2 72q0 16 -11 28.5t-28 12.5h-41q2 72 3 141v141q0 80 -1.5 159t-1.5 161q-2 16 -11 26.5t-25 10.5h-41q-55 0 -111.5 -4t-112.5 -9q-55 -6 -110 -10t-109 -4q-23 0 -44 1t-44 3q-16 2 -27.5 -9t-11.5 -30v-291z" />
<glyph unicode="&#xef;" horiz-adv-x="770" d="M-121 1143q0 -16 10.5 -26.5t26.5 -12.5q45 -2 92 -3t92 -1h66q33 0 65 2q16 0 26.5 10t10.5 27q2 47 2 96v98q0 33 1 63.5t1 63.5q0 16 -11 27.5t-28 11.5q-57 -2 -112 -3t-111 -1h-82q-14 0 -24 -10t-13 -27q-10 -158 -12 -315zM14 659q0 -16 10.5 -27t26.5 -11h17h14 t18 -3l2 -1t7 -1v-135q0 -68 2 -135q-6 0 -11 2q-10 2 -19 3t-26 1q-16 0 -26.5 -11t-10.5 -28q0 -47 1 -98t4 -100q0 -25 1 -48.5t1 -48.5q0 -14 8 -25t22 -11q35 -4 69 -6.5t69 -2.5q66 0 128 5.5t123 9.5q66 6 129.5 11t126.5 5q16 0 26.5 10.5t10.5 26.5q4 72 5 147.5 t3 147.5q0 18 -12 29.5t-28 9.5q-10 -2 -21 -2h-18q2 90 3 178t1 180v123q0 61 -2 123q0 16 -10.5 27.5t-26.5 11.5h-29q-66 0 -128 -4t-124 -11h2q-59 -4 -117.5 -8t-117.5 -4h-62q-16 2 -28.5 -9t-12.5 -30v-291zM492 1483l6 -322q0 -16 12 -28.5t28.5 -10.5t30.5 2h31 q61 0 121.5 -6t126.5 -14q18 -4 31.5 9t11.5 32q-2 23 -2 39v39q-2 59 -4 119.5t-6 119.5q-2 12 -12.5 23.5t-20.5 13.5q-63 10 -128 17.5t-132 7.5h-31q-14 0 -29 -2z" />
<glyph unicode="&#xf0;" horiz-adv-x="1466" d="M33 506q0 -117 55 -226.5t150 -181.5q92 -72 203.5 -108.5t228.5 -36.5q18 0 34.5 1t32.5 3h19q127 0 248.5 49t217 133t154 199t58.5 246v30t-2 29q-2 139 -56.5 267.5t-140.5 232.5l2 -2q-23 29 -46.5 52.5t-47.5 45.5q8 2 28 6q29 10 60 18.5t72 16.5q27 6 31.5 30.5 t-19.5 41.5q-16 10 -33.5 21t-36.5 22l-69 39q-4 4 -14.5 5t-14.5 -1q-41 -10 -85 -23.5t-85 -28.5q-10 -6 -21.5 -10t-21.5 -8q-59 29 -122.5 43t-129.5 21q-23 -8 -49.5 -17.5t-46.5 -19.5v2q-47 -18 -92 -37t-93 -35q-27 -10 -27.5 -34.5t25.5 -37.5q16 -8 35 -15t37 -15 q12 -8 33 -15q-51 -18 -101.5 -35.5t-103.5 -33.5q-25 -8 -28 -31t20 -39q16 -10 34.5 -21.5t41.5 -23.5q16 -6 28.5 -13t28.5 -18q0 -2 4 -2q-66 -18 -123 -50t-108 -73q-76 -66 -120 -158t-44 -192v-12zM514 1012q13 2 27 10q41 14 84 27.5t84 29.5q33 -29 61 -71 q-31 10 -62.5 12t-62.5 2h-33q-25 0 -49 -3t-49 -7zM606 463v33q0 31 8.5 61.5t23.5 55t38.5 42t54.5 19.5l8 2h13q51 0 79.5 -46t28.5 -100v-18q0 -6 1 -10t1 -10q0 -31 -8 -63t-25.5 -58.5t-42 -43t-57.5 -16.5q-4 0 -8 -1t-8 -1q-25 0 -45.5 14.5t-33.5 37t-20.5 49 t-7.5 53.5z" />
<glyph unicode="&#xf1;" horiz-adv-x="1560" d="M2 666q0 -16 11.5 -27.5t27.5 -11.5h27q14 0 30 -2q6 -2 25 -2q0 -49 1 -98.5t3 -96.5v-39q0 -16 2 -33q-4 0 -6 1t-4 1q-14 2 -29 2q-14 0 -33 5q-20 4 -33.5 -7.5t-13.5 -31.5q2 -72 6 -146t9 -147q2 -12 12 -22.5t22 -12.5q109 -12 216.5 -17.5t216.5 -5.5 q78 0 155.5 3.5t153.5 7.5q16 2 26.5 13t10.5 26v294q0 18 -14.5 29.5t-30.5 9.5q-23 -4 -41 -4t-39 -2h2h-19q-2 16 -1 35t1 39v170q49 29 111 39h6q31 0 50.5 -25.5t19.5 -56.5q0 -4 -1 -7t-1 -7v-111v-135q0 -68 -2 -135q0 -33 -1 -64t-1 -63q0 -16 12 -28.5t29 -10.5 q104 6 207.5 8t207.5 2h168q16 0 26.5 10.5t12.5 24.5q4 72 9 143.5t10 143.5q0 16 -11.5 28.5t-27.5 12.5h-25q-12 0 -29 2q-4 0 -9 1t-9 1q0 35 1 70.5t1 70.5q0 20 1 40.5t1 41.5q2 10 2 22v25q0 74 -28.5 146.5t-78 130t-116 92t-144.5 34.5h-20t-18 -2 q-96 -4 -185.5 -33.5t-167.5 -80.5v28q0 16 -12 27.5t-29 11.5q-135 -6 -274 -6q-86 0 -168 3t-168 7q-16 2 -28.5 -9t-12.5 -27q-2 -53 -2 -109v-111v-75zM307 1087q-2 -16 10.5 -29.5t28.5 -13.5q37 0 75 1.5t73 3.5q16 0 34.5 1t36.5 1q12 0 23.5 10t15.5 22 q4 20 17.5 38t31.5 18h9q23 0 44 -6.5t44 -14.5q4 -2 9 -5t9 -5h-2q41 -16 83 -26.5t87 -10.5h8q74 0 128 35t91 89t55.5 120.5t18.5 128.5v6q0 14 -9 25.5t-26 13.5q-14 2 -28 2h-31h-158q-16 0 -27.5 -10.5t-11.5 -26.5q-2 -23 -14 -38t-31 -15q-23 0 -43 7t-43 17h2 q-6 2 -13 3.5t-11 5.5q-4 2 -7 2l-4 2q-35 12 -71.5 22t-71.5 10q-4 0 -9 -1t-12 -1q-76 -2 -132 -37.5t-94 -91t-58.5 -122t-26.5 -130.5z" />
<glyph unicode="&#xf2;" horiz-adv-x="1452" d="M25 498q0 -117 56 -222.5t150 -177.5q92 -72 204 -107.5t229 -35.5q18 0 35.5 1t33.5 3h-4q129 8 255 47t235 117l-5 -2q92 61 152.5 160.5t60.5 212.5v20q0 111 -55 212t-143 169q-92 72 -205 106.5t-229 34.5q-20 0 -38 -1t-36 -3h4q-133 -10 -261 -47t-241 -111 q-88 -59 -143 -156t-55 -208v-12zM271 1448q-9 -25 14 -45q68 -66 143.5 -126t149.5 -122l112 -94q59 4 123 8t123 6l33 58l-92 170q-43 82 -95 170q-4 8 -16 13t-21 5q-102 -8 -200.5 -13t-198.5 -5h-37q-29 0 -38 -25zM594 461q0 6 1 11t1 9q0 6 -1 12.5t-1 12.5 q0 29 9 58.5t26.5 54t43 40t56.5 17.5q4 0 9 1t10 1q27 0 47 -14.5t34.5 -37t21.5 -51t7 -55.5v-18h-2v-19q0 -31 -8 -60.5t-25.5 -53t-42 -40t-55.5 -18.5q-8 -2 -18 -2q-27 0 -47.5 14.5t-35 36t-22.5 48t-8 53.5z" />
<glyph unicode="&#xf3;" horiz-adv-x="1452" d="M25 498q0 -117 56 -222.5t150 -177.5q92 -72 204 -107.5t229 -35.5q18 0 35.5 1t33.5 3h-4q129 8 255 47t235 117l-5 -2q92 61 152.5 160.5t60.5 212.5v20q0 111 -55 212t-143 169q-92 72 -205 106.5t-229 34.5q-20 0 -38 -1t-36 -3h4q-133 -8 -261 -46t-241 -112 q-88 -59 -143 -156t-55 -208v-12zM479 1110l35 -55q59 2 126 6t126 8q96 90 198.5 181t200.5 177q20 18 11 42t-37 26q-37 2 -78 3t-82 1q-141 0 -285 -12q-8 0 -17 -7t-13 -16q-20 -47 -46 -93t-51 -93q-23 -41 -45 -83t-43 -85zM594 461q0 6 1 11t1 11q0 4 -1 10.5 t-1 12.5q0 29 9 58.5t26.5 54t43 41t58.5 16.5q2 0 7 1t10 1q27 0 47 -14.5t34.5 -37t21.5 -51t7 -55.5v-18v-19q0 -29 -9 -58.5t-25.5 -54t-42 -41t-56.5 -18.5q-8 -2 -18 -2q-27 0 -47.5 14.5t-35 36t-22.5 48t-8 53.5z" />
<glyph unicode="&#xf4;" horiz-adv-x="1452" d="M25 500q0 -117 57 -223.5t149.5 -178t204 -107.5t228.5 -36q18 0 35.5 1t33.5 3h-4q129 8 255 47t235 117h-5q92 63 152.5 160.5t60.5 212.5v20q0 113 -55 212t-143 167q-94 74 -206 105.5t-228 31.5h-37q-18 0 -37 -2h4q-133 -8 -262 -44t-240 -112q-90 -59 -144 -154 t-54 -204v-16zM256 1070.5q8 -17.5 33 -21.5q10 -2 24 -2h31q29 0 60.5 1t60.5 3q27 2 57 2h58l55 47q23 20 47.5 41.5t48.5 44.5q4 -4 8 -5t9 -5q31 -25 58.5 -48.5t55.5 -48.5q4 -4 15.5 -7t15.5 -3q29 4 53 4h55h58t59 -2q10 0 21.5 -1t23.5 -1q25 0 34 19.5t-3 39.5 q-49 90 -102.5 177.5t-106.5 175.5q-4 6 -14 12t-19 6h-30q-66 0 -128.5 -3t-127.5 -7q-41 -4 -84 -6l-86 -4q-6 0 -16.5 -6.5t-14.5 -14.5q-41 -70 -81 -138.5t-81 -137.5l-45 -76q-10 -18 -2 -35.5zM594 463q0 6 1 11t1 9q0 6 -1 12.5t-1 12.5q0 31 9 60.5t26.5 53t43 39 t56.5 15.5h19q27 0 47 -14.5t34.5 -36t21.5 -49t7 -54.5v-37q0 -31 -9 -60.5t-25.5 -53t-42 -40t-56.5 -18.5q-8 -2 -18 -2q-27 0 -47.5 14.5t-35 36t-22.5 48t-8 53.5z" />
<glyph unicode="&#xf5;" horiz-adv-x="1452" d="M25 500q0 -117 57 -223.5t149.5 -178t204 -107.5t228.5 -36q18 0 35.5 1t33.5 3h-4q129 8 255 47t235 117h-5q92 63 152.5 160.5t60.5 212.5v20q0 113 -55 212t-143 167q-92 72 -205 106.5t-229 34.5q-20 0 -38 -1t-36 -3h4q-135 -8 -261 -46t-241 -109 q-92 -59 -145 -156.5t-53 -208.5v-12zM258 1096q0 -39 37 -43q14 -2 29 -2h32h39q20 0 43 2q20 2 39 2h37q33 0 39 30q4 23 16.5 40.5t34.5 17.5q23 2 45.5 -6.5t48.5 -18.5q4 -2 8.5 -3t8.5 -3q41 -14 85 -25.5t91 -11.5q74 0 128 35t90 90t54.5 120.5t18.5 127.5l-2 6 q0 39 -39 39q-20 0 -38 1t-36 1q-18 2 -35 2h-35h-39q-16 0 -32 -2q-33 -4 -33 -37q-2 -18 -14.5 -33.5t-28.5 -15.5h-4q-25 0 -53.5 10.5t-55.5 24.5q-37 12 -76.5 22.5t-85.5 10.5h-10q-74 0 -130 -36t-94 -92.5t-58.5 -124t-24.5 -128.5zM594 463q0 6 1 11t1 9 q0 6 -1 12.5t-1 12.5q0 29 9 57.5t26.5 53t43 40t56.5 17.5q4 0 10 1t11 1q27 0 46 -14.5t33.5 -37t21.5 -50t7 -54.5v-18h-2v-19q0 -31 -8 -60.5t-25.5 -53t-42 -40t-55.5 -18.5q-8 -2 -18 -2q-27 0 -47.5 14.5t-35 36t-22.5 48t-8 53.5z" />
<glyph unicode="&#xf6;" horiz-adv-x="1452" d="M25 496q0 -117 57 -221.5t149.5 -176t203 -107.5t222.5 -36q20 0 40 1t36 3h-4q129 8 255 47t235 117h-5q92 63 152.5 160.5t60.5 212.5v20q0 111 -55 211t-143 168q-92 72 -203 106.5t-227 34.5q-18 0 -38 -1t-40 -3h4q-133 -10 -261 -48t-241 -110q-92 -59 -145 -157.5 t-53 -208.5v-12zM205 1137q0 -37 39 -41q23 -2 45 -2h47q59 0 119.5 2t119.5 6q14 2 25.5 12t11.5 27q0 41 -1 80t-1 79q2 20 2 39v43v82q-2 16 -13 27.5t-28 9.5q-78 -4 -156.5 -7t-158.5 -3l-39 -35q-4 -53 -5 -107.5t-1 -107.5q-2 -27 -2 -53q0 -25 -4 -51zM596 463v20 v23q0 31 9 60.5t25.5 54t42 40t56.5 15.5q4 0 10 1t11 1q27 0 46 -14.5t33.5 -37t21.5 -49t7 -53.5v-20h-2v-17q0 -31 -8 -60.5t-25.5 -54t-42 -41t-55.5 -18.5q-8 -2 -18 -2q-27 0 -47.5 14.5t-35 36t-21.5 48t-7 53.5zM838 1319q0 -41 1 -82t1 -82q2 -16 13 -27.5t30 -9.5 q29 2 57 2h57q100 0 209 -6q16 0 27.5 12.5t11.5 28.5q-2 82 -5 161t-9 159q0 16 -10.5 25t-24.5 11q-51 4 -105.5 6.5t-109.5 2.5q-27 0 -53.5 -1t-53.5 -1l-36 -41v-158z" />
<glyph unicode="&#xf7;" horiz-adv-x="1280" d="M45 623q0 -43 4 -88l35 -37q66 -6 132.5 -8.5t131.5 -2.5q80 0 158 3.5t158 7.5q82 4 161.5 6t163.5 2q49 0 99.5 -2t103.5 -6q16 0 27.5 10t11.5 27q4 33 4 65v66q0 43 -1 87t-1 89q-2 12 -11.5 23.5t-23.5 13.5q-63 8 -128.5 9t-131.5 1q-78 0 -154.5 -2t-154.5 -6 q-82 -4 -164 -7.5t-166 -3.5q-53 0 -104.5 2t-104.5 7q-16 2 -28.5 -9.5t-12.5 -27.5q-4 -33 -4 -66v-65v-88zM395 420q0 -74 2 -147.5t2 -147.5q2 -16 13.5 -27.5t27.5 -11.5q63 0 128 4t128 8q74 6 144 6q16 0 25 11.5t9 27.5v97q2 49 4.5 100t2.5 98q0 16 -12.5 27.5 t-28.5 11.5q-43 -2 -84 -4t-84 -6q-51 -4 -102.5 -6t-102.5 -2h-31q-16 0 -28.5 -11.5t-12.5 -27.5zM395 938q0 -16 12.5 -28.5t30.5 -10.5q33 2 67 4l68 4q68 4 134.5 7.5t134.5 3.5q16 0 26.5 10t10.5 26q0 25 -2.5 49.5t-2.5 49.5q0 49 -1 100t-1 98q-4 37 -38 37h-33 q-53 0 -106.5 -2t-106.5 -6h4q-41 -4 -79 -5t-77 -3l-37 -39q0 -74 -2 -147.5t-2 -147.5z" />
<glyph unicode="&#xf8;" horiz-adv-x="1452" d="M23 489q0 -106 49 -206.5t137 -167.5q-10 -10 -21.5 -18.5t-21.5 -18.5l-16 -17q-12 -14 -11.5 -30.5t17.5 -26.5q10 -8 21 -15t22 -16q23 -12 38 -23t25 -22q12 -10 28.5 -9t26.5 11q12 16 25.5 27.5t28.5 28.5q12 8 24 24q63 -25 132 -37t137 -12h34t35 2h-4 q133 6 259 42t237 112q88 61 146.5 155.5t58.5 204.5v27q0 104 -53.5 198.5t-131.5 159.5l15 12q12 12 23 23.5t21.5 24t8.5 30t-19 27.5q-8 6 -18 14t-27 21q-29 25 -65 45l-45 -8l-82 -84q-70 29 -141.5 41t-143.5 12q-12 0 -24.5 -1t-24.5 -1q-131 -6 -259 -42t-239 -112 l4 2q-92 -59 -149 -158.5t-57 -207.5v-11zM594 498v6q0 31 9 60.5t26.5 53t42 38t55.5 14.5h10q12 0 19 -2q-8 -8 -15.5 -14.5t-13.5 -12.5zM700 311q12 12 22.5 23.5t22.5 23.5q27 29 55.5 58.5t57.5 58.5q-2 -29 -11 -58.5t-25.5 -53t-40 -38t-54.5 -14.5h2h-29z" />
<glyph unicode="&#xf9;" d="M-4 668q0 -16 11 -27.5t28 -11.5q8 0 16 -1t19 -1q8 -2 18 -2t21 -2q0 -23 1 -48.5t1 -48.5q2 -35 1 -65.5t-1 -65.5v-14q0 -78 28.5 -152.5t78.5 -135t120 -97.5t151 -37h19q96 0 186 33t168 82v-43q0 -16 12.5 -28.5t28.5 -10.5q104 6 207.5 8t208.5 2h172 q14 0 25.5 10.5t13.5 24.5q2 16 2 37q0 20 2 37q4 53 7 106t3 109q0 16 -10 27.5t-27 11.5h-26q-12 0 -27 2q-6 0 -11 1t-9 1q2 78 3 156.5t1 156.5q0 72 -1 142.5t-1 142.5l-37 39q-74 4 -149.5 6t-149.5 2q-80 0 -162 -2t-164 -8q-14 -2 -25.5 -13.5t-11.5 -25.5 q0 -37 1 -75t1 -73v-147q0 -18 13.5 -29.5t30 -9.5t32.5 2h33q4 0 10 1t12 1v-35v-35q0 -16 -2 -37q-2 -35 -2 -67v-66q-53 -31 -108 -37q-4 0 -7 -1t-8 -1q-29 0 -44 29t-15 59v265q0 63 -1 124.5t-1 122.5q0 16 -12.5 27.5t-28.5 11.5q-74 -4 -144.5 -6t-142.5 -2 q-78 0 -156.5 3t-158.5 7q-16 2 -28.5 -9t-12.5 -27q-2 -53 -2 -109v-111v-73zM324 1445.5q-9 -24.5 14 -44.5q96 -86 201.5 -172t205.5 -166q59 4 124 6t124 4l35 57q-31 57 -62.5 113.5t-64.5 114.5q-16 29 -30.5 56.5t-30.5 55.5q-4 6 -15.5 12.5t-19.5 6.5 q-23 -2 -45 -2q-23 0 -45 -2q-90 -4 -176 -8t-177 -7q-29 0 -38 -24.5z" />
<glyph unicode="&#xfa;" d="M-4 670q0 -16 11 -27.5t28 -11.5q8 0 16 -1t19 -1q8 -2 18 -2t21 -2q0 -23 1 -48.5t1 -48.5q2 -35 1 -65.5t-1 -65.5v-12q0 -78 27.5 -153.5t78.5 -136t120 -98.5t152 -38h19q96 0 186 33t168 82v-43q0 -16 12.5 -28.5t28.5 -10.5q104 6 207.5 8t208.5 2h172 q14 0 25.5 10.5t13.5 24.5q2 16 2 35q0 20 2 37q4 53 7 108t3 111q0 16 -10 27.5t-27 11.5h-26q-12 0 -27 2q-6 0 -11 1t-9 1q2 78 3 155.5t1 155.5q0 72 -1 142.5t-1 142.5l-37 39q-74 4 -149.5 6t-149.5 2q-80 0 -162 -2t-164 -8q-14 -2 -25.5 -13.5t-11.5 -25.5 q0 -37 1 -74t1 -74v-147q0 -18 13.5 -29.5t30 -9.5t32.5 2t33 2q4 0 10 1t12 1v-35v-35q0 -16 -2 -37q-2 -35 -2 -67v-66q-53 -31 -112 -37q-4 0 -6.5 -1t-4.5 -1q-29 0 -44 29t-15 59v265q0 59 -1 121.5t-1 123.5q0 16 -12.5 27.5t-28.5 11.5q-74 -4 -144.5 -6t-142.5 -2 q-78 0 -156.5 3t-158.5 7q-16 2 -28.5 -9t-12.5 -27q-2 -53 -2 -111v-109v-71zM537 1110l36 -55q59 2 125 5t125 7q98 92 198.5 183t201.5 177q20 18 12 42t-37 26q-35 2 -73 3t-74 1q-72 0 -148 -3t-147 -7q-10 0 -19.5 -6t-13.5 -15q-35 -72 -72 -140t-73 -140 q-10 -18 -20.5 -38t-20.5 -40z" />
<glyph unicode="&#xfb;" d="M-4 670q0 -16 11 -27.5t28 -11.5q8 0 16 -1t19 -1q8 -2 18 -2t21 -2q0 -25 1 -49.5t1 -49.5q2 -33 1 -64.5t-1 -66.5v-12q0 -78 27.5 -153.5t78.5 -135t120 -97.5t152 -38h19q96 0 186 33t168 82v-43q0 -16 12.5 -28.5t28.5 -10.5q104 6 207.5 8t208.5 2h172 q14 0 25.5 10.5t13.5 24.5q2 16 2 35q0 20 2 37q4 53 7 108t3 111q0 16 -10 27.5t-27 11.5h-26q-12 0 -27 2q-6 0 -11 1t-9 1q2 78 3 156.5t1 156.5q0 72 -1 142.5t-1 142.5l-37 39q-78 4 -156 7t-156 3t-157.5 -3t-157.5 -9q-14 -2 -24.5 -13.5t-10.5 -25.5q0 -37 1 -74 t1 -74v-149q0 -18 13.5 -29.5t30 -9.5t32.5 2t33 2q4 0 10 1t12 1v-35v-35q0 -16 -2 -37q-2 -35 -2 -67v-66q-53 -31 -108 -37q-4 0 -7 -1t-8 -1q-29 0 -45 28t-16 58q0 4 1 8.5t1 8.5v250q0 61 -1 122.5t-1 122.5q0 16 -12.5 27.5t-28.5 11.5q-74 -4 -144.5 -6t-142.5 -2 q-78 0 -156.5 3t-158.5 7q-16 2 -28.5 -9t-12.5 -27q-2 -53 -2 -111v-109v-71zM309 1106l35 -59q76 0 150.5 1t146.5 7q35 29 72 62.5t71 68.5q37 -29 75 -58.5t71 -58.5q27 2 57 2h55h179q25 0 35 18.5t-3 40.5q-51 88 -103 177.5t-108 175.5q-4 4 -14 10t-18 6h-33 q-72 0 -143.5 -4t-141.5 -8q-35 -4 -69.5 -5t-69.5 -3q-8 0 -17.5 -7.5t-13.5 -13.5q-27 -43 -52.5 -87t-51.5 -89q-27 -47 -53.5 -89t-55.5 -87z" />
<glyph unicode="&#xfc;" d="M-4 672q0 -16 10 -26.5t27 -12.5q33 -6 76 -6q0 -25 1 -49.5t1 -47.5q2 -35 1 -66.5t-1 -66.5v-12q0 -78 27.5 -154.5t78.5 -137t122 -98.5t155 -38h14q98 0 186 34t168 83v-43q0 -16 12.5 -28.5t28.5 -10.5q104 6 207.5 8t208.5 2h172q14 0 25.5 10.5t13.5 24.5 q2 16 2 35q0 20 2 37q4 53 7 108t3 111q0 16 -10 28.5t-27 12.5h-26q-12 0 -27 2q-6 0 -11 1t-9 1q2 78 3 156.5t1 156.5q0 72 -1 141.5t-1 141.5l-37 39q-66 4 -133.5 6t-135.5 2q-182 0 -356 -12q-14 -2 -25.5 -12.5t-11.5 -26.5q0 -35 1 -73t1 -75v-147q0 -16 13.5 -28.5 t30 -10.5t32.5 2t33 2q4 0 10 1t12 1v-33v-37q0 -16 -2 -37q-2 -33 -2 -65v-68q-53 -31 -112 -37q-4 0 -6.5 -1t-4.5 -1q-29 0 -44 29t-15 59v265q0 61 -1 123.5t-1 123.5q0 16 -12.5 28.5t-28.5 10.5q-133 -6 -258 -6q-88 0 -173 2t-171 6q-16 0 -28.5 -10t-12.5 -26 q-2 -53 -2 -111v-109v-71zM258 1141q-2 -16 9.5 -27.5t27.5 -13.5q20 -2 39 -2h43q47 0 97 2t99 4q12 0 25.5 1t28.5 1q39 0 39 39q0 18 1 37.5t1 40.5q2 43 2 88v86v71q0 16 -11.5 28.5t-29.5 10.5q-80 -6 -160 -8t-162 -2l-39 -35q-4 -53 -4 -108q0 -53 -2 -107 q0 -27 -1 -53.5t-3 -52.5zM893 1483q2 -80 3 -161t1 -163q0 -16 13.5 -28.5t29.5 -10.5q35 4 68 4h65h68t67 -2q14 0 27.5 -1t28.5 -1q16 0 27.5 11.5t11.5 27.5q-2 162 -13 322q-4 33 -37 37q-102 6 -204 6q-29 0 -58.5 -1t-58.5 -1z" />
<glyph unicode="&#xfd;" horiz-adv-x="1265" d="M-29 680q0 -16 11.5 -28.5t27.5 -12.5h2q18 -4 43 -6q4 -10 15 -23l-2 2q80 -164 162.5 -325.5t170.5 -319.5q-4 -6 -7 -13t-7 -15q-2 -6 -5 -11.5t-7 -11.5h-33h-37q-16 0 -35 2q-8 0 -16 1t-16 1q-16 0 -27.5 -12t-11.5 -29q2 -76 3 -150.5t5 -150.5q0 -14 10 -25.5 t27 -11.5q31 -2 61.5 -3t61.5 -1q145 0 286 19q8 2 18.5 9t12.5 13q100 229 206.5 452.5t217.5 448.5q20 41 38.5 83t39.5 83h18q18 0 43 -6q20 -4 33.5 8t13.5 31q0 72 -1 145.5t-3 145.5q0 14 -9 26.5t-24 14.5q-86 12 -176 17t-182 5h-65q-31 0 -64 -2q-16 0 -26.5 -11 t-10.5 -28v-297q0 -39 39 -39h35q-25 -61 -48.5 -119.5t-47.5 -117.5q-10 23 -21.5 46t-23.5 50q-16 33 -30.5 64.5t-29.5 62.5q10 2 23 2q12 0 24 2q16 2 25.5 13.5t9.5 25.5v297q0 18 -12 29.5t-29 9.5q-98 -10 -194.5 -16.5t-190.5 -6.5q-121 0 -244 13q-18 2 -30.5 -9.5 t-12.5 -29.5q-2 -35 -2 -74v-74v-71q0 -35 -2 -72zM397 1120l37 -55q59 4 125 8t123 12q98 92 197.5 184.5t199.5 178.5q20 16 13 40.5t-35 27.5q-49 4 -99.5 6t-101.5 2q-127 0 -244 -13q-8 -2 -18 -8t-12 -14q-90 -184 -185 -369z" />
<glyph unicode="&#xfe;" horiz-adv-x="1558" d="M25 -94q0 -74 4 -148.5t8 -148.5q2 -12 11 -23.5t22 -13.5q209 -31 424 -31q150 0 294 13q16 2 25.5 13t9.5 27v297q0 18 -12 28.5t-31 10.5q-20 -2 -39.5 -3t-38.5 -3v90q51 -23 107 -31t111 -8q12 0 25 1t26 1q111 4 216 37t185 109l-4 -2q78 66 122 161t44 193v25 q0 109 -43 211t-115 182q-74 82 -175 122t-206 40h-16q-76 0 -147.5 -23.5t-133.5 -64.5v84q0 43 2 86v-2q2 31 2 61v61v60q0 31 -2 63q-2 16 -13 27.5t-28 9.5q-201 -12 -397 -12h-86q-41 0 -84 2q-16 0 -27.5 -10.5t-13.5 -26.5q-4 -74 -8 -148.5t-6 -148.5 q0 -18 14.5 -30.5t32.5 -8.5q10 2 18 2q10 0 21 -2q2 0 4 -1t4 -1q-6 -274 -6 -549q0 -135 1 -273t5 -273q-4 0 -9 1t-9 1l-47 6q-18 4 -29.5 -8.5t-11.5 -30.5zM696 475q0 6 1 10.5t1 8.5v18q0 31 8.5 61.5t25 56t41 42t56.5 16.5q8 2 25 2q47 0 77 -44t30 -93 q0 -14 -3 -23v-20q0 -31 -9 -63.5t-25.5 -59.5t-42 -44t-58.5 -19q-6 -2 -18 -2q-25 0 -45.5 14t-34.5 35.5t-21.5 49.5t-7.5 54z" />
<glyph unicode="&#xff;" horiz-adv-x="1265" d="M-29 678q0 -16 11.5 -28.5t27.5 -12.5h2q8 -2 19.5 -3t21.5 -3q10 -16 19.5 -34.5t19.5 -37.5q74 -150 149.5 -299t159.5 -295l-7 -14l-7 -14q-2 -6 -4 -10.5t-6 -10.5h-15h-40q-18 0 -41 2q-10 0 -21.5 1t-21.5 1q-16 0 -27.5 -12t-11.5 -29q2 -76 3 -150.5t5 -150.5 q0 -14 10 -25.5t27 -11.5q35 -2 73.5 -3t73.5 -1q70 0 134.5 3t129.5 14q8 2 17.5 9t11.5 13q96 217 194.5 427t202.5 425l105 217h18q18 0 43 -6q23 -4 36 8t11 33q-2 37 -2 72v73v74q0 39 -2 74q0 12 -9 23.5t-24 13.5q-86 12 -169.5 16t-174.5 4h-143q-16 0 -26.5 -12 t-10.5 -29v-297q0 -16 11.5 -28.5t29.5 -10.5q8 0 15.5 1t17.5 1q-27 -57 -51 -127l2 2q-27 -63 -47 -118q-12 23 -23.5 47t-21.5 49l-58 129q8 0 20.5 1t23 2t12.5 2t-11 1q35 4 35 39v299q0 16 -12 28.5t-29 10.5q-96 -10 -188 -16.5t-185 -6.5q-127 0 -256 13 q-18 2 -30.5 -10.5t-12.5 -28.5q-2 -74 -3 -146.5t-1 -146.5zM127 1145q0 -16 11.5 -27.5t27.5 -11.5q84 0 165 1t161 11q35 4 34 39v80q0 41 2 82q2 20 2 41v41v41q0 20 -2 41q-2 16 -14 28.5t-29 10.5q-78 -8 -154.5 -10.5t-156.5 -4.5l-39 -37q-4 -82 -5 -162.5 t-3 -162.5zM752 1501q2 -49 2 -96v-96q0 -33 1 -65t1 -64q0 -18 12 -30.5t29 -10.5q23 2 46 3t46 1q59 0 114.5 -4t112.5 -9q18 -2 30.5 11.5t10.5 32.5q-2 27 -2 51q0 27 -2 55q-2 53 -3 107.5t-5 107.5q0 14 -10.5 25.5t-22.5 13.5q-53 4 -109.5 7t-113.5 3h-51 q-25 0 -50 -2z" />
<glyph unicode="&#x152;" horiz-adv-x="2283" d="M31 711q0 -12 4 -23v-10q0 -143 59.5 -278.5t171.5 -231.5q119 -102 267.5 -147.5t304.5 -45.5h24q276 0 548.5 14.5t547.5 14.5h110t109 -2l41 33q16 104 23.5 208.5t11.5 213.5q0 16 -12.5 28.5t-28.5 12.5q-18 0 -38 1t-36 1h4q-121 6 -237 6h-54q-16 0 -26 -10.5 t-10 -24.5q-4 -16 -5 -35v-35h-73q-37 0 -75 -1t-77 -1h-22q4 35 4 70v74h102h70t71 -2q14 0 26.5 11t12.5 28q2 66 2 133v135q0 16 -11 27.5t-28 11.5q-29 0 -57.5 1t-56.5 1h-133v12v115h69q37 0 74 -1t76 -1h26v-35q0 -10 2.5 -18.5t2.5 -16.5q0 -39 38 -39 q178 0 357 -12q16 -2 28.5 11.5t12.5 29.5q-6 106 -14.5 212.5t-20.5 211.5q0 14 -10.5 23.5t-26.5 11.5q-143 12 -289.5 17t-294.5 5q-188 0 -372.5 -6t-370.5 -14q-14 2 -29 2h-26q-139 0 -275.5 -48.5t-246 -135.5t-177 -207.5t-67.5 -266.5v-28zM641 633v18q0 10 4 19 q-4 10 -4 20v23q0 51 17.5 101t48 91t74.5 66.5t98 25.5q4 0 11 -1t13 -1h-2q14 0 24.5 1t20.5 1h4v-618h-16q-10 0 -22.5 -1t-22.5 -1q-8 -2 -21 -2q-49 0 -91 22.5t-71.5 59.5t-47 83t-17.5 93z" />
<glyph unicode="&#x153;" horiz-adv-x="2201" d="M8 475q0 -113 61.5 -208t155.5 -161q115 -78 249 -113.5t274 -33.5q102 0 205.5 17.5t195.5 68.5q98 -45 202 -57.5t208 -14.5q86 0 173 15.5t166.5 49.5t147.5 88t113 132q10 18 0.5 35.5t-31.5 21.5q-45 4 -88 10.5t-86 10.5q-59 8 -118.5 15t-119.5 14q-29 4 -39 -23 q-14 -33 -42.5 -56.5t-65.5 -23.5h-6q-29 0 -54.5 14.5t-42.5 36.5l2 -4q-12 23 -18 48.5t-10 52.5h377q86 0 167.5 -1t167.5 -6q16 -2 28.5 9.5t12.5 27.5q0 119 -56 226.5t-148 183.5q-96 82 -216 124t-247 42h-6q-98 0 -196.5 -21.5t-180.5 -79.5q-90 53 -193.5 68.5 t-204.5 17.5q-137 2 -270 -32.5t-248 -112.5v2q-96 -59 -157.5 -154.5t-61.5 -205.5v-23zM592 459v33q0 29 9 57.5t25.5 52t40 37.5t54.5 14h16q29 0 51.5 -14t39 -36.5t24.5 -50.5t8 -54v-19q0 -6 1 -12t1 -10q0 -55 -33.5 -104.5t-91.5 -49.5h-20q-57 0 -91 49t-34 107z M1442 604q6 45 20 78q6 20 26.5 32.5t43.5 12.5h2q47 0 75.5 -38t28.5 -81v-4h-196z" />
<glyph unicode="&#x178;" horiz-adv-x="1413" d="M-27 1051q0 -39 39 -39q8 0 18.5 -1t20.5 -3q6 -2 12 -2h15q78 -123 159.5 -240t168.5 -234v-47q0 -25 2 -47q2 -14 2 -26v-25v-16h-23h-49q-39 0 -39 -39q0 -27 1 -53.5t1 -55.5q0 -53 1 -109.5t3 -109.5q0 -33 35 -37q18 -2 37 -2h41q86 0 168 6t164 13q82 8 160.5 13 t156.5 5q16 0 27.5 10.5t11.5 26.5q4 82 6 165t4 165q0 16 -11 27.5t-28 11.5h-37q-16 0 -34 -2q0 10 1 21t1 22v116q18 29 34 51q72 104 142.5 204t148.5 200q16 -4 35 -4q6 0 15.5 -1t17.5 -1q16 0 27.5 12t11.5 29q0 78 -1 157.5t-3 159.5q0 14 -11.5 25.5t-23.5 13.5 q-96 12 -191.5 17.5t-193.5 5.5h-72t-72 -2q-16 0 -26 -11.5t-10 -27.5v-328q0 -16 12 -28.5t29 -10.5h10q-4 -4 -5 -8t-5 -8q-23 -37 -44.5 -74t-46.5 -74l-6 17l-75 135q6 0 22 4q14 2 23.5 14t9.5 27v325q0 16 -12.5 28.5t-30.5 10.5q-219 -25 -432 -24q-66 0 -132.5 3 t-134.5 7q-16 2 -28.5 -9t-12.5 -30q0 -18 -1 -38.5t-1 -37.5q-2 -43 -2 -88v-86v-69zM180 1536q0 -16 11.5 -27.5t27.5 -11.5q86 0 169 2t165 8q14 2 24.5 13.5t10.5 27.5v162t2 164q0 18 -13.5 29.5t-29.5 9.5q-80 -8 -159 -10t-159 -5l-39 -36q-4 -82 -6 -163t-4 -163z M813 1894q2 -41 2 -82v-79v-84q0 -41 2 -82q0 -16 12.5 -27.5t28.5 -9.5q23 2 45 2h47q59 0 115.5 -2t116.5 -4q16 0 28.5 12t10.5 29q-2 27 -2 53q0 29 -2 55q-2 55 -3.5 108.5t-5.5 108.5q-2 14 -13 25.5t-26 11.5q-12 0 -26.5 1t-26.5 1l-94 4t-92 2h-43q-20 0 -39 -2z " />
<glyph unicode="&#x2c6;" horiz-adv-x="624" d="M-133 956l35 -45q63 -4 136 -5t136 -1q18 16 42 33.5t44 34.5q12 10 26.5 20.5t26.5 20.5q33 -25 69 -53.5t64 -51.5h74q43 0 76 2q16 2 31 2h30h29q14 0 31 -2q23 -2 35 12.5t2 34.5q-37 82 -86.5 157t-106.5 147q-4 4 -13 8t-16 4q-20 2 -43 2h-43h-94t-94 -2 q-43 0 -85 -1t-85 -1q-6 0 -16.5 -5t-14.5 -12q-6 -6 -11 -13t-9 -13q-47 -66 -92 -131.5t-78 -141.5z" />
<glyph unicode="&#x2dc;" horiz-adv-x="624" d="M-129 971q0 -23 2 -33t12.5 -19.5t22.5 -9.5q37 -2 76 -2h73h52q35 0 38 29q2 16 13.5 28.5t27.5 12.5h5q25 0 48 -7t46 -18q4 -2 6 -4t4 -2q6 -2 14 -4t15 -4h-2q35 -10 68.5 -19.5t72.5 -9.5q63 0 116.5 26t91.5 66.5t59.5 92t21.5 104.5v21q0 10 -2 16l-35 29 q-39 2 -76 3t-76 1h-57q-16 0 -26.5 -9.5t-10.5 -23.5q0 -16 -9 -26.5t-26 -10.5h-4q-27 0 -56.5 11.5t-58.5 21.5q-4 2 -8 2t-8 2h2q-35 10 -70.5 19.5t-76.5 9.5h-2q-63 0 -115.5 -26t-89.5 -68t-57.5 -94t-20.5 -105z" />
<glyph unicode="&#x2000;" horiz-adv-x="995" />
<glyph unicode="&#x2001;" horiz-adv-x="1991" />
<glyph unicode="&#x2002;" horiz-adv-x="995" />
<glyph unicode="&#x2003;" horiz-adv-x="1991" />
<glyph unicode="&#x2004;" horiz-adv-x="663" />
<glyph unicode="&#x2005;" horiz-adv-x="497" />
<glyph unicode="&#x2006;" horiz-adv-x="331" />
<glyph unicode="&#x2007;" horiz-adv-x="331" />
<glyph unicode="&#x2008;" horiz-adv-x="248" />
<glyph unicode="&#x2009;" horiz-adv-x="398" />
<glyph unicode="&#x200a;" horiz-adv-x="110" />
<glyph unicode="&#x2010;" horiz-adv-x="825" d="M45 449q0 -49 2 -96.5t8 -94.5q2 -12 11.5 -21.5t21.5 -9.5q41 -4 81 -6t81 -2q51 0 102 2t101 4q45 2 86 2h86h104q14 -2 25.5 7.5t13.5 23.5q12 88 12 184q0 94 -12 187q-2 10 -12.5 19t-22.5 11q-45 2 -89 3.5t-89 1.5t-90 -1t-90 -1q-49 -2 -96.5 -3.5t-98.5 -1.5 h-43t-43 2l-39 -30q-6 -45 -8 -90t-2 -90z" />
<glyph unicode="&#x2011;" horiz-adv-x="825" d="M45 449q0 -49 2 -96.5t8 -94.5q2 -12 11.5 -21.5t21.5 -9.5q41 -4 81 -6t81 -2q51 0 102 2t101 4q45 2 86 2h86h104q14 -2 25.5 7.5t13.5 23.5q12 88 12 184q0 94 -12 187q-2 10 -12.5 19t-22.5 11q-45 2 -89 3.5t-89 1.5t-90 -1t-90 -1q-49 -2 -96.5 -3.5t-98.5 -1.5 h-43t-43 2l-39 -30q-6 -45 -8 -90t-2 -90z" />
<glyph unicode="&#x2012;" horiz-adv-x="825" d="M45 449q0 -49 2 -96.5t8 -94.5q2 -12 11.5 -21.5t21.5 -9.5q41 -4 81 -6t81 -2q51 0 102 2t101 4q45 2 86 2h86h104q14 -2 25.5 7.5t13.5 23.5q12 88 12 184q0 94 -12 187q-2 10 -12.5 19t-22.5 11q-45 2 -89 3.5t-89 1.5t-90 -1t-90 -1q-49 -2 -96.5 -3.5t-98.5 -1.5 h-43t-43 2l-39 -30q-6 -45 -8 -90t-2 -90z" />
<glyph unicode="&#x2013;" horiz-adv-x="950" d="M-53 557q0 -43 2 -85t12 -81q4 -10 14.5 -19.5t22.5 -9.5q66 -2 133 -2h135q82 0 163 1t163 1q90 2 178 1t178 -1q29 0 37 29q18 76 19 166q0 86 -19 166q-8 27 -35 27q-68 4 -137 4h-133h-164q-80 0 -162 -2q-88 -2 -178 -2h-176l-39 -27q-10 -41 -12 -82t-2 -84z" />
<glyph unicode="&#x2014;" horiz-adv-x="1972" d="M-74 557q0 -45 8.5 -88t28.5 -84q4 -8 15.5 -15.5t21.5 -7.5q141 -2 279 -2h280q168 0 335 1t337 1q186 2 369.5 1t369.5 -1q10 0 21.5 7.5t15.5 15.5q39 80 39 172q0 86 -41 172q-4 8 -15.5 14.5t-21.5 6.5q-139 4 -278 4h-279h-338q-166 0 -336 -2q-186 -2 -370 -2 h-369l-35 -21q-23 -41 -30 -85t-7 -87z" />
<glyph unicode="&#x2018;" horiz-adv-x="698" d="M94 928q0 -84 2 -166t4 -166q0 -25 27 -33q33 -10 63.5 -11t61.5 -1q68 0 133 6q35 4 66.5 7t66.5 3h19q10 0 22 -2l39 35q2 84 4 166t2 166q0 14 -9 24.5t-22 12.5q-23 2 -47 3t-49 1h-20q-8 0 -19 -2q2 23 6.5 43t14.5 37q35 35 78 34q4 0 24 -4q18 -4 29.5 7.5 t11.5 29.5q0 16 -1 30.5t-1 29.5q0 29 -1 59.5t-1 58.5q0 10 -7 20.5t-18 14.5q-31 10 -67 15q-4 0 -10.5 1t-10.5 1h-14q-63 0 -122.5 -20.5t-112.5 -55.5l2 2q-70 -39 -107 -114t-37 -156v-76z" />
<glyph unicode="&#x2019;" horiz-adv-x="700" d="M94 967q0 -14 10.5 -24.5t24.5 -12.5q43 -6 94 -6h37q-4 -23 -7 -43.5t-13 -38.5q-31 -31 -74 -31q-18 0 -25 2q-18 8 -31.5 -2t-13.5 -33v-22q0 -51 6 -97v-57q0 -10 8.5 -20.5t18.5 -14.5q29 -10 34 -11t19 -3l25 -4h14q66 0 127.5 20.5t116.5 55.5l-4 -2 q72 39 108.5 114.5t36.5 155.5v78q0 82 -2 165t-6 164q0 27 -29 35q-25 6 -53.5 8.5t-56.5 2.5q-35 0 -69 -2.5t-68 -6.5q-61 -6 -119 -6h-31q-14 0 -31 2l-37 -35q-4 -68 -7 -137t-3 -137v-57z" />
<glyph unicode="&#x201a;" horiz-adv-x="698" d="M94 37q0 -33 33 -37q29 -4 58.5 -6t64.5 -2h8q-4 -35 -16 -74l2 6q-10 -23 -32 -31t-46 -8q-18 0 -27 2q-18 4 -30.5 -6t-12.5 -31q0 -92 6 -180q0 -10 7.5 -19t17.5 -13q29 -8 35 -9q6 0 16 -4l27 -6h14q66 0 127.5 20.5t114.5 55.5v-2q70 41 106.5 118.5t36.5 157.5v72 q0 82 -2 165t-4 165q0 14 -9 23t-20 14q-47 8 -110 8q-70 0 -137 -6q-31 -2 -61 -5.5t-58 -3.5q-14 0 -30.5 1t-33.5 4l-37 -35q-4 -84 -6 -167t-2 -167z" />
<glyph unicode="&#x201c;" horiz-adv-x="1378" d="M84 946q0 -180 18 -352q2 -12 13.5 -21.5t23.5 -11.5q162 -12 324 -12h74t73 2l35 37v55v135q-2 37 -3 73t-1 73q0 16 -11.5 27.5t-27.5 11.5q-23 0 -46.5 -1t-45.5 -1h-53q2 20 6 40.5t16 38.5l-6 -6q23 23 55.5 34t65.5 11h8q16 0 27.5 10.5t11.5 26.5v90t2 90 q0 14 -9 25.5t-24 13.5q-10 2 -24 2h-25h-41q-4 0 -10 -1t-10 -1q-66 -8 -129.5 -18t-122.5 -45l2 2q-82 -39 -124 -116t-42 -161v-51zM735 596q0 -16 12.5 -26.5t28.5 -10.5q117 4 230.5 5t230.5 1l39 31q10 82 14 165t4 169q0 33 -37 37q-29 2 -60.5 3t-61.5 1h-19 q2 23 5 42t12 36q41 35 90 34q12 0 22 -2q18 -4 32.5 7.5t12.5 31.5l-4 66t-6 65q-2 10 -2 23q0 12 -2 24q-2 10 -11.5 19.5t-19.5 13.5q-41 10 -90 10h-33q-61 0 -120.5 -13t-114.5 -44q-72 -41 -112 -113.5t-40 -150.5v-424z" />
<glyph unicode="&#x201d;" horiz-adv-x="1378" d="M84 965q0 -14 10 -24.5t27 -12.5q68 -6 137 -6q-2 -20 -5 -40t-9 -36q-18 -16 -42 -24.5t-48 -8.5q-10 0 -21 2q-18 4 -31.5 -7t-13.5 -30q0 -10 1 -18t1 -17q2 -80 12 -147q2 -10 10.5 -18.5t18.5 -12.5q16 0 25 -2q27 -8 55 -8h43q61 0 120.5 11.5t114.5 41.5l-2 -2 q80 41 117 118t37 157v12v203q0 100 2 202q0 16 -12.5 27.5t-28.5 11.5q-152 -6 -297 -6h-82q-39 0 -80 2l-41 -35q-8 -82 -13 -164.5t-5 -168.5zM733 1303q2 -84 2 -166v-166q0 -16 11.5 -26.5t27.5 -10.5q23 0 46.5 1t45.5 1h52q0 -23 -4.5 -41t-14.5 -35 q-45 -45 -108 -45h-15q-16 0 -28.5 -12t-10.5 -29q2 -10 2 -20v-21v-20t-2 -21q-2 -23 -2 -47v-47q0 -16 11.5 -26.5t27.5 -10.5h43h21q10 0 20 -2q72 6 141.5 18.5t130.5 45.5h-2q78 37 122 111.5t44 158.5v55q0 178 -18 350q-2 14 -12.5 23.5t-22.5 11.5q-154 12 -309 13 q-41 0 -82 -1.5t-82 -3.5z" />
<glyph unicode="&#x201e;" horiz-adv-x="1378" d="M84 37q0 -14 10 -25.5t27 -11.5l137 -6q-2 -18 -4 -35.5t-6 -36.5q-16 -18 -41 -26.5t-53 -8.5q-8 0 -15.5 1t-11.5 1q-16 0 -27.5 -11t-11.5 -28q2 -35 5 -68.5t7 -68.5v-20q0 -12 2 -22.5t10.5 -19.5t18.5 -13q6 -2 12 -3q6 0 13 -2q31 -6 55 -6h43q61 0 120.5 11.5 t114.5 42.5l-2 -3q80 41 117 120t37 159v8v203q0 100 2 203q0 16 -12.5 26.5t-28.5 10.5q-76 -2 -149.5 -3.5t-147.5 -1.5h-82q-39 0 -80 3l-41 -35q-8 -82 -13 -165t-5 -169zM733 375q2 -84 2 -168v-166q0 -16 11.5 -26.5t27.5 -10.5q23 0 46.5 1t45.5 1h52q0 -39 -13 -69 q-23 -29 -57.5 -38.5t-71.5 -9.5q-16 0 -28.5 -12t-10.5 -29q2 -12 2 -22v-21v-20q0 -12 -2 -23q-2 -23 -2 -45v-47q0 -14 10.5 -25.5t24.5 -11.5q12 -2 23 -2h24h45q70 0 137.5 14.5t130.5 47.5h-2q78 39 122 112.5t44 159.5v55q0 178 -18 351q-2 12 -12.5 22t-22.5 13 q-154 12 -309 12q-41 0 -82 -1t-82 -3z" />
<glyph unicode="&#x2022;" horiz-adv-x="915" d="M115 678q0 -68 27.5 -131.5t74.5 -110.5q43 -45 101.5 -70.5t119.5 -25.5h23q66 0 127 29.5t108 79.5v-3q45 41 75 101.5t30 126.5v14q0 68 -31 126t-76 106q-41 43 -99 70.5t-120 27.5q-4 0 -9 -1t-11 -1q-66 0 -127.5 -30t-112.5 -77q-43 -43 -71.5 -102t-28.5 -123v-6 z" />
<glyph unicode="&#x2026;" horiz-adv-x="1964" d="M18 184q0 -43 8.5 -83t24.5 -78q4 -10 14.5 -16.5t20.5 -6.5q66 -4 131 -4h133h207q18 0 30.5 10t8.5 27q-8 39 -11 76.5t-3 72.5q0 68 16 146q4 16 -9.5 27.5t-31.5 11.5h-471q-10 0 -21.5 -6.5t-15.5 -16.5q-14 -39 -22.5 -79t-8.5 -81zM696 182q0 -41 1 -78.5t8 -78.5 q0 -12 11 -20.5t27 -8.5q59 0 119 -1t121 1q59 0 118.5 1t119.5 1q14 0 25 9t11 22q12 76 13 155q0 78 -13 158q0 12 -12 21.5t-26 9.5h-119q-57 0 -119 -2q-59 -2 -121 -2h-119l-36 -31q-6 -39 -7.5 -78t-1.5 -78zM1360 37q-4 -16 9 -27.5t32 -11.5q119 2 237 2h236 q27 0 39 23q33 74 33 161q0 80 -35 160q-4 8 -15.5 15.5t-21.5 7.5q-45 4 -90 4h-92h-291q-20 0 -31.5 -11.5t-7.5 -27.5q6 -39 11 -76t5 -72t-5 -71.5t-13 -75.5z" />
<glyph unicode="&#x202f;" horiz-adv-x="398" />
<glyph unicode="&#x2039;" horiz-adv-x="743" d="M25 469q35 -82 70.5 -164t76.5 -164q31 -68 66 -137q4 -10 15 -16t21 -4q84 6 169 12t165 6h37q18 0 37 -2q23 -2 33 14.5t2 38.5q-45 104 -91 209t-94 207v-2l-12 22q25 53 48 103.5t48 103.5q27 55 50.5 110.5t50.5 111.5q8 18 1 33.5t-26 19.5q-47 10 -94 13t-96 3 q-59 0 -117.5 -5t-118.5 -9q-8 0 -17 -7.5t-13 -15.5q-51 -115 -103.5 -226.5t-107.5 -221.5q-8 -16 0 -33z" />
<glyph unicode="&#x203a;" horiz-adv-x="743" d="M24 20.5q7 -16.5 27 -20.5q43 -10 91 -12t96 -2q59 0 118.5 4t118.5 8q10 0 20.5 8t12.5 14q53 115 105.5 225.5t105.5 223.5q2 4 2 14q0 12 -2 19q-10 20 -17.5 39.5t-17.5 40.5q-41 98 -86 193t-92 192q-4 8 -14.5 14t-20.5 6l-94 -6q-61 -4 -122.5 -8t-127.5 -4 q-16 0 -33.5 1t-36.5 1q-20 0 -30.5 -16.5t-1.5 -36.5q39 -96 80.5 -188.5t84.5 -184.5v2l31 -70q-23 -49 -46 -100.5t-48 -102.5q-27 -55 -51.5 -109t-50.5 -110q-8 -18 -1 -34.5z" />
<glyph unicode="&#x205f;" horiz-adv-x="497" />
<glyph unicode="&#x2122;" horiz-adv-x="1861" d="M-14 1133q-2 -16 10 -29.5t29 -13.5q41 -2 81 -3h84h33q16 0 33 -2q-4 -43 -5 -86t-1 -86q0 -92 5 -183t17 -181q0 -12 12.5 -22.5t24.5 -10.5q59 -4 117 -4h115q39 0 39 39q-12 172 -13 346v94q0 49 4 96h101q35 0 70.5 1.5t70.5 1.5l37 38q0 45 1 89.5t1 89.5 q2 16 -11.5 27.5t-29.5 11.5q-29 0 -54.5 -1.5t-54.5 -1.5q-104 -2 -206.5 -3t-206.5 -1h-121q-59 0 -121 2q-12 0 -24.5 -8t-12.5 -20q-10 -33 -13 -70t-7 -76v2v-18t-4 -18zM860 1124q0 -94 4 -190v-189v-188q-2 -16 11.5 -28.5t29.5 -12.5h45q25 0 49 2q23 2 43 2h43h35 q16 0 26.5 10.5t10.5 26.5q2 63 4 127t2 129q18 -66 32.5 -129t31.5 -131q4 -16 17 -25.5t29.5 -5.5t29.5 4h28h109q10 0 22.5 7.5t12.5 17.5q23 57 42 114.5t39 116.5l-8 -106t-14 -107q-2 -16 11.5 -29.5t29.5 -13.5h229q12 0 23.5 9.5t15.5 23.5q16 92 24.5 185.5 t8.5 191.5t-9 190.5t-26 184.5l-37 30q-168 8 -340 13q-14 0 -26.5 -9.5t-12.5 -23.5q-12 -76 -27.5 -143.5t-31.5 -133.5q-20 66 -39.5 129.5t-42.5 129.5l4 -5q-4 8 -4 15q0 6 -4 12q-4 12 -15.5 21.5t-25.5 9.5h-84t-86 -2t-86 -2q-41 0 -84 -2q-16 0 -27.5 -10.5 t-11.5 -26.5v-189z" />
<glyph unicode="&#xe000;" horiz-adv-x="993" d="M0 0v993h993v-993h-993z" />
</font>
</defs>
</svg>
